SplineFontDB: 3.0
FontName: Francois
FullName: Francois
FamilyName: Francois
Weight: Book
Copyright: Copyright (c) 2011 by vernon adams. All rights reserved.
Version: 1.000
ItalicAngle: 0
UnderlinePosition: -103
UnderlineWidth: 102
Ascent: 1638
Descent: 410
sfntRevision: 0x00010000
LayerCount: 2
Layer: 0 1 "Back"  1
Layer: 1 1 "Fore"  0
XUID: [1021 823 301787212 7946996]
FSType: 0
OS2Version: 2
OS2_WeightWidthSlopeOnly: 0
OS2_UseTypoMetrics: 1
CreationTime: 1296813720
ModificationTime: 1301056978
PfmFamily: 17
TTFWeight: 400
TTFWidth: 5
LineGap: 0
VLineGap: 0
Panose: 2 0 5 3 4 0 0 2 0 4
OS2TypoAscent: 2177
OS2TypoAOffset: 0
OS2TypoDescent: -669
OS2TypoDOffset: 0
OS2TypoLinegap: 0
OS2WinAscent: 2177
OS2WinAOffset: 0
OS2WinDescent: 669
OS2WinDOffset: 0
HheadAscent: 2177
HheadAOffset: 0
HheadDescent: -669
HheadDOffset: 0
OS2SubXSize: 1434
OS2SubYSize: 1331
OS2SubXOff: 0
OS2SubYOff: 287
OS2SupXSize: 1434
OS2SupYSize: 1331
OS2SupXOff: 0
OS2SupYOff: 977
OS2StrikeYSize: 102
OS2StrikeYPos: 512
OS2Vendor: 'newt'
OS2CodePages: 20000193.4d000000
OS2UnicodeRanges: a00000ff.7800204b.14200000.00000000
Lookup: 258 0 0 "'kern' Horizontal Kerning in Latin lookup 0"  {"'kern' Horizontal Kerning in Latin lookup 0 subtable"  } ['kern' ('latn' <'dflt' > ) ]
MarkAttachClasses: 1
DEI: 91125
TtTable: prep
PUSHW_1
 511
SCANCTRL
PUSHB_1
 1
SCANTYPE
SVTCA[y-axis]
MPPEM
PUSHB_1
 8
LT
IF
PUSHB_2
 1
 1
INSTCTRL
EIF
PUSHB_2
 70
 6
CALL
IF
POP
PUSHB_1
 16
EIF
MPPEM
PUSHB_1
 20
GT
IF
POP
PUSHB_1
 128
EIF
SCVTCI
PUSHB_1
 6
CALL
NOT
IF
SVTCA[y-axis]
PUSHB_1
 4
DUP
RCVT
PUSHB_1
 3
CALL
WCVTP
PUSHB_1
 5
DUP
RCVT
PUSHB_3
 4
 22
 2
CALL
PUSHB_1
 3
CALL
WCVTP
PUSHB_1
 6
DUP
RCVT
PUSHB_3
 5
 19
 2
CALL
PUSHB_1
 3
CALL
WCVTP
PUSHB_1
 7
DUP
RCVT
PUSHB_3
 6
 17
 2
CALL
PUSHB_1
 3
CALL
WCVTP
PUSHB_1
 8
DUP
RCVT
PUSHB_3
 7
 16
 2
CALL
PUSHB_1
 3
CALL
WCVTP
PUSHB_1
 9
DUP
RCVT
PUSHB_3
 8
 15
 2
CALL
PUSHB_1
 3
CALL
WCVTP
SVTCA[x-axis]
PUSHB_1
 10
DUP
RCVT
PUSHB_1
 3
CALL
WCVTP
PUSHB_1
 11
DUP
RCVT
PUSHW_3
 10

StartChar: E
Encoding: 69 69 4
Width: 1067
Flags: W
HStem: 0 240<458 930> 672 258<458 780> 1296 240<458 914>
VStem: 158 300<240 672 930 1296>
LayerCount: 2
Fore
SplineSet
158 1536 m 1,0,-1
 938 1536 l 1,1,-1
 914 1296 l 1,2,-1
 458 1296 l 1,3,-1
 458 930 l 1,4,-1
 781 930 l 1,5,-1
 780 672 l 1,6,-1
 458 672 l 1,7,-1
 458 240 l 1,8,-1
 954 240 l 1,9,-1
 930 0 l 1,10,-1
 158 0 l 1,11,-1
 158 1536 l 1,0,-1
EndSplineSet
EndChar

StartChar: F
Encoding: 70 70 5
Width: 942
Flags: W
HStem: -12 21G<162 412> 638 255<462 784> 1295 241<462 918>
VStem: 162 300<12 638 893 1295>
LayerCount: 2
Fore
SplineSet
162 1536 m 1,0,-1
 942 1536 l 1,1,-1
 918 1295 l 1,2,-1
 462 1295 l 1,3,-1
 462 893 l 1,4,-1
 784 893 l 1,5,-1
 784 638 l 1,6,-1
 462 638 l 1,7,-1
 462 12 l 1,8,-1
 162 -12 l 1,9,-1
 162 1536 l 1,0,-1
EndSplineSet
EndChar

StartChar: G
Encoding: 71 71 6
Width: 1148
Flags: W
HStem: -32 241<477.702 676.516> 0 21G<919.5 1035> 508 260<618 746> 1332 236<493.104 671.685>
VStem: 85 300<367.367 1126.42> 746 289<289.068 508 1034 1237.51> 920 115<12 181.875>
LayerCount: 2
Fore
SplineSet
743 1015 m 1,0,1
 739 1044 739 1044 735.5 1078.5 c 128,-1,2
 732 1113 732 1113 725.5 1148.5 c 128,-1,3
 719 1184 719 1184 709 1217 c 128,-1,4
 699 1250 699 1250 682 1275.5 c 128,-1,5
 665 1301 665 1301 640 1316.5 c 128,-1,6
 615 1332 615 1332 580 1332 c 0,7,8
 540 1332 540 1332 510 1305.5 c 128,-1,9
 480 1279 480 1279 458 1235 c 128,-1,10
 436 1191 436 1191 422 1132.5 c 128,-1,11
 408 1074 408 1074 400 1010.5 c 128,-1,12
 392 947 392 947 388.5 881.5 c 128,-1,13
 385 816 385 816 385 758 c 0,14,15
 385 703 385 703 386 641 c 128,-1,16
 387 579 387 579 392.5 518 c 128,-1,17
 398 457 398 457 409.5 401 c 128,-1,18
 421 345 421 345 443 302.5 c 128,-1,19
 465 260 465 260 499 234.5 c 128,-1,20
 533 209 533 209 582 209 c 0,21,22
 622 209 622 209 652.5 231.5 c 128,-1,23
 683 254 683 254 704 294 c 128,-1,24
 725 334 725 334 735.5 389 c 128,-1,25
 746 444 746 444 746 508 c 1,26,-1
 594 508 l 1,27,-1
 618 768 l 1,28,-1
 1035 768 l 1,29,-1
 1035 12 l 1,30,-1
 920 0 l 1,31,32
 919 4 919 4 915.5 19 c 128,-1,33
 912 34 912 34 907 54.5 c 128,-1,34
 902 75 902 75 895.5 100 c 128,-1,35
 889 125 889 125 883 151 c 0,36,37
 868 211 868 211 850 285 c 1,38,39
 843 196 843 196 807 126 c 0,40,41
 792 96 792 96 768.5 68 c 128,-1,42
 745 40 745 40 711 17.5 c 128,-1,43
 677 -5 677 -5 631 -18.5 c 128,-1,44
 585 -32 585 -32 525 -32 c 0,45,46
 444 -32 444 -32 379.5 -1.5 c 128,-1,47
 315 29 315 29 266.5 83.5 c 128,-1,48
 218 138 218 138 183.5 213.5 c 128,-1,49
 149 289 149 289 127 378.5 c 128,-1,50
 105 468 105 468 95 568.5 c 128,-1,51
 85 669 85 669 85 774 c 0,52,53
 85 863 85 863 96.5 956 c 128,-1,54
 108 1049 108 1049 132.5 1137.5 c 128,-1,55
 157 1226 157 1226 196 1304 c 128,-1,56
 235 1382 235 1382 290.5 1441 c 128,-1,57
 346 1500 346 1500 419 1534 c 128,-1,58
 492 1568 492 1568 584 1568 c 0,59,60
 701 1568 701 1568 785 1523.5 c 128,-1,61
 869 1479 869 1479 923 1405 c 128,-1,62
 977 1331 977 1331 1003 1234.5 c 128,-1,63
 1029 1138 1029 1138 1029 1034 c 1,64,-1
 743 1015 l 1,0,1
EndSplineSet
EndChar

StartChar: H
Encoding: 72 72 7
Width: 1202
Flags: W
HStem: -12 21G<158 408 746 996> 639 274<458 746> 1516 20G<208 458 796 1046>
VStem: 158 300<12 639 913 1512> 746 300<12 639 913 1512>
LayerCount: 2
Fore
SplineSet
746 639 m 1,0,-1
 458 639 l 1,1,-1
 458 12 l 1,2,-1
 158 -12 l 1,3,-1
 158 1512 l 1,4,-1
 458 1536 l 1,5,-1
 458 913 l 1,6,-1
 746 913 l 1,7,-1
 746 1512 l 1,8,-1
 1046 1536 l 1,9,-1
 1046 12 l 1,10,-1
 746 -12 l 1,11,-1
 746 639 l 1,0,-1
EndSplineSet
EndChar

StartChar: I
Encoding: 73 73 8
Width: 609
Flags: W
HStem: -12 21G<158 408> 1516 20G<208 458>
VStem: 158 300<12 1512>
LayerCount: 2
Fore
SplineSet
158 1512 m 1,0,-1
 458 1536 l 1,1,-1
 458 12 l 1,2,-1
 158 -12 l 1,3,-1
 158 1512 l 1,0,-1
EndSplineSet
EndChar

StartChar: J
Encoding: 74 74 9
Width: 641
Flags: W
HStem: -28 219<14.1052 247> 1516 20G<254 504>
VStem: 204 300<214.146 1512>
LayerCount: 2
Fore
SplineSet
12 205 m 1,0,1
 36 197 36 197 55.5 194 c 128,-1,2
 75 191 75 191 92 191 c 0,3,4
 134 191 134 191 156.5 210 c 128,-1,5
 179 229 179 229 189.5 259.5 c 128,-1,6
 200 290 200 290 202 329 c 128,-1,7
 204 368 204 368 204 409 c 2,8,-1
 204 1512 l 1,9,-1
 504 1536 l 1,10,-1
 504 384 l 2,11,12
 504 292 504 292 489.5 216.5 c 128,-1,13
 475 141 475 141 440 86.5 c 128,-1,14
 405 32 405 32 347.5 2 c 128,-1,15
 290 -28 290 -28 204 -28 c 0,16,17
 123 -28 123 -28 12 2 c 1,18,-1
 12 205 l 1,0,1
EndSplineSet
EndChar

StartChar: K
Encoding: 75 75 10
Width: 1244
Flags: W
HStem: 0 21G<156 456 833.189 927.143> 1516 20G<206 456 809.167 1140>
VStem: 156 300<0 401 864 1512>
DStem2: 456 864 811 902 0.476283 0.879292<202.494 764.251>
LayerCount: 2
Fore
SplineSet
604 666 m 1,0,-1
 456 401 l 1,1,-1
 456 0 l 1,2,-1
 156 0 l 1,3,-1
 156 1512 l 1,4,-1
 456 1536 l 1,5,-1
 456 864 l 1,6,-1
 820 1536 l 1,7,-1
 1140 1536 l 1,8,-1
 811 902 l 1,9,-1
 1145 43 l 1,10,-1
 840 -27 l 1,11,-1
 604 666 l 1,0,-1
EndSplineSet
EndChar

StartChar: L
Encoding: 76 76 11
Width: 977
Flags: W
HStem: 0 240<457 929> 1516 20G<207.833 457>
VStem: 158 299<240 1512>
LayerCount: 2
Fore
SplineSet
457 1536 m 1,0,-1
 457 240 l 1,1,-1
 977 240 l 1,2,-1
 929 0 l 1,3,-1
 158 0 l 1,4,-1
 158 1512 l 1,5,-1
 457 1536 l 1,0,-1
EndSplineSet
EndChar

StartChar: M
Encoding: 77 77 12
Width: 1652
Flags: W
HStem: 0 21G<158 406 708.615 904.035 1186 1444.33> 1514 20G<158 602.347>
VStem: 158 248<12 1144> 1186 310<12 1140>
DStem2: 597 1534 406 1144 0.259973 -0.965616<326.935 983.368> 851 584 899 0 0.244137 0.969741<0 620.962>
LayerCount: 2
Fore
SplineSet
406 1144 m 1,0,-1
 406 12 l 1,1,-1
 158 0 l 1,2,-1
 158 1522 l 1,3,-1
 597 1534 l 1,4,-1
 851 584 l 1,5,-1
 1095 1500 l 1,6,-1
 1496 1524 l 1,7,-1
 1496 12 l 1,8,-1
 1186 -12 l 1,9,-1
 1186 1140 l 1,10,-1
 899 0 l 1,11,-1
 714 0 l 1,12,-1
 406 1144 l 1,0,-1
EndSplineSet
EndChar

StartChar: N
Encoding: 78 78 13
Width: 1277
Flags: W
HStem: 0 21G<158 426 865.646 1080> 1516 20G<158 479.665 909.333 1121>
VStem: 158 268<12 948> 867 254<622 1512>
LayerCount: 2
Fore
SplineSet
426 948 m 1,0,-1
 426 12 l 1,1,-1
 158 0 l 1,2,-1
 158 1524 l 1,3,-1
 471 1536 l 1,4,-1
 867 622 l 1,5,-1
 867 1512 l 1,6,-1
 1121 1536 l 1,7,-1
 1121 12 l 1,8,-1
 875 -12 l 1,9,-1
 426 948 l 1,0,-1
EndSplineSet
EndChar

StartChar: O
Encoding: 79 79 14
Width: 1136
Flags: W
HStem: -32 255<471.445 662.868> 1329 239<477.813 656.687>
VStem: 92 299<369.687 1197.49> 745 300<372.555 1197.49>
LayerCount: 2
Fore
SplineSet
567 -32 m 256,0,1
 469 -32 469 -32 395.5 1 c 128,-1,2
 322 34 322 34 269 93 c 128,-1,3
 216 152 216 152 182 232.5 c 128,-1,4
 148 313 148 313 128 407.5 c 128,-1,5
 108 502 108 502 100 607 c 128,-1,6
 92 712 92 712 92 820 c 0,7,8
 92 989 92 989 119.5 1127 c 128,-1,9
 147 1265 147 1265 205 1363 c 128,-1,10
 263 1461 263 1461 352.5 1514.5 c 128,-1,11
 442 1568 442 1568 567 1568 c 256,12,13
 692 1568 692 1568 782.5 1514.5 c 128,-1,14
 873 1461 873 1461 931.5 1363 c 128,-1,15
 990 1265 990 1265 1017.5 1127 c 128,-1,16
 1045 989 1045 989 1045 820 c 0,17,18
 1045 712 1045 712 1037 607 c 128,-1,19
 1029 502 1029 502 1008.5 407.5 c 128,-1,20
 988 313 988 313 953.5 232.5 c 128,-1,21
 919 152 919 152 866 93 c 128,-1,22
 813 34 813 34 739 1 c 128,-1,23
 665 -32 665 -32 567 -32 c 256,0,1
567 223 m 256,24,25
 627 223 627 223 662.5 264.5 c 128,-1,26
 698 306 698 306 716.5 383.5 c 128,-1,27
 735 461 735 461 740 571.5 c 128,-1,28
 745 682 745 682 745 820 c 0,29,30
 745 868 745 868 743.5 924 c 128,-1,31
 742 980 742 980 736 1036.5 c 128,-1,32
 730 1093 730 1093 718.5 1146 c 128,-1,33
 707 1199 707 1199 687 1239.5 c 128,-1,34
 667 1280 667 1280 637.5 1304.5 c 128,-1,35
 608 1329 608 1329 567 1329 c 256,36,37
 526 1329 526 1329 497 1304.5 c 128,-1,38
 468 1280 468 1280 448.5 1239.5 c 128,-1,39
 429 1199 429 1199 417.5 1146 c 128,-1,40
 406 1093 406 1093 400 1036.5 c 128,-1,41
 394 980 394 980 392.5 924 c 128,-1,42
 391 868 391 868 391 820 c 0,43,44
 391 682 391 682 396 571.5 c 128,-1,45
 401 461 401 461 419 383.5 c 128,-1,46
 437 306 437 306 472 264.5 c 128,-1,47
 507 223 507 223 567 223 c 256,24,25
EndSplineSet
EndChar

StartChar: P
Encoding: 80 80 15
Width: 1066
Flags: W
HStem: -12 21G<158 408> 604 243<460 689.836> 1296 239<460 703.031>
VStem: 158 300<12 604 847 1296> 767 299<922.376 1233>
LayerCount: 2
Fore
SplineSet
158 1536 m 1,0,-1
 350 1536 l 2,1,2
 427 1536 427 1536 510.5 1535 c 128,-1,3
 594 1534 594 1534 673.5 1522.5 c 128,-1,4
 753 1511 753 1511 824.5 1484.5 c 128,-1,5
 896 1458 896 1458 949.5 1406.5 c 128,-1,6
 1003 1355 1003 1355 1034.5 1274.5 c 128,-1,7
 1066 1194 1066 1194 1066 1075 c 0,8,9
 1066 967 1066 967 1040 890.5 c 128,-1,10
 1014 814 1014 814 969 761.5 c 128,-1,11
 924 709 924 709 864.5 678 c 128,-1,12
 805 647 805 647 737 630.5 c 128,-1,13
 669 614 669 614 597.5 609 c 128,-1,14
 526 604 526 604 458 604 c 1,15,-1
 458 12 l 1,16,-1
 158 -12 l 1,17,-1
 158 1536 l 1,0,-1
511 847 m 2,18,19
 563 847 563 847 609.5 856.5 c 128,-1,20
 656 866 656 866 691 891.5 c 128,-1,21
 726 917 726 917 746.5 962 c 128,-1,22
 767 1007 767 1007 767 1077 c 0,23,24
 767 1146 767 1146 749.5 1189 c 128,-1,25
 732 1232 732 1232 698 1255.5 c 128,-1,26
 664 1279 664 1279 615 1287.5 c 128,-1,27
 566 1296 566 1296 503 1296 c 2,28,-1
 460 1296 l 1,29,-1
 460 847 l 1,30,-1
 511 847 l 2,18,19
EndSplineSet
EndChar

StartChar: Q
Encoding: 81 81 16
Width: 1102
Flags: W
HStem: -32 255<412.378 601.997> 1330 238<420.327 605.33>
VStem: 37 299<381.604 1178.33> 690 300<385.577 1177.69>
LayerCount: 2
Fore
SplineSet
512 -32 m 1,0,1
 414 -32 414 -32 340.5 3 c 128,-1,2
 267 38 267 38 214 99 c 128,-1,3
 161 160 161 160 127 242.5 c 128,-1,4
 93 325 93 325 73 419.5 c 128,-1,5
 53 514 53 514 45 616.5 c 128,-1,6
 37 719 37 719 37 820 c 256,7,8
 37 921 37 921 49 1016 c 128,-1,9
 61 1111 61 1111 86 1194 c 128,-1,10
 111 1277 111 1277 150 1346 c 128,-1,11
 189 1415 189 1415 241.5 1464.5 c 128,-1,12
 294 1514 294 1514 361.5 1541 c 128,-1,13
 429 1568 429 1568 512 1568 c 256,14,15
 595 1568 595 1568 663 1541 c 128,-1,16
 731 1514 731 1514 784 1464.5 c 128,-1,17
 837 1415 837 1415 876 1346 c 128,-1,18
 915 1277 915 1277 940.5 1194 c 128,-1,19
 966 1111 966 1111 978 1016 c 128,-1,20
 990 921 990 921 990 820 c 0,21,22
 990 715 990 715 981 609 c 128,-1,23
 972 503 972 503 950 406 c 128,-1,24
 928 309 928 309 890 226 c 128,-1,25
 852 143 852 143 794 84 c 1,26,27
 802 39 802 39 824 11.5 c 128,-1,28
 846 -16 846 -16 874.5 -31 c 128,-1,29
 903 -46 903 -46 935 -52.5 c 128,-1,30
 967 -59 967 -59 995 -63 c 1,31,-1
 995 -293 l 1,32,33
 984 -293 984 -293 974.5 -294 c 128,-1,34
 965 -295 965 -295 956 -295 c 0,35,36
 881 -295 881 -295 823 -276.5 c 128,-1,37
 765 -258 765 -258 722 -222.5 c 128,-1,38
 679 -187 679 -187 649.5 -137 c 128,-1,39
 620 -87 620 -87 602 -24 c 1,40,41
 602 -26 602 -26 588 -26.5 c 128,-1,42
 574 -27 574 -27 557 -29 c 0,43,44
 537 -31 537 -31 512 -32 c 1,0,1
512 223 m 256,45,46
 577 223 577 223 613 268 c 128,-1,47
 649 313 649 313 666 393 c 128,-1,48
 683 473 683 473 686.5 582 c 128,-1,49
 690 691 690 691 690 820 c 0,50,51
 690 862 690 862 689 916.5 c 128,-1,52
 688 971 688 971 683 1027.5 c 128,-1,53
 678 1084 678 1084 667.5 1138.5 c 128,-1,54
 657 1193 657 1193 637 1235.5 c 128,-1,55
 617 1278 617 1278 586.5 1304 c 128,-1,56
 556 1330 556 1330 512 1330 c 256,57,58
 468 1330 468 1330 438 1304 c 128,-1,59
 408 1278 408 1278 388.5 1235.5 c 128,-1,60
 369 1193 369 1193 358 1138.5 c 128,-1,61
 347 1084 347 1084 342.5 1027.5 c 128,-1,62
 338 971 338 971 337 916.5 c 128,-1,63
 336 862 336 862 336 820 c 0,64,65
 336 691 336 691 339.5 582 c 128,-1,66
 343 473 343 473 359.5 393 c 128,-1,67
 376 313 376 313 411.5 268 c 128,-1,68
 447 223 447 223 512 223 c 256,45,46
EndSplineSet
EndChar

StartChar: R
Encoding: 82 82 17
Width: 1211
Flags: W
HStem: -12 21G<158 407.167 840.171 921.75> 673 222<457 574> 1296 240<457 732.307>
VStem: 158 299<12 673 895 1296> 786 300<954.201 1244.64>
DStem2: 878 689 574 673 0.3645 -0.931204<-32.2736 655.807>
LayerCount: 2
Fore
SplineSet
158 -12 m 1,0,-1
 158 1524 l 1,1,-1
 522 1536 l 1,2,3
 648 1536 648 1536 752 1511.5 c 128,-1,4
 856 1487 856 1487 930.5 1434.5 c 128,-1,5
 1005 1382 1005 1382 1045.5 1301 c 128,-1,6
 1086 1220 1086 1220 1086 1108 c 0,7,8
 1086 1033 1086 1033 1070 973 c 128,-1,9
 1054 913 1054 913 1025 866 c 128,-1,10
 996 819 996 819 955.5 783 c 128,-1,11
 915 747 915 747 866 719 c 0,12,13
 866 718 866 718 878 689 c 128,-1,14
 890 660 890 660 909.5 613 c 128,-1,15
 929 566 929 566 953.5 506 c 128,-1,16
 978 446 978 446 1004 384 c 0,17,18
 1065 238 1065 238 1143 53 c 1,19,-1
 848 -27 l 1,20,-1
 574 673 l 1,21,-1
 457 673 l 1,22,-1
 457 12 l 1,23,-1
 158 -12 l 1,0,-1
457 895 m 1,24,-1
 559 895 l 2,25,26
 604 895 604 895 645 902.5 c 128,-1,27
 686 910 686 910 717.5 932.5 c 128,-1,28
 749 955 749 955 767.5 996 c 128,-1,29
 786 1037 786 1037 786 1105 c 0,30,31
 786 1159 786 1159 771.5 1195.5 c 128,-1,32
 757 1232 757 1232 731.5 1254.5 c 128,-1,33
 706 1277 706 1277 671.5 1286.5 c 128,-1,34
 637 1296 637 1296 597 1296 c 2,35,-1
 457 1296 l 1,36,-1
 457 895 l 1,24,-1
EndSplineSet
EndChar

StartChar: S
Encoding: 83 83 18
Width: 1113
Flags: W
HStem: -32 255<462.974 677.57> 1329 239<454.851 669.477>
VStem: 95 322<1059.59 1292.56> 722 326<265.893 503.549>
DStem2: 511 1018 351 716 0.860863 -0.508837<-126.46 455.046>
LayerCount: 2
Fore
SplineSet
749 1141 m 1,0,1
 731 1179 731 1179 715.5 1213 c 128,-1,2
 700 1247 700 1247 679.5 1273 c 128,-1,3
 659 1299 659 1299 630 1314 c 128,-1,4
 601 1329 601 1329 556 1329 c 0,5,6
 521 1329 521 1329 494.5 1316 c 128,-1,7
 468 1303 468 1303 451 1281 c 128,-1,8
 434 1259 434 1259 425.5 1230 c 128,-1,9
 417 1201 417 1201 417 1169 c 0,10,11
 417 1143 417 1143 425 1120 c 128,-1,12
 433 1097 433 1097 446.5 1078 c 128,-1,13
 460 1059 460 1059 477 1043.5 c 128,-1,14
 494 1028 494 1028 511 1018 c 2,15,-1
 759 873 l 1,16,17
 847 823 847 823 903 768 c 128,-1,18
 959 713 959 713 990.5 659 c 128,-1,19
 1022 605 1022 605 1034 554.5 c 128,-1,20
 1046 504 1046 504 1048 463 c 1,21,22
 1048 352 1048 352 1010.5 260.5 c 128,-1,23
 973 169 973 169 907 104 c 128,-1,24
 841 39 841 39 751.5 3.5 c 128,-1,25
 662 -32 662 -32 558 -32 c 0,26,27
 462 -32 462 -32 382 -3 c 128,-1,28
 302 26 302 26 239.5 77.5 c 128,-1,29
 177 129 177 129 131.5 199.5 c 128,-1,30
 86 270 86 270 58 352 c 1,31,-1
 312 471 l 1,32,33
 334 435 334 435 360 391.5 c 128,-1,34
 386 348 386 348 418 310.5 c 128,-1,35
 450 273 450 273 491 248 c 128,-1,36
 532 223 532 223 586 223 c 0,37,38
 613 223 613 223 637.5 235.5 c 128,-1,39
 662 248 662 248 680.5 269.5 c 128,-1,40
 699 291 699 291 710.5 318.5 c 128,-1,41
 722 346 722 346 722 376 c 0,42,43
 722 437 722 437 692.5 483 c 128,-1,44
 663 529 663 529 620 557 c 1,45,-1
 351 716 l 2,46,47
 295 748 295 748 248.5 789 c 128,-1,48
 202 830 202 830 167.5 879.5 c 128,-1,49
 133 929 133 929 114 986 c 128,-1,50
 95 1043 95 1043 95 1108 c 0,51,52
 95 1210 95 1210 131.5 1294.5 c 128,-1,53
 168 1379 168 1379 231.5 1440 c 128,-1,54
 295 1501 295 1501 382.5 1534.5 c 128,-1,55
 470 1568 470 1568 572 1568 c 0,56,57
 728 1568 728 1568 839 1488.5 c 128,-1,58
 950 1409 950 1409 1003 1256 c 1,59,-1
 749 1141 l 1,0,1
EndSplineSet
EndChar

StartChar: T
Encoding: 84 84 19
Width: 973
Flags: W
HStem: -12 21G<339 589> 1296 240<50 339 639 926>
VStem: 339 300<12 1296>
LayerCount: 2
Fore
SplineSet
26 1296 m 1,0,-1
 50 1536 l 1,1,-1
 950 1536 l 1,2,-1
 926 1296 l 1,3,-1
 639 1296 l 1,4,-1
 639 12 l 1,5,-1
 339 -12 l 1,6,-1
 339 1296 l 1,7,-1
 26 1296 l 1,0,-1
EndSplineSet
EndChar

StartChar: U
Encoding: 85 85 20
Width: 1169
Flags: W
HStem: -32 255<482.063 713.141> 1516 20G<134 434 803.833 1033>
VStem: 134 300<272.922 1524> 758 275<268.989 1512>
LayerCount: 2
Fore
SplineSet
134 1524 m 1,0,-1
 434 1536 l 1,1,-1
 434 482 l 2,2,3
 434 436 434 436 437 390 c 128,-1,4
 440 344 440 344 456.5 307 c 128,-1,5
 473 270 473 270 506.5 246.5 c 128,-1,6
 540 223 540 223 602 223 c 0,7,8
 660 223 660 223 691.5 247 c 128,-1,9
 723 271 723 271 738 309 c 128,-1,10
 753 347 753 347 755.5 393.5 c 128,-1,11
 758 440 758 440 758 485 c 2,12,-1
 758 1512 l 1,13,-1
 1033 1536 l 1,14,-1
 1033 541 l 2,15,16
 1033 497 1033 497 1031 437.5 c 128,-1,17
 1029 378 1029 378 1016.5 314.5 c 128,-1,18
 1004 251 1004 251 976 188.5 c 128,-1,19
 948 126 948 126 895.5 77 c 128,-1,20
 843 28 843 28 761.5 -2 c 128,-1,21
 680 -32 680 -32 561 -32 c 0,22,23
 450 -32 450 -32 369.5 11.5 c 128,-1,24
 289 55 289 55 236.5 128.5 c 128,-1,25
 184 202 184 202 159 300 c 128,-1,26
 134 398 134 398 134 506 c 2,27,-1
 134 1524 l 1,0,-1
EndSplineSet
EndChar

StartChar: V
Encoding: 86 86 21
Width: 1125
Flags: W
HStem: 0 21G<390.249 728.818> 1516 20G<33 391.849 805 1089.18>
LayerCount: 2
Fore
SplineSet
33 1524 m 1,0,-1
 388 1536 l 1,1,-1
 592 476 l 1,2,-1
 805 1524 l 1,3,-1
 1094 1536 l 1,4,-1
 724 0 l 1,5,-1
 395 0 l 1,6,-1
 33 1524 l 1,0,-1
EndSplineSet
EndChar

StartChar: W
Encoding: 87 87 22
Width: 1687
Flags: W
HStem: 0 21G<382.906 665.539 987.525 1292.27> 1516 20G<75 406.522 738 986.484 1341 1611.73>
DStem2: 403 1536 75 1524 0.200565 -0.97968<0 933.798> 565 616 828 938 0.174264 0.984699<0 362.905> 1145 606 828 938 0.171208 -0.985235<-381.371 0> 1145 606 1288 0 0.208833 0.977951<0 938.691>
LayerCount: 2
Fore
SplineSet
662 0 m 1,0,-1
 387 0 l 1,1,-1
 75 1524 l 1,2,-1
 403 1536 l 1,3,-1
 565 616 l 1,4,-1
 738 1524 l 1,5,-1
 983 1536 l 1,6,-1
 1145 606 l 1,7,-1
 1341 1524 l 1,8,-1
 1616 1536 l 1,9,-1
 1288 0 l 1,10,-1
 991 0 l 1,11,-1
 828 938 l 1,12,-1
 662 0 l 1,0,-1
EndSplineSet
EndChar

StartChar: X
Encoding: 88 88 23
Width: 1270
Flags: W
HStem: 0 21G<105 398.023 813.977 1180> 1516 20G<120 487.922 831.777 1127>
DStem2: 105 0 389 0 0.43212 0.901816<122.722 650.266 1263.9 1703.23> 479 1536 120 1536 0.416165 -0.909289<0 436.884 1012.15 1539.83>
LayerCount: 2
Fore
SplineSet
606 481 m 1,0,-1
 389 0 l 1,1,-1
 105 0 l 1,2,-1
 486 780 l 1,3,-1
 120 1536 l 1,4,-1
 479 1536 l 1,5,-1
 657 1137 l 1,6,-1
 841 1536 l 1,7,-1
 1127 1536 l 1,8,-1
 781 838 l 1,9,-1
 1180 0 l 1,10,-1
 823 0 l 1,11,-1
 606 481 l 1,0,-1
EndSplineSet
EndChar

StartChar: Y
Encoding: 89 89 24
Width: 1062
Flags: W
HStem: -12 21G<387 639.5> 1516 20G<17 353.594 778.875 1045>
VStem: 387 303<12 608>
DStem2: 558 896 690 643 0.369416 0.929264<0 678.956>
LayerCount: 2
Fore
SplineSet
387 608 m 1,0,-1
 17 1536 l 1,1,-1
 347 1536 l 1,2,-1
 558 896 l 1,3,-1
 786 1536 l 1,4,-1
 1045 1536 l 1,5,-1
 690 643 l 1,6,-1
 690 12 l 1,7,-1
 387 -12 l 1,8,-1
 387 608 l 1,0,-1
EndSplineSet
EndChar

StartChar: Z
Encoding: 90 90 25
Width: 1146
Flags: W
HStem: 0 240<489 969> 1296 240<190 649>
DStem2: 119 190 489 240 0.432148 0.901803<204.985 1226.43>
LayerCount: 2
Fore
SplineSet
649 1296 m 1,0,-1
 166 1296 l 1,1,-1
 190 1536 l 1,2,-1
 1003 1536 l 1,3,-1
 1003 1337 l 1,4,-1
 489 240 l 1,5,-1
 1017 240 l 1,6,-1
 969 0 l 1,7,-1
 119 0 l 1,8,-1
 119 190 l 1,9,-1
 649 1296 l 1,0,-1
EndSplineSet
EndChar

StartChar: one
Encoding: 49 49 26
Width: 828
Flags: W
HStem: 0 251<100 297 585 772> 1516 20G<401.951 585>
VStem: 297 288<251 1132>
LayerCount: 2
Fore
SplineSet
100 251 m 1,0,-1
 297 251 l 1,1,-1
 297 1132 l 1,2,3
 260 1128 260 1128 226 1124 c 0,4,5
 197 1121 197 1121 165 1118.5 c 128,-1,6
 133 1116 133 1116 113 1116 c 2,7,-1
 87 1116 l 1,8,-1
 87 1331 l 1,9,-1
 436 1536 l 1,10,-1
 585 1536 l 1,11,-1
 585 251 l 1,12,-1
 784 251 l 1,13,-1
 772 0 l 1,14,-1
 100 0 l 1,15,-1
 100 251 l 1,0,-1
EndSplineSet
EndChar

StartChar: two
Encoding: 50 50 27
Width: 1079
Flags: W
HStem: 0 252<415 921> 1297 231<441.912 639.815>
VStem: 671 300<955.742 1267.25>
LayerCount: 2
Fore
SplineSet
113 1148 m 1,0,1
 128 1224 128 1224 165 1293 c 128,-1,2
 202 1362 202 1362 259 1414 c 128,-1,3
 316 1466 316 1466 391 1497 c 128,-1,4
 466 1528 466 1528 556 1528 c 0,5,6
 641 1528 641 1528 717 1504.5 c 128,-1,7
 793 1481 793 1481 849 1433.5 c 128,-1,8
 905 1386 905 1386 938 1315.5 c 128,-1,9
 971 1245 971 1245 971 1152 c 0,10,11
 971 1070 971 1070 947 988.5 c 128,-1,12
 923 907 923 907 882 827 c 128,-1,13
 841 747 841 747 786 670 c 128,-1,14
 731 593 731 593 669.5 520 c 128,-1,15
 608 447 608 447 542.5 379.5 c 128,-1,16
 477 312 477 312 415 252 c 1,17,-1
 945 252 l 1,18,19
 945 214 945 214 941 184 c 128,-1,20
 937 154 937 154 932.5 125.5 c 128,-1,21
 928 97 928 97 924.5 67 c 128,-1,22
 921 37 921 37 921 0 c 1,23,-1
 82 0 l 1,24,-1
 82 223 l 1,25,26
 139 297 139 297 205 373 c 128,-1,27
 271 449 271 449 336 526 c 128,-1,28
 401 603 401 603 462 682 c 128,-1,29
 523 761 523 761 569 840 c 128,-1,30
 615 919 615 919 643 998 c 128,-1,31
 671 1077 671 1077 671 1156 c 0,32,33
 671 1184 671 1184 662.5 1210 c 128,-1,34
 654 1236 654 1236 638.5 1255 c 128,-1,35
 623 1274 623 1274 599.5 1285.5 c 128,-1,36
 576 1297 576 1297 546 1297 c 0,37,38
 517 1297 517 1297 493.5 1287 c 128,-1,39
 470 1277 470 1277 451.5 1261 c 128,-1,40
 433 1245 433 1245 419 1224.5 c 128,-1,41
 405 1204 405 1204 395 1183 c 0,42,43
 370 1133 370 1133 359 1070 c 1,44,-1
 113 1148 l 1,0,1
EndSplineSet
EndChar

StartChar: three
Encoding: 51 51 28
Width: 1041
Flags: W
HStem: -25 261<342.202 600.761> 669 230<334 553.196> 1284 250<382.95 594.907>
VStem: 637 290<272.931 422.844 976.691 1242.89> 659 289<296.491 580.829>
LayerCount: 2
Fore
SplineSet
95 1241 m 1,0,1
 135 1319 135 1319 180 1374.5 c 128,-1,2
 225 1430 225 1430 277.5 1465.5 c 128,-1,3
 330 1501 330 1501 391 1517.5 c 128,-1,4
 452 1534 452 1534 526 1534 c 0,5,6
 602 1534 602 1534 674 1509.5 c 128,-1,7
 746 1485 746 1485 802.5 1437.5 c 128,-1,8
 859 1390 859 1390 893 1319 c 128,-1,9
 927 1248 927 1248 927 1155 c 0,10,11
 927 1123 927 1123 921 1078 c 128,-1,12
 915 1033 915 1033 891 984 c 128,-1,13
 867 935 867 935 820 887 c 128,-1,14
 773 839 773 839 691 801 c 1,15,16
 752 778 752 778 800 745.5 c 128,-1,17
 848 713 848 713 881 667.5 c 128,-1,18
 914 622 914 622 931 562.5 c 128,-1,19
 948 503 948 503 948 428 c 0,20,21
 948 318 948 318 913 233.5 c 128,-1,22
 878 149 878 149 818 91.5 c 128,-1,23
 758 34 758 34 678 4.5 c 128,-1,24
 598 -25 598 -25 508 -25 c 0,25,26
 429 -25 429 -25 354 -4.5 c 128,-1,27
 279 16 279 16 216 58 c 128,-1,28
 153 100 153 100 107 163.5 c 128,-1,29
 61 227 61 227 40 313 c 1,30,-1
 258 408 l 1,31,32
 272 374 272 374 289.5 343 c 128,-1,33
 307 312 307 312 333.5 288 c 128,-1,34
 360 264 360 264 397.5 250 c 128,-1,35
 435 236 435 236 489 236 c 0,36,37
 528 236 528 236 559 251.5 c 128,-1,38
 590 267 590 267 612.5 293 c 128,-1,39
 635 319 635 319 647 353 c 128,-1,40
 659 387 659 387 659 424 c 0,41,42
 659 503 659 503 633 551.5 c 128,-1,43
 607 600 607 600 563 626 c 128,-1,44
 519 652 519 652 460 660.5 c 128,-1,45
 401 669 401 669 334 669 c 1,46,-1
 334 899 l 1,47,48
 396 899 396 899 451 907.5 c 128,-1,49
 506 916 506 916 547.5 940 c 128,-1,50
 589 964 589 964 613 1006 c 128,-1,51
 637 1048 637 1048 637 1116 c 0,52,53
 637 1149 637 1149 628 1179.5 c 128,-1,54
 619 1210 619 1210 601 1233 c 128,-1,55
 583 1256 583 1256 556 1270 c 128,-1,56
 529 1284 529 1284 493 1284 c 0,57,58
 443 1284 443 1284 407.5 1259 c 128,-1,59
 372 1234 372 1234 348 1204 c 0,60,61
 320 1169 320 1169 301 1124 c 1,62,-1
 95 1241 l 1,0,1
EndSplineSet
EndChar

StartChar: four
Encoding: 52 52 29
Width: 1037
Flags: W
HStem: -12 21G<524 764> 384 230<239 524 812 980> 1516 20G<499.937 812>
VStem: 524 288<12 384 614 1153>
DStem2: 1 614 239 614 0.48403 0.875051<115.199 724.801>
LayerCount: 2
Fore
SplineSet
524 384 m 1,0,-1
 1 384 l 1,1,-1
 1 614 l 1,2,-1
 511 1536 l 1,3,-1
 812 1536 l 1,4,-1
 812 614 l 1,5,-1
 1004 614 l 1,6,-1
 980 384 l 1,7,-1
 812 384 l 1,8,-1
 812 12 l 1,9,-1
 524 -12 l 1,10,-1
 524 384 l 1,0,-1
524 614 m 1,11,-1
 524 1153 l 1,12,-1
 239 614 l 1,13,-1
 524 614 l 1,11,-1
EndSplineSet
EndChar

StartChar: five
Encoding: 53 53 30
Width: 1069
Flags: W
HStem: -25 264<390.415 627.026> 749 230<390.845 614.93> 1296 240<423 904>
VStem: 691 298<306.065 666.251>
DStem2: 107 731 390 938 0.0817134 0.996656<229.433 588.932>
LayerCount: 2
Fore
SplineSet
315 434 m 1,0,1
 326 379 326 379 351 336 c 0,2,3
 361 318 361 318 375 300.5 c 128,-1,4
 389 283 389 283 407.5 269.5 c 128,-1,5
 426 256 426 256 449 247.5 c 128,-1,6
 472 239 472 239 501 239 c 0,7,8
 552 239 552 239 588 256.5 c 128,-1,9
 624 274 624 274 647 307 c 128,-1,10
 670 340 670 340 680.5 387 c 128,-1,11
 691 434 691 434 691 493 c 0,12,13
 691 538 691 538 680 584 c 128,-1,14
 669 630 669 630 646.5 666.5 c 128,-1,15
 624 703 624 703 590 726 c 128,-1,16
 556 749 556 749 509 749 c 0,17,18
 455 749 455 749 406.5 718 c 128,-1,19
 358 687 358 687 321 642 c 1,20,-1
 107 731 l 1,21,-1
 173 1536 l 1,22,-1
 928 1536 l 1,23,-1
 904 1296 l 1,24,-1
 423 1296 l 1,25,-1
 390 938 l 1,26,27
 417 949 417 949 449 958 c 0,28,29
 476 966 476 966 512 972.5 c 128,-1,30
 548 979 548 979 589 979 c 2,31,-1
 591 979 l 2,32,33
 677 979 677 979 750 940.5 c 128,-1,34
 823 902 823 902 876 836 c 128,-1,35
 929 770 929 770 959 682.5 c 128,-1,36
 989 595 989 595 989 498 c 0,37,38
 989 384 989 384 954.5 288 c 128,-1,39
 920 192 920 192 858.5 122.5 c 128,-1,40
 797 53 797 53 712.5 14 c 128,-1,41
 628 -25 628 -25 528 -25 c 0,42,43
 451 -25 451 -25 379.5 -0.5 c 128,-1,44
 308 24 308 24 248.5 71.5 c 128,-1,45
 189 119 189 119 146 188.5 c 128,-1,46
 103 258 103 258 84 348 c 1,47,-1
 315 434 l 1,0,1
EndSplineSet
EndChar

StartChar: six
Encoding: 54 54 31
Width: 1027
Flags: W
HStem: -27 257<429.25 610.838> 692 242<430.369 615.071> 1306 240<459.594 643.307>
VStem: 83 293<344.449 671.738 856 1108.06> 667 289<290.026 638.909> 677.5 237.5<1170.67 1273.47>
LayerCount: 2
Fore
SplineSet
83 774 m 0,0,1
 83 855 83 855 94.5 944 c 128,-1,2
 106 1033 106 1033 131 1119 c 128,-1,3
 156 1205 156 1205 195 1282.5 c 128,-1,4
 234 1360 234 1360 288 1418.5 c 128,-1,5
 342 1477 342 1477 412.5 1511.5 c 128,-1,6
 483 1546 483 1546 571 1546 c 0,7,8
 635 1546 635 1546 692.5 1521.5 c 128,-1,9
 750 1497 750 1497 795.5 1449.5 c 128,-1,10
 841 1402 841 1402 872 1333 c 128,-1,11
 903 1264 903 1264 915 1174 c 1,12,-1
 691 1122 l 1,13,14
 685 1150 685 1150 677.5 1182.5 c 128,-1,15
 670 1215 670 1215 655.5 1242.5 c 128,-1,16
 641 1270 641 1270 616.5 1288 c 128,-1,17
 592 1306 592 1306 552 1306 c 0,18,19
 511 1306 511 1306 482 1283.5 c 128,-1,20
 453 1261 453 1261 434 1224 c 128,-1,21
 415 1187 415 1187 403.5 1139.5 c 128,-1,22
 392 1092 392 1092 386 1042 c 128,-1,23
 380 992 380 992 378 943.5 c 128,-1,24
 376 895 376 895 376 856 c 1,25,26
 423 891 423 891 486.5 912.5 c 128,-1,27
 550 934 550 934 612 934 c 0,28,29
 691 934 691 934 755 899 c 128,-1,30
 819 864 819 864 863.5 805.5 c 128,-1,31
 908 747 908 747 932 670.5 c 128,-1,32
 956 594 956 594 956 512 c 0,33,34
 956 408 956 408 925 311 c 128,-1,35
 894 214 894 214 837.5 139 c 128,-1,36
 781 64 781 64 702 18.5 c 128,-1,37
 623 -27 623 -27 528 -27 c 0,38,39
 434 -27 434 -27 364.5 6 c 128,-1,40
 295 39 295 39 246 96.5 c 128,-1,41
 197 154 197 154 165 232 c 128,-1,42
 133 310 133 310 115 399 c 128,-1,43
 97 488 97 488 90 584 c 128,-1,44
 83 680 83 680 83 774 c 0,0,1
376 608 m 0,45,46
 376 576 376 576 376 536 c 128,-1,47
 376 496 376 496 379 454 c 128,-1,48
 382 412 382 412 389.5 372 c 128,-1,49
 397 332 397 332 412.5 300.5 c 128,-1,50
 428 269 428 269 453 249.5 c 128,-1,51
 478 230 478 230 515 230 c 0,52,53
 561 230 561 230 590.5 254.5 c 128,-1,54
 620 279 620 279 637 316 c 128,-1,55
 654 353 654 353 660.5 396 c 128,-1,56
 667 439 667 439 667 477 c 0,57,58
 667 516 667 516 659 554 c 128,-1,59
 651 592 651 592 633 623 c 128,-1,60
 615 654 615 654 585 673 c 128,-1,61
 555 692 555 692 511 692 c 0,62,63
 484 692 484 692 459.5 685 c 128,-1,64
 435 678 435 678 417 670 c 0,65,66
 396 660 396 660 378 649 c 1,67,68
 377 641 377 641 377 633 c 1,69,70
 376 626 376 626 376 619.5 c 128,-1,71
 376 613 376 613 376 608 c 0,45,46
EndSplineSet
EndChar

StartChar: seven
Encoding: 55 55 32
Width: 945
Flags: W
HStem: 0 21G<201 555> 1288 248<102 609>
VStem: 201 354<0 277.383>
LayerCount: 2
Fore
SplineSet
201 0 m 1,0,1
 214 151 214 151 252 306.5 c 128,-1,2
 290 462 290 462 345.5 622.5 c 128,-1,3
 401 783 401 783 469 949 c 128,-1,4
 537 1115 537 1115 609 1288 c 1,5,-1
 78 1288 l 1,6,-1
 102 1536 l 1,7,-1
 930 1536 l 1,8,-1
 930 1323 l 1,9,10
 843 1151 843 1151 773.5 976.5 c 128,-1,11
 704 802 704 802 655.5 633 c 128,-1,12
 607 464 607 464 581 304 c 128,-1,13
 555 144 555 144 555 0 c 1,14,-1
 201 0 l 1,0,1
EndSplineSet
EndChar

StartChar: eight
Encoding: 56 56 33
Width: 1107
Flags: W
HStem: -27 225<423.296 689.391> 1298 248<444.036 687.177>
VStem: 80 288<253.399 552.275> 125 280<1038.34 1258.79> 730 246<1043.31 1254.67> 743 288<251.788 515.159>
LayerCount: 2
Fore
SplineSet
80 371 m 0,0,1
 80 443 80 443 99.5 504 c 128,-1,2
 119 565 119 565 153.5 615.5 c 128,-1,3
 188 666 188 666 234.5 706.5 c 128,-1,4
 281 747 281 747 336 778 c 1,5,6
 234 838 234 838 179.5 922 c 128,-1,7
 125 1006 125 1006 125 1122 c 0,8,9
 125 1218 125 1218 159.5 1296.5 c 128,-1,10
 194 1375 194 1375 253.5 1430.5 c 128,-1,11
 313 1486 313 1486 393.5 1516 c 128,-1,12
 474 1546 474 1546 566 1546 c 0,13,14
 645 1546 645 1546 719 1521.5 c 128,-1,15
 793 1497 793 1497 850 1450 c 128,-1,16
 907 1403 907 1403 941.5 1334.5 c 128,-1,17
 976 1266 976 1266 976 1178 c 0,18,19
 976 1123 976 1123 958.5 1072.5 c 128,-1,20
 941 1022 941 1022 911 977.5 c 128,-1,21
 881 933 881 933 841 896 c 128,-1,22
 801 859 801 859 756 832 c 1,23,24
 811 798 811 798 861 759 c 128,-1,25
 911 720 911 720 949 672.5 c 128,-1,26
 987 625 987 625 1009 567.5 c 128,-1,27
 1031 510 1031 510 1031 440 c 0,28,29
 1031 326 1031 326 990.5 239 c 128,-1,30
 950 152 950 152 882 93 c 128,-1,31
 814 34 814 34 725.5 3.5 c 128,-1,32
 637 -27 637 -27 540 -27 c 0,33,34
 457 -27 457 -27 375 -2.5 c 128,-1,35
 293 22 293 22 227.5 71.5 c 128,-1,36
 162 121 162 121 121 196 c 128,-1,37
 80 271 80 271 80 371 c 0,0,1
368 398 m 0,38,39
 368 345 368 345 382 307 c 128,-1,40
 396 269 396 269 420.5 245 c 128,-1,41
 445 221 445 221 478.5 209.5 c 128,-1,42
 512 198 512 198 551 198 c 0,43,44
 587 198 587 198 621.5 207.5 c 128,-1,45
 656 217 656 217 683 237.5 c 128,-1,46
 710 258 710 258 726.5 291.5 c 128,-1,47
 743 325 743 325 743 373 c 0,48,49
 743 409 743 409 733 441 c 128,-1,50
 723 473 723 473 707 501 c 128,-1,51
 691 529 691 529 670 552 c 128,-1,52
 649 575 649 575 628 593 c 0,53,54
 577 636 577 636 513 667 c 1,55,56
 472 635 472 635 440 594 c 0,57,58
 413 559 413 559 390.5 509.5 c 128,-1,59
 368 460 368 460 368 398 c 0,38,39
405 1165 m 0,60,61
 405 1121 405 1121 420.5 1086.5 c 128,-1,62
 436 1052 436 1052 459.5 1025 c 128,-1,63
 483 998 483 998 511 976.5 c 128,-1,64
 539 955 539 955 565 939 c 1,65,66
 611 967 611 967 647 1001 c 0,67,68
 678 1030 678 1030 704 1069.5 c 128,-1,69
 730 1109 730 1109 730 1155 c 0,70,71
 730 1186 730 1186 717.5 1212.5 c 128,-1,72
 705 1239 705 1239 682.5 1258 c 128,-1,73
 660 1277 660 1277 629 1287.5 c 128,-1,74
 598 1298 598 1298 562 1298 c 0,75,76
 530 1298 530 1298 501.5 1288 c 128,-1,77
 473 1278 473 1278 451.5 1260.5 c 128,-1,78
 430 1243 430 1243 417.5 1218.5 c 128,-1,79
 405 1194 405 1194 405 1165 c 0,60,61
EndSplineSet
EndChar

StartChar: nine
Encoding: 57 57 34
Width: 1027
Flags: W
HStem: -27 240<383.365 567.406> 585 242<411.914 596.785> 1289 257<416.162 599.309>
VStem: 71 289<880.981 1228.78> 112 224<262.74 348.328> 651 293<410.941 663 846.759 1174.55>
LayerCount: 2
Fore
SplineSet
944 745 m 0,0,1
 944 664 944 664 932.5 575 c 128,-1,2
 921 486 921 486 896 400 c 128,-1,3
 871 314 871 314 832 236.5 c 128,-1,4
 793 159 793 159 739 100.5 c 128,-1,5
 685 42 685 42 614.5 7.5 c 128,-1,6
 544 -27 544 -27 456 -27 c 0,7,8
 391 -27 391 -27 334 -2.5 c 128,-1,9
 277 22 277 22 231.5 69.5 c 128,-1,10
 186 117 186 117 155 186 c 128,-1,11
 124 255 124 255 112 345 c 1,12,-1
 336 397 l 1,13,14
 342 368 342 368 349.5 336 c 128,-1,15
 357 304 357 304 371.5 276.5 c 128,-1,16
 386 249 386 249 410.5 231 c 128,-1,17
 435 213 435 213 475 213 c 0,18,19
 516 213 516 213 545 235.5 c 128,-1,20
 574 258 574 258 593 295 c 128,-1,21
 612 332 612 332 623.5 379.5 c 128,-1,22
 635 427 635 427 641 477 c 128,-1,23
 647 527 647 527 648.5 575.5 c 128,-1,24
 650 624 650 624 651 663 c 1,25,26
 604 628 604 628 540.5 606.5 c 128,-1,27
 477 585 477 585 415 585 c 0,28,29
 335 585 335 585 271.5 620 c 128,-1,30
 208 655 208 655 163.5 713.5 c 128,-1,31
 119 772 119 772 95 848 c 128,-1,32
 71 924 71 924 71 1007 c 0,33,34
 71 1110 71 1110 102 1207.5 c 128,-1,35
 133 1305 133 1305 189.5 1380 c 128,-1,36
 246 1455 246 1455 325 1500.5 c 128,-1,37
 404 1546 404 1546 499 1546 c 0,38,39
 593 1546 593 1546 662.5 1513 c 128,-1,40
 732 1480 732 1480 781 1422.5 c 128,-1,41
 830 1365 830 1365 862 1287 c 128,-1,42
 894 1209 894 1209 912 1120 c 128,-1,43
 930 1031 930 1031 937 935 c 128,-1,44
 944 839 944 839 944 745 c 0,0,1
651 911 m 0,45,46
 651 943 651 943 651 983 c 128,-1,47
 651 1023 651 1023 648 1065 c 128,-1,48
 645 1107 645 1107 637.5 1147 c 128,-1,49
 630 1187 630 1187 614.5 1219 c 128,-1,50
 599 1251 599 1251 574 1270 c 128,-1,51
 549 1289 549 1289 512 1289 c 0,52,53
 466 1289 466 1289 436.5 1264.5 c 128,-1,54
 407 1240 407 1240 390 1203 c 128,-1,55
 373 1166 373 1166 366.5 1122.5 c 128,-1,56
 360 1079 360 1079 360 1042 c 0,57,58
 360 1003 360 1003 368 965 c 128,-1,59
 376 927 376 927 394 896 c 128,-1,60
 412 865 412 865 442 846 c 128,-1,61
 472 827 472 827 516 827 c 0,62,63
 543 827 543 827 567 833.5 c 128,-1,64
 591 840 591 840 609 848 c 0,65,66
 630 858 630 858 649 870 c 1,67,68
 649 878 649 878 650 886 c 0,69,70
 650 893 650 893 650.5 899.5 c 128,-1,71
 651 906 651 906 651 911 c 0,45,46
EndSplineSet
EndChar

StartChar: zero
Encoding: 48 48 35
Width: 1131
Flags: W
HStem: -27 255<462.53 667.703> 1308 238<461.025 668.475>
VStem: 94 289<364 1172.19> 751 288<371.75 1169.61>
LayerCount: 2
Fore
SplineSet
565 -27 m 0,0,1
 464 -27 464 -27 390 8 c 128,-1,2
 316 43 316 43 264 103 c 128,-1,3
 212 163 212 163 179 243 c 128,-1,4
 146 323 146 323 127.5 413.5 c 128,-1,5
 109 504 109 504 101.5 599.5 c 128,-1,6
 94 695 94 695 94 786 c 0,7,8
 94 869 94 869 101.5 957.5 c 128,-1,9
 109 1046 109 1046 128 1130.5 c 128,-1,10
 147 1215 147 1215 180.5 1290.5 c 128,-1,11
 214 1366 214 1366 266 1423 c 128,-1,12
 318 1480 318 1480 392 1513 c 128,-1,13
 466 1546 466 1546 565 1546 c 256,14,15
 664 1546 664 1546 738 1513 c 128,-1,16
 812 1480 812 1480 864.5 1423 c 128,-1,17
 917 1366 917 1366 951 1290.5 c 128,-1,18
 985 1215 985 1215 1004.5 1130.5 c 128,-1,19
 1024 1046 1024 1046 1031.5 957.5 c 128,-1,20
 1039 869 1039 869 1039 786 c 0,21,22
 1038 695 1038 695 1030.5 599.5 c 128,-1,23
 1023 504 1023 504 1004 413.5 c 128,-1,24
 985 323 985 323 951.5 243 c 128,-1,25
 918 163 918 163 865.5 103 c 128,-1,26
 813 43 813 43 739 8 c 128,-1,27
 665 -27 665 -27 565 -27 c 0,0,1
565 228 m 256,28,29
 593 228 593 228 617.5 236 c 128,-1,30
 642 244 642 244 663 266 c 128,-1,31
 684 288 684 288 700 327 c 128,-1,32
 716 366 716 366 727.5 428 c 128,-1,33
 739 490 739 490 745 578 c 128,-1,34
 751 666 751 666 751 786 c 0,35,36
 751 900 751 900 746.5 995.5 c 128,-1,37
 742 1091 742 1091 723 1160.5 c 128,-1,38
 704 1230 704 1230 667 1269 c 128,-1,39
 630 1308 630 1308 565 1308 c 0,40,41
 499 1308 499 1308 462 1269 c 128,-1,42
 425 1230 425 1230 407.5 1160.5 c 128,-1,43
 390 1091 390 1091 386.5 995.5 c 128,-1,44
 383 900 383 900 383 786 c 0,45,46
 383 666 383 666 388.5 578 c 128,-1,47
 394 490 394 490 405 428 c 128,-1,48
 416 366 416 366 432 327 c 128,-1,49
 448 288 448 288 468 266 c 128,-1,50
 488 244 488 244 512.5 236 c 128,-1,51
 537 228 537 228 565 228 c 256,28,29
EndSplineSet
EndChar

StartChar: dollar
Encoding: 36 36 36
Width: 998
Flags: W
VStem: 65 292<1013.28 1231.55> 438 144<-96 35.9214 302 571 984 1245 1492.48 1632> 662 306<323.888 539.601>
LayerCount: 2
Fore
SplineSet
438 29 m 1,0,1
 360 38 360 38 295 70.5 c 128,-1,2
 230 103 230 103 179 153.5 c 128,-1,3
 128 204 128 204 90 269.5 c 128,-1,4
 52 335 52 335 28 410 c 1,5,-1
 252 529 l 1,6,7
 269 501 269 501 288 468.5 c 128,-1,8
 307 436 307 436 329.5 405 c 128,-1,9
 352 374 352 374 378.5 346.5 c 128,-1,10
 405 319 405 319 438 302 c 1,11,-1
 438 657 l 1,12,-1
 291 744 l 2,13,14
 241 774 241 774 199.5 808 c 128,-1,15
 158 842 158 842 128 883 c 128,-1,16
 98 924 98 924 81.5 971.5 c 128,-1,17
 65 1019 65 1019 65 1076 c 0,18,19
 65 1161 65 1161 93 1234 c 128,-1,20
 121 1307 121 1307 170.5 1362.5 c 128,-1,21
 220 1418 220 1418 288.5 1453.5 c 128,-1,22
 357 1489 357 1489 438 1501 c 1,23,-1
 438 1632 l 1,24,-1
 582 1632 l 1,25,-1
 582 1501 l 1,26,27
 704 1484 704 1484 791.5 1406 c 128,-1,28
 879 1328 879 1328 923 1194 c 1,29,-1
 689 1079 l 1,30,31
 677 1105 677 1105 665.5 1130 c 128,-1,32
 654 1155 654 1155 642 1176.5 c 128,-1,33
 630 1198 630 1198 615.5 1215.5 c 128,-1,34
 601 1233 601 1233 582 1245 c 1,35,-1
 582 899 l 1,36,-1
 699 831 l 2,37,38
 781 783 781 783 832.5 735.5 c 128,-1,39
 884 688 884 688 913.5 643 c 128,-1,40
 943 598 943 598 954.5 556.5 c 128,-1,41
 966 515 966 515 968 481 c 1,42,43
 968 389 968 389 939 312.5 c 128,-1,44
 910 236 910 236 858.5 178 c 128,-1,45
 807 120 807 120 736.5 82.5 c 128,-1,46
 666 45 666 45 582 32 c 1,47,-1
 582 -96 l 1,48,-1
 438 -96 l 1,49,-1
 438 29 l 1,0,1
357 1107 m 0,50,51
 357 1066 357 1066 382 1035 c 128,-1,52
 407 1004 407 1004 438 984 c 1,53,-1
 438 1255 l 1,54,55
 396 1237 396 1237 376.5 1196.5 c 128,-1,56
 357 1156 357 1156 357 1107 c 0,50,51
662 434 m 0,57,58
 662 479 662 479 639 512.5 c 128,-1,59
 616 546 616 546 582 571 c 1,60,-1
 582 296 l 1,61,62
 617 315 617 315 639.5 352.5 c 128,-1,63
 662 390 662 390 662 434 c 0,57,58
EndSplineSet
EndChar

StartChar: ampersand
Encoding: 38 38 37
Width: 1296
Flags: W
HStem: -28 264<394.823 660.587 1129.01 1256> 1346 200<508.609 687.737>
VStem: 68 275<287.612 557.723> 222 261<1081.36 1319.94> 712 245<1092.84 1320.99>
DStem2: 879 531 1100 473 0.392386 0.919801<0.0662053 307.217>
LayerCount: 2
Fore
SplineSet
68 375 m 0,0,1
 68 452 68 452 94.5 517.5 c 128,-1,2
 121 583 121 583 163 638 c 128,-1,3
 205 693 205 693 257.5 737 c 128,-1,4
 310 781 310 781 361 815 c 1,5,6
 322 870 322 870 291 932 c 0,7,8
 265 986 265 986 243.5 1054 c 128,-1,9
 222 1122 222 1122 222 1196 c 0,10,11
 222 1277 222 1277 251.5 1342 c 128,-1,12
 281 1407 281 1407 332 1452.5 c 128,-1,13
 383 1498 383 1498 451.5 1522 c 128,-1,14
 520 1546 520 1546 598 1546 c 0,15,16
 673 1546 673 1546 738 1524.5 c 128,-1,17
 803 1503 803 1503 852 1461 c 128,-1,18
 901 1419 901 1419 929 1357 c 128,-1,19
 957 1295 957 1295 957 1214 c 0,20,21
 957 1151 957 1151 932.5 1093 c 128,-1,22
 908 1035 908 1035 869.5 984.5 c 128,-1,23
 831 934 831 934 784 892 c 128,-1,24
 737 850 737 850 692 819 c 1,25,-1
 879 531 l 1,26,27
 899 576 899 576 917 625 c 0,28,29
 933 667 933 667 949.5 719.5 c 128,-1,30
 966 772 966 772 977 825 c 1,31,-1
 1204 754 l 1,32,33
 1186 673 1186 673 1157 600.5 c 128,-1,34
 1128 528 1128 528 1100 473 c 0,35,36
 1067 409 1067 409 1032 353 c 1,37,38
 1077 308 1077 308 1129 280.5 c 128,-1,39
 1181 253 1181 253 1256 244 c 1,40,-1
 1256 -14 l 1,41,42
 1168 -14 1168 -14 1111.5 -3 c 128,-1,43
 1055 8 1055 8 1014.5 29.5 c 128,-1,44
 974 51 974 51 941.5 82 c 128,-1,45
 909 113 909 113 869 153 c 1,46,47
 829 117 829 117 783 84.5 c 128,-1,48
 737 52 737 52 684 27 c 128,-1,49
 631 2 631 2 569.5 -13 c 128,-1,50
 508 -28 508 -28 438 -28 c 0,51,52
 361 -28 361 -28 294 2 c 128,-1,53
 227 32 227 32 176.5 85.5 c 128,-1,54
 126 139 126 139 97 213 c 128,-1,55
 68 287 68 287 68 375 c 0,0,1
472 646 m 1,56,57
 440 625 440 625 416 597.5 c 128,-1,58
 392 570 392 570 376 539 c 128,-1,59
 360 508 360 508 351.5 475 c 128,-1,60
 343 442 343 442 343 411 c 0,61,62
 343 376 343 376 354 344 c 128,-1,63
 365 312 365 312 387 288 c 128,-1,64
 409 264 409 264 443 250 c 128,-1,65
 477 236 477 236 524 236 c 0,66,67
 565 236 565 236 602 247 c 128,-1,68
 639 258 639 258 667 272 c 0,69,70
 700 288 700 288 728 309 c 1,71,72
 683 367 683 367 648.5 412.5 c 128,-1,73
 614 458 614 458 587.5 492.5 c 128,-1,74
 561 527 561 527 542.5 552 c 128,-1,75
 524 577 524 577 511 594 c 0,76,77
 481 634 481 634 472 646 c 1,56,57
584 971 m 1,78,79
 584 972 584 972 593.5 984 c 128,-1,80
 603 996 603 996 617 1016 c 128,-1,81
 631 1036 631 1036 648 1061.5 c 128,-1,82
 665 1087 665 1087 679 1115 c 128,-1,83
 693 1143 693 1143 702.5 1171.5 c 128,-1,84
 712 1200 712 1200 712 1227 c 0,85,86
 712 1256 712 1256 701.5 1278.5 c 128,-1,87
 691 1301 691 1301 674 1316 c 128,-1,88
 657 1331 657 1331 636 1338.5 c 128,-1,89
 615 1346 615 1346 594 1346 c 0,90,91
 574 1346 574 1346 554 1337 c 128,-1,92
 534 1328 534 1328 518.5 1312.5 c 128,-1,93
 503 1297 503 1297 493 1277 c 128,-1,94
 483 1257 483 1257 483 1235 c 0,95,96
 483 1207 483 1207 488.5 1182.5 c 128,-1,97
 494 1158 494 1158 506 1128.5 c 128,-1,98
 518 1099 518 1099 537.5 1061.5 c 128,-1,99
 557 1024 557 1024 584 971 c 1,78,79
EndSplineSet
EndChar

StartChar: a
Encoding: 97 97 38
Width: 1011
Flags: W
HStem: -27 206<311.5 483.608> -12 21G<621.461 859.333> 556 171.5<421.817 587> 956 211<426.621 559.766>
VStem: 80 282<212.07 493.29> 587 288<206.326 568 736.312 936.403>
LayerCount: 2
Fore
SplineSet
80 327 m 0,0,1
 80 409 80 409 103.5 470.5 c 128,-1,2
 127 532 127 532 166.5 576.5 c 128,-1,3
 206 621 206 621 258 651 c 128,-1,4
 310 681 310 681 366.5 699.5 c 128,-1,5
 423 718 423 718 480 727.5 c 128,-1,6
 537 737 537 737 587 740 c 1,7,8
 587 780 587 780 586 818.5 c 128,-1,9
 585 857 585 857 577 887.5 c 128,-1,10
 569 918 569 918 552 937 c 128,-1,11
 535 956 535 956 504 956 c 0,12,13
 478 956 478 956 459.5 944.5 c 128,-1,14
 441 933 441 933 428.5 914.5 c 128,-1,15
 416 896 416 896 409.5 872.5 c 128,-1,16
 403 849 403 849 400 826 c 1,17,-1
 120 875 l 1,18,19
 131 961 131 961 169 1017.5 c 128,-1,20
 207 1074 207 1074 260.5 1107 c 128,-1,21
 314 1140 314 1140 377.5 1153.5 c 128,-1,22
 441 1167 441 1167 504 1167 c 0,23,24
 602 1167 602 1167 672 1139.5 c 128,-1,25
 742 1112 742 1112 787 1064 c 128,-1,26
 832 1016 832 1016 853.5 951.5 c 128,-1,27
 875 887 875 887 875 813 c 2,28,-1
 875 217 l 2,29,30
 875 183 875 183 879.5 147 c 128,-1,31
 884 111 884 111 890 81 c 0,32,33
 897 46 897 46 906 12 c 1,34,-1
 626 -12 l 1,35,-1
 594 129 l 1,36,37
 577 98 577 98 549.5 70 c 128,-1,38
 522 42 522 42 488 20.5 c 128,-1,39
 454 -1 454 -1 416 -14 c 128,-1,40
 378 -27 378 -27 341 -27 c 0,41,42
 282 -27 282 -27 234 -0.5 c 128,-1,43
 186 26 186 26 151.5 73.5 c 128,-1,44
 117 121 117 121 98.5 185.5 c 128,-1,45
 80 250 80 250 80 327 c 0,0,1
362 331 m 0,46,47
 362 263 362 263 389.5 221 c 128,-1,48
 417 179 417 179 476 179 c 0,49,50
 496 179 496 179 515.5 189.5 c 128,-1,51
 535 200 535 200 551 213 c 0,52,53
 569 228 569 228 587 247 c 1,54,-1
 587 568 l 1,55,56
 539 568 539 568 498 556 c 128,-1,57
 457 544 457 544 426.5 516 c 128,-1,58
 396 488 396 488 379 442.5 c 128,-1,59
 362 397 362 397 362 331 c 0,46,47
EndSplineSet
EndChar

StartChar: b
Encoding: 98 98 39
Width: 1102
Flags: W
HStem: -27 206<530.862 730.5> -12 21G<192.333 382.974> 922 245<589.008 742> 1516 20G<284 444>
VStem: 156 288<238.458 868.675 1005 1500> 734 288<242.547 893.846>
LayerCount: 2
Fore
SplineSet
156 12 m 1,0,-1
 156 1500 l 1,1,-1
 444 1536 l 1,2,-1
 444 1005 l 1,3,4
 477 1041 477 1041 514 1071 c 128,-1,5
 551 1101 551 1101 589 1122 c 128,-1,6
 627 1143 627 1143 666 1155 c 128,-1,7
 705 1167 705 1167 742 1167 c 0,8,9
 799 1167 799 1167 850 1136 c 128,-1,10
 901 1105 901 1105 939 1035.5 c 128,-1,11
 977 966 977 966 999.5 853 c 128,-1,12
 1022 740 1022 740 1022 576 c 0,13,14
 1022 420 1022 420 1000 306.5 c 128,-1,15
 978 193 978 193 935.5 118.5 c 128,-1,16
 893 44 893 44 831.5 8.5 c 128,-1,17
 770 -27 770 -27 691 -27 c 0,18,19
 651 -27 651 -27 619.5 -20 c 128,-1,20
 588 -13 588 -13 563 -1 c 128,-1,21
 538 11 538 11 519.5 26.5 c 128,-1,22
 501 42 501 42 488 58 c 0,23,24
 457 96 457 96 444 144 c 1,25,-1
 374 -12 l 1,26,-1
 156 12 l 1,0,-1
444 480 m 2,27,28
 444 390 444 390 456 331.5 c 128,-1,29
 468 273 468 273 488 239.5 c 128,-1,30
 508 206 508 206 533 192.5 c 128,-1,31
 558 179 558 179 584 179 c 0,32,33
 637 179 637 179 667 211 c 128,-1,34
 697 243 697 243 712 297.5 c 128,-1,35
 727 352 727 352 730.5 424 c 128,-1,36
 734 496 734 496 734 576 c 0,37,38
 734 649 734 649 731.5 712 c 128,-1,39
 729 775 729 775 719.5 821.5 c 128,-1,40
 710 868 710 868 690 895 c 128,-1,41
 670 922 670 922 634 922 c 0,42,43
 608 922 608 922 575 909.5 c 128,-1,44
 542 897 542 897 513 882 c 0,45,46
 479 864 479 864 444 843 c 1,47,-1
 444 480 l 2,27,28
EndSplineSet
EndChar

StartChar: c
Encoding: 99 99 40
Width: 928
Flags: W
HStem: -27 243<422.41 573.371> 939 228<419.152 555.62>
VStem: 77 289<281.132 855.748> 590 273<754 911.441>
LayerCount: 2
Fore
SplineSet
856 405 m 1,0,1
 844 310 844 310 821.5 230.5 c 128,-1,2
 799 151 799 151 757.5 94 c 128,-1,3
 716 37 716 37 651 5 c 128,-1,4
 586 -27 586 -27 489 -27 c 0,5,6
 420 -27 420 -27 363 -4.5 c 128,-1,7
 306 18 306 18 260 58.5 c 128,-1,8
 214 99 214 99 180 155 c 128,-1,9
 146 211 146 211 123 277 c 128,-1,10
 100 343 100 343 88.5 416.5 c 128,-1,11
 77 490 77 490 77 566 c 0,12,13
 77 677 77 677 101.5 784.5 c 128,-1,14
 126 892 126 892 177 977 c 128,-1,15
 228 1062 228 1062 307 1114.5 c 128,-1,16
 386 1167 386 1167 495 1167 c 0,17,18
 574 1167 574 1167 640.5 1137 c 128,-1,19
 707 1107 707 1107 755.5 1052 c 128,-1,20
 804 997 804 997 832 921 c 128,-1,21
 860 845 860 845 863 754 c 1,22,-1
 590 742 l 1,23,24
 587 767 587 767 583 800.5 c 128,-1,25
 579 834 579 834 569 865 c 128,-1,26
 559 896 559 896 540.5 917.5 c 128,-1,27
 522 939 522 939 492 939 c 0,28,29
 460 939 460 939 438.5 919 c 128,-1,30
 417 899 417 899 403 866.5 c 128,-1,31
 389 834 389 834 381.5 793.5 c 128,-1,32
 374 753 374 753 370.5 712.5 c 128,-1,33
 367 672 367 672 366.5 636 c 128,-1,34
 366 600 366 600 366 576 c 256,35,36
 366 552 366 552 366.5 516 c 128,-1,37
 367 480 367 480 371 440 c 128,-1,38
 375 400 375 400 383 360 c 128,-1,39
 391 320 391 320 406 288 c 128,-1,40
 421 256 421 256 444 236 c 128,-1,41
 467 216 467 216 501 216 c 0,42,43
 522 216 522 216 538 225.5 c 128,-1,44
 554 235 554 235 566 250 c 128,-1,45
 578 265 578 265 586.5 284.5 c 128,-1,46
 595 304 595 304 601 324 c 0,47,48
 614 372 614 372 616 432 c 1,49,-1
 856 405 l 1,0,1
EndSplineSet
EndChar

StartChar: d
Encoding: 100 100 41
Width: 1101
Flags: W
HStem: -27 206<371.5 571.138> -12 21G<719.026 909.667> 956 211<354.5 525.29> 1516 20G<786 946>
VStem: 80 288<242.547 897.694> 658 288<238.458 910.531 1000 1500>
LayerCount: 2
Fore
SplineSet
728 -12 m 1,0,-1
 658 144 l 1,1,2
 645 96 645 96 614 58 c 0,3,4
 601 42 601 42 582.5 26.5 c 128,-1,5
 564 11 564 11 539 -1 c 128,-1,6
 514 -13 514 -13 482.5 -20 c 128,-1,7
 451 -27 451 -27 411 -27 c 0,8,9
 332 -27 332 -27 270.5 8.5 c 128,-1,10
 209 44 209 44 166.5 118.5 c 128,-1,11
 124 193 124 193 102 306.5 c 128,-1,12
 80 420 80 420 80 576 c 0,13,14
 80 735 80 735 97.5 847.5 c 128,-1,15
 115 960 115 960 153.5 1031 c 128,-1,16
 192 1102 192 1102 252 1134.5 c 128,-1,17
 312 1167 312 1167 397 1167 c 0,18,19
 421 1167 421 1167 445.5 1160 c 128,-1,20
 470 1153 470 1153 493 1141 c 128,-1,21
 516 1129 516 1129 537.5 1114 c 128,-1,22
 559 1099 559 1099 577 1083 c 0,23,24
 620 1046 620 1046 658 1000 c 1,25,-1
 658 1500 l 1,26,-1
 946 1536 l 1,27,-1
 946 12 l 1,28,-1
 728 -12 l 1,0,-1
658 864 m 1,29,30
 637 890 637 890 614 910 c 0,31,32
 594 927 594 927 569 941.5 c 128,-1,33
 544 956 544 956 518 956 c 0,34,35
 465 956 465 956 435 926.5 c 128,-1,36
 405 897 405 897 390 845.5 c 128,-1,37
 375 794 375 794 371.5 724.5 c 128,-1,38
 368 655 368 655 368 576 c 0,39,40
 368 496 368 496 371.5 424 c 128,-1,41
 375 352 375 352 390 297.5 c 128,-1,42
 405 243 405 243 435 211 c 128,-1,43
 465 179 465 179 518 179 c 0,44,45
 544 179 544 179 569 192.5 c 128,-1,46
 594 206 594 206 614 239.5 c 128,-1,47
 634 273 634 273 646 331.5 c 128,-1,48
 658 390 658 390 658 480 c 2,49,-1
 658 864 l 1,29,30
EndSplineSet
EndChar

StartChar: e
Encoding: 101 101 42
Width: 990
Flags: W
HStem: -27 212<439.727 590.656> 536 166<372 647> 969 198<436.622 597.011>
VStem: 85 287<269.577 536 702 871.423> 647 283<702 877.521>
LayerCount: 2
Fore
SplineSet
372 536 m 1,0,1
 372 482 372 482 379 420 c 128,-1,2
 386 358 386 358 402.5 306 c 128,-1,3
 419 254 419 254 446 219.5 c 128,-1,4
 473 185 473 185 512 185 c 0,5,6
 546 185 546 185 574 212 c 128,-1,7
 602 239 602 239 623 273 c 128,-1,8
 644 307 644 307 656.5 337 c 128,-1,9
 669 367 669 367 672 373 c 1,10,-1
 890 290 l 1,11,12
 870 220 870 220 837 162 c 128,-1,13
 804 104 804 104 757 62 c 128,-1,14
 710 20 710 20 648 -3.5 c 128,-1,15
 586 -27 586 -27 507 -27 c 0,16,17
 402 -27 402 -27 322.5 17 c 128,-1,18
 243 61 243 61 190.5 140 c 128,-1,19
 138 219 138 219 111.5 329 c 128,-1,20
 85 439 85 439 85 570 c 0,21,22
 85 702 85 702 112 812 c 128,-1,23
 139 922 139 922 193 1001 c 128,-1,24
 247 1080 247 1080 328 1123.5 c 128,-1,25
 409 1167 409 1167 517 1167 c 0,26,27
 620 1167 620 1167 697 1123.5 c 128,-1,28
 774 1080 774 1080 826 1001 c 128,-1,29
 878 922 878 922 904 812 c 128,-1,30
 930 702 930 702 930 570 c 1,31,-1
 926 556 l 2,32,33
 924 550 924 550 923 544.5 c 128,-1,34
 922 539 922 539 922 536 c 1,35,-1
 372 536 l 1,0,1
647 702 m 1,36,37
 647 759 647 759 639.5 808 c 128,-1,38
 632 857 632 857 616 892.5 c 128,-1,39
 600 928 600 928 574.5 948.5 c 128,-1,40
 549 969 549 969 512 969 c 0,41,42
 486 969 486 969 460.5 948.5 c 128,-1,43
 435 928 435 928 415.5 892.5 c 128,-1,44
 396 857 396 857 384 808 c 128,-1,45
 372 759 372 759 372 702 c 1,46,-1
 647 702 l 1,36,37
EndSplineSet
EndChar

StartChar: f
Encoding: 102 102 43
Width: 677
Flags: W
HStem: -12 21G<159 399> 936 216<29 159 447 638> 1344 202<472.818 639.435> 1344 172<473.547 640>
VStem: 159 288<12 936 1152 1318.76>
LayerCount: 2
Fore
SplineSet
159 936 m 1,0,-1
 17 936 l 1,1,-1
 29 1152 l 1,2,-1
 159 1152 l 1,3,-1
 159 1174 l 2,4,5
 159 1244 159 1244 164.5 1310.5 c 128,-1,6
 170 1377 170 1377 197.5 1429.5 c 128,-1,7
 225 1482 225 1482 283 1514 c 128,-1,8
 341 1546 341 1546 445 1546 c 0,9,10
 498 1546 498 1546 535 1541 c 128,-1,11
 572 1536 572 1536 595 1531 c 0,12,13
 622 1524 622 1524 640 1516 c 1,14,-1
 640 1344 l 1,15,-1
 577 1344 l 2,16,17
 532 1344 532 1344 506 1329 c 128,-1,18
 480 1314 480 1314 467 1290 c 128,-1,19
 454 1266 454 1266 450.5 1235 c 128,-1,20
 447 1204 447 1204 447 1173 c 2,21,-1
 447 1152 l 1,22,-1
 650 1152 l 1,23,-1
 638 936 l 1,24,-1
 447 936 l 1,25,-1
 447 12 l 1,26,-1
 159 -12 l 1,27,-1
 159 936 l 1,0,-1
EndSplineSet
EndChar

StartChar: g
Encoding: 103 103 44
Width: 1222
Flags: W
HStem: -358 213<366.476 752.81> 453 175<461.692 646.266> 993 174<462.383 649.348> 1008 207<961.595 1128.48>
VStem: 72 262<-149 -4.33887> 102 296<245.5 406> 135 288<664.781 954.301> 686 305<679.057 957.25> 801 280<-104.441 49.2144>
LayerCount: 2
Fore
SplineSet
72 -123 m 0,0,1
 72 -94 72 -94 80.5 -69 c 128,-1,2
 89 -44 89 -44 103.5 -22.5 c 128,-1,3
 118 -1 118 -1 136 16.5 c 128,-1,4
 154 34 154 34 173 48 c 0,5,6
 217 81 217 81 274 103 c 1,7,8
 226 116 226 116 188 137 c 0,9,10
 172 146 172 146 156.5 158 c 128,-1,11
 141 170 141 170 129 184.5 c 128,-1,12
 117 199 117 199 109.5 217 c 128,-1,13
 102 235 102 235 102 256 c 0,14,15
 102 284 102 284 111.5 310.5 c 128,-1,16
 121 337 121 337 136 360 c 128,-1,17
 151 383 151 383 170.5 403.5 c 128,-1,18
 190 424 190 424 210 441 c 0,19,20
 258 481 258 481 319 511 c 1,21,22
 267 542 267 542 227 586 c 0,23,24
 210 605 210 605 193.5 628.5 c 128,-1,25
 177 652 177 652 164 680.5 c 128,-1,26
 151 709 151 709 143 742.5 c 128,-1,27
 135 776 135 776 135 815 c 0,28,29
 135 901 135 901 172.5 967 c 128,-1,30
 210 1033 210 1033 270 1077.5 c 128,-1,31
 330 1122 330 1122 405.5 1144.5 c 128,-1,32
 481 1167 481 1167 558 1167 c 0,33,34
 613 1167 613 1167 658 1159 c 128,-1,35
 703 1151 703 1151 738.5 1138 c 128,-1,36
 774 1125 774 1125 801.5 1110 c 128,-1,37
 829 1095 829 1095 850 1081 c 1,38,39
 865 1095 865 1095 890.5 1117.5 c 128,-1,40
 916 1140 916 1140 949 1162 c 128,-1,41
 982 1184 982 1184 1020.5 1199.5 c 128,-1,42
 1059 1215 1059 1215 1098 1215 c 0,43,44
 1103 1215 1103 1215 1108 1214.5 c 128,-1,45
 1113 1214 1113 1214 1118 1213 c 256,46,47
 1123 1212 1123 1212 1129 1211 c 1,48,-1
 1129 969 l 1,49,50
 1102 979 1102 979 1078 988 c 0,51,52
 1058 996 1058 996 1036.5 1002 c 128,-1,53
 1015 1008 1015 1008 1003 1008 c 0,54,55
 992 1008 992 1008 982.5 1005 c 128,-1,56
 973 1002 973 1002 965 999 c 0,57,58
 955 995 955 995 947 991 c 1,59,60
 959 961 959 961 969 931 c 0,61,62
 977 905 977 905 984 875.5 c 128,-1,63
 991 846 991 846 991 820 c 0,64,65
 991 757 991 757 965.5 692 c 128,-1,66
 940 627 940 627 890 573.5 c 128,-1,67
 840 520 840 520 765.5 486.5 c 128,-1,68
 691 453 691 453 593 453 c 0,69,70
 554 453 554 453 524 455 c 128,-1,71
 494 457 494 457 473 457 c 0,72,73
 431 457 431 457 414.5 442.5 c 128,-1,74
 398 428 398 428 398 384 c 0,75,76
 398 355 398 355 419 335.5 c 128,-1,77
 440 316 440 316 470 312 c 1,78,-1
 742 291 l 2,79,80
 820 285 820 285 882.5 261.5 c 128,-1,81
 945 238 945 238 989.5 198 c 128,-1,82
 1034 158 1034 158 1057.5 103.5 c 128,-1,83
 1081 49 1081 49 1081 -20 c 0,84,85
 1081 -85 1081 -85 1057 -136 c 128,-1,86
 1033 -187 1033 -187 992.5 -224.5 c 128,-1,87
 952 -262 952 -262 898.5 -287.5 c 128,-1,88
 845 -313 845 -313 786.5 -328.5 c 128,-1,89
 728 -344 728 -344 668 -351 c 128,-1,90
 608 -358 608 -358 554 -358 c 0,91,92
 437 -358 437 -358 347 -340.5 c 128,-1,93
 257 -323 257 -323 196 -292 c 128,-1,94
 135 -261 135 -261 103.5 -218 c 128,-1,95
 72 -175 72 -175 72 -123 c 0,0,1
334 -36 m 256,96,97
 334 -61 334 -61 347.5 -81 c 128,-1,98
 361 -101 361 -101 391.5 -115.5 c 128,-1,99
 422 -130 422 -130 470.5 -137.5 c 128,-1,100
 519 -145 519 -145 589 -145 c 0,101,102
 692 -145 692 -145 746.5 -111 c 128,-1,103
 801 -77 801 -77 801 -17 c 0,104,105
 801 16 801 16 777 35.5 c 128,-1,106
 753 55 753 55 719.5 64.5 c 128,-1,107
 686 74 686 74 650.5 77 c 128,-1,108
 615 80 615 80 593 80 c 2,109,-1
 425 80 l 1,110,111
 409 75 409 75 392.5 66 c 128,-1,112
 376 57 376 57 363 42.5 c 128,-1,113
 350 28 350 28 342 8.5 c 128,-1,114
 334 -11 334 -11 334 -36 c 256,96,97
423 826 m 0,115,116
 423 793 423 793 428 758 c 128,-1,117
 433 723 433 723 447.5 694 c 128,-1,118
 462 665 462 665 488.5 646.5 c 128,-1,119
 515 628 515 628 558 628 c 0,120,121
 617 628 617 628 651.5 677.5 c 128,-1,122
 686 727 686 727 686 820 c 0,123,124
 686 865 686 865 675.5 897.5 c 128,-1,125
 665 930 665 930 647 951 c 128,-1,126
 629 972 629 972 605.5 982.5 c 128,-1,127
 582 993 582 993 556 993 c 0,128,129
 521 993 521 993 496 977.5 c 128,-1,130
 471 962 471 962 455 938 c 128,-1,131
 439 914 439 914 431 884 c 128,-1,132
 423 854 423 854 423 826 c 0,115,116
EndSplineSet
EndChar

StartChar: h
Encoding: 104 104 45
Width: 1158
Flags: W
HStem: -12 21G<158 398 734 974> 922 245<607.958 803> 1516 20G<286 446>
VStem: 158 288<12 868.912 1005 1500> 734 288<12 885.896>
LayerCount: 2
Fore
SplineSet
734 773 m 2,0,1
 734 852 734 852 705.5 887 c 128,-1,2
 677 922 677 922 634 922 c 0,3,4
 594 922 594 922 550 900.5 c 128,-1,5
 506 879 506 879 446 843 c 1,6,-1
 446 12 l 1,7,-1
 158 -12 l 1,8,-1
 158 1500 l 1,9,-1
 446 1536 l 1,10,-1
 446 1005 l 1,11,12
 536 1089 536 1089 619 1128 c 128,-1,13
 702 1167 702 1167 776 1167 c 0,14,15
 830 1167 830 1167 875 1146.5 c 128,-1,16
 920 1126 920 1126 952.5 1088.5 c 128,-1,17
 985 1051 985 1051 1003.5 997 c 128,-1,18
 1022 943 1022 943 1022 876 c 2,19,-1
 1022 12 l 1,20,-1
 734 -12 l 1,21,-1
 734 773 l 2,0,1
EndSplineSet
EndChar

StartChar: i
Encoding: 105 105 46
Width: 596
Flags: W
HStem: -12 21G<158 398> 1132 20G<206 446> 1300 298<158 446>
VStem: 158 288<12 1128 1312 1598>
LayerCount: 2
Fore
SplineSet
158 1128 m 1,0,-1
 446 1152 l 1,1,-1
 446 12 l 1,2,-1
 158 -12 l 1,3,-1
 158 1128 l 1,0,-1
446 1600 m 1,4,-1
 446 1312 l 1,5,-1
 158 1300 l 1,6,-1
 158 1598 l 1,7,-1
 446 1600 l 1,4,-1
EndSplineSet
EndChar

StartChar: j
Encoding: 106 106 47
Width: 599
Flags: W
HStem: -269 173<7 150.243> 1132 20G<214 454> 1300 298<166 454>
VStem: 166 288<-78.4126 1128 1312 1598>
LayerCount: 2
Fore
SplineSet
7 -96 m 1,0,1
 63 -96 63 -96 95 -88 c 128,-1,2
 127 -80 127 -80 142.5 -62.5 c 128,-1,3
 158 -45 158 -45 162 -16.5 c 128,-1,4
 166 12 166 12 166 54 c 2,5,-1
 166 1128 l 1,6,-1
 454 1152 l 1,7,-1
 454 54 l 2,8,9
 454 -27 454 -27 450 -91 c 128,-1,10
 446 -155 446 -155 422 -198.5 c 128,-1,11
 398 -242 398 -242 346.5 -265 c 128,-1,12
 295 -288 295 -288 199 -288 c 0,13,14
 159 -288 159 -288 111.5 -283.5 c 128,-1,15
 64 -279 64 -279 7 -269 c 1,16,-1
 7 -96 l 1,0,1
454 1600 m 1,17,-1
 454 1312 l 1,18,-1
 166 1300 l 1,19,-1
 166 1598 l 1,20,-1
 454 1600 l 1,17,-1
EndSplineSet
EndChar

StartChar: k
Encoding: 107 107 48
Width: 1048
Flags: W
HStem: 0 21G<156 444 762.867 829.391> 1132 20G<721.456 1048> 1516 20G<284 444>
VStem: 156 288<0 421 775 1500> 737 311<841 1152>
DStem2: 444 775 724 738 0.616308 0.787505<143.429 477.468>
LayerCount: 2
Fore
SplineSet
444 421 m 1,0,-1
 444 0 l 1,1,-1
 156 0 l 1,2,-1
 156 1500 l 1,3,-1
 444 1536 l 1,4,-1
 444 775 l 1,5,-1
 737 1152 l 1,6,-1
 1048 1152 l 1,7,-1
 724 738 l 1,8,-1
 1025 60 l 1,9,-1
 771 -27 l 1,10,-1
 538 546 l 1,11,-1
 444 421 l 1,0,-1
EndSplineSet
EndChar

StartChar: l
Encoding: 108 108 49
Width: 596
Flags: W
HStem: -12 21G<157 397> 1516 20G<285 445>
VStem: 157 288<12 1500>
LayerCount: 2
Fore
SplineSet
157 1500 m 1,0,-1
 445 1536 l 1,1,-1
 445 12 l 1,2,-1
 157 -12 l 1,3,-1
 157 1500 l 1,0,-1
EndSplineSet
EndChar

StartChar: m
Encoding: 109 109 50
Width: 1556
Flags: W
HStem: -12 21G<157 397 637 877 1117 1357> 921 246<581.71 771.5 1053.97 1236.5> 1132 20G<205 445>
VStem: 157 288<12 880.468 1005 1128> 637 288<12 884.684> 1117 288<12 889.54>
CounterMasks: 1 1c
LayerCount: 2
Fore
SplineSet
1117 802 m 2,0,1
 1117 860 1117 860 1100.5 890.5 c 128,-1,2
 1084 921 1084 921 1058 921 c 0,3,4
 1029 921 1029 921 1005 908 c 128,-1,5
 981 895 981 895 963 880 c 0,6,7
 942 862 942 862 925 839 c 1,8,-1
 925 12 l 1,9,-1
 637 -12 l 1,10,-1
 637 804 l 2,11,12
 637 867 637 867 622.5 894 c 128,-1,13
 608 921 608 921 588 921 c 0,14,15
 560 921 560 921 534.5 908 c 128,-1,16
 509 895 509 895 489 880 c 0,17,18
 465 862 465 862 445 839 c 1,19,-1
 445 12 l 1,20,-1
 157 -12 l 1,21,-1
 157 1128 l 1,22,-1
 445 1152 l 1,23,-1
 445 1005 l 1,24,25
 506 1077 506 1077 581.5 1122 c 128,-1,26
 657 1167 657 1167 742 1167 c 0,27,28
 801 1167 801 1167 845.5 1126 c 128,-1,29
 890 1085 890 1085 912 988 c 1,30,31
 975 1071 975 1071 1045.5 1119 c 128,-1,32
 1116 1167 1116 1167 1208 1167 c 0,33,34
 1265 1167 1265 1167 1302.5 1143.5 c 128,-1,35
 1340 1120 1340 1120 1363 1075 c 128,-1,36
 1386 1030 1386 1030 1395.5 965 c 128,-1,37
 1405 900 1405 900 1405 817 c 2,38,-1
 1405 12 l 1,39,-1
 1117 -12 l 1,40,-1
 1117 802 l 2,0,1
EndSplineSet
EndChar

StartChar: n
Encoding: 110 110 51
Width: 1166
Flags: W
HStem: -12 21G<156 396 732 972> 922 245<612.38 801> 1132 20G<204 444>
VStem: 156 288<12 868.161 1005 1128> 732 288<12 886.925>
LayerCount: 2
Fore
SplineSet
732 769 m 2,0,1
 732 854 732 854 703 888 c 128,-1,2
 674 922 674 922 627 922 c 0,3,4
 589 922 589 922 541.5 897 c 128,-1,5
 494 872 494 872 444 842 c 1,6,-1
 444 12 l 1,7,-1
 156 -12 l 1,8,-1
 156 1128 l 1,9,-1
 444 1152 l 1,10,-1
 444 1005 l 1,11,12
 530 1080 530 1080 615 1123.5 c 128,-1,13
 700 1167 700 1167 774 1167 c 0,14,15
 828 1167 828 1167 873 1146.5 c 128,-1,16
 918 1126 918 1126 950.5 1088.5 c 128,-1,17
 983 1051 983 1051 1001.5 997 c 128,-1,18
 1020 943 1020 943 1020 876 c 2,19,-1
 1020 12 l 1,20,-1
 732 -12 l 1,21,-1
 732 769 l 2,0,1
EndSplineSet
EndChar

StartChar: o
Encoding: 111 111 52
Width: 1034
Flags: W
HStem: -27 214<431.233 600.314> 964 203<431.654 600.362>
VStem: 86 288<272.054 873.158> 661 289<275.254 870.024>
LayerCount: 2
Fore
SplineSet
518 -27 m 0,0,1
 410 -27 410 -27 329 17.5 c 128,-1,2
 248 62 248 62 194 141.5 c 128,-1,3
 140 221 140 221 113 332 c 128,-1,4
 86 443 86 443 86 577 c 0,5,6
 86 706 86 706 113 814.5 c 128,-1,7
 140 923 140 923 194 1001.5 c 128,-1,8
 248 1080 248 1080 329 1123.5 c 128,-1,9
 410 1167 410 1167 518 1167 c 0,10,11
 623 1167 623 1167 704 1123.5 c 128,-1,12
 785 1080 785 1080 839.5 1001.5 c 128,-1,13
 894 923 894 923 922 814.5 c 128,-1,14
 950 706 950 706 950 577 c 0,15,16
 950 443 950 443 922 332 c 128,-1,17
 894 221 894 221 839.5 141.5 c 128,-1,18
 785 62 785 62 704 17.5 c 128,-1,19
 623 -27 623 -27 518 -27 c 0,0,1
516 187 m 0,20,21
 551 187 551 187 576 206 c 128,-1,22
 601 225 601 225 617 256.5 c 128,-1,23
 633 288 633 288 642 328.5 c 128,-1,24
 651 369 651 369 655 412.5 c 128,-1,25
 659 456 659 456 660 498.5 c 128,-1,26
 661 541 661 541 661 577 c 0,27,28
 661 612 661 612 660 654 c 128,-1,29
 659 696 659 696 655 739 c 128,-1,30
 651 782 651 782 642 822.5 c 128,-1,31
 633 863 633 863 617 894.5 c 128,-1,32
 601 926 601 926 576.5 945 c 128,-1,33
 552 964 552 964 517 964 c 0,34,35
 481 964 481 964 456.5 945 c 128,-1,36
 432 926 432 926 416 894.5 c 128,-1,37
 400 863 400 863 391.5 822.5 c 128,-1,38
 383 782 383 782 379 739 c 128,-1,39
 375 696 375 696 374.5 654 c 128,-1,40
 374 612 374 612 374 577 c 0,41,42
 374 541 374 541 374.5 498.5 c 128,-1,43
 375 456 375 456 379 412.5 c 128,-1,44
 383 369 383 369 391.5 328.5 c 128,-1,45
 400 288 400 288 415.5 256.5 c 128,-1,46
 431 225 431 225 455.5 206 c 128,-1,47
 480 187 480 187 516 187 c 0,20,21
EndSplineSet
EndChar

StartChar: p
Encoding: 112 112 53
Width: 1029
Flags: W
HStem: -358 21G<157 259.857> -27 220<524.948 707> 960 207<545.668 728.5> 1132 20G<205 445>
VStem: 157 288<-302 99 224.604 929.131 1041 1128> 705 288<250.915 897.75>
LayerCount: 2
Fore
SplineSet
157 1128 m 1,0,-1
 445 1152 l 1,1,-1
 445 1041 l 1,2,3
 469 1065 469 1065 496.5 1087.5 c 128,-1,4
 524 1110 524 1110 554.5 1127.5 c 128,-1,5
 585 1145 585 1145 619 1156 c 128,-1,6
 653 1167 653 1167 689 1167 c 0,7,8
 768 1167 768 1167 821.5 1139.5 c 128,-1,9
 875 1112 875 1112 909 1066 c 128,-1,10
 943 1020 943 1020 960.5 959.5 c 128,-1,11
 978 899 978 899 985 833.5 c 128,-1,12
 992 768 992 768 992.5 701.5 c 128,-1,13
 993 635 993 635 993 576 c 0,14,15
 993 522 993 522 991 456 c 128,-1,16
 989 390 989 390 979.5 323 c 128,-1,17
 970 256 970 256 950 193 c 128,-1,18
 930 130 930 130 893.5 81 c 128,-1,19
 857 32 857 32 802 2.5 c 128,-1,20
 747 -27 747 -27 667 -27 c 0,21,22
 611 -27 611 -27 570 -7.5 c 128,-1,23
 529 12 529 12 501 36 c 0,24,25
 468 63 468 63 445 99 c 1,26,-1
 445 -302 l 1,27,-1
 157 -358 l 1,28,-1
 157 1128 l 1,0,-1
568 960 m 0,29,30
 540 960 540 960 517.5 947.5 c 128,-1,31
 495 935 495 935 479 920 c 0,32,33
 460 902 460 902 445 880 c 1,34,-1
 445 285 l 1,35,36
 457 259 457 259 475 239 c 0,37,38
 490 222 490 222 513.5 207.5 c 128,-1,39
 537 193 537 193 570 193 c 0,40,41
 600 193 600 193 624.5 208 c 128,-1,42
 649 223 649 223 667 265 c 128,-1,43
 685 307 685 307 695 382 c 128,-1,44
 705 457 705 457 705 576 c 0,45,46
 705 684 705 684 696 757.5 c 128,-1,47
 687 831 687 831 670 876 c 128,-1,48
 653 921 653 921 627 940.5 c 128,-1,49
 601 960 601 960 568 960 c 0,29,30
EndSplineSet
EndChar

StartChar: q
Encoding: 113 113 54
Width: 1010
Flags: W
HStem: -358 21G<568 728> -27 220<308.5 488.091> 960 207<286.5 467.439> 1132 20G<607.351 816>
VStem: 40 288<238.798 897.75> 568 288<-322 99 224.604 935.659>
LayerCount: 2
Fore
SplineSet
856 -322 m 1,0,-1
 568 -358 l 1,1,-1
 568 99 l 1,2,3
 545 63 545 63 512 36 c 0,4,5
 484 12 484 12 442.5 -7.5 c 128,-1,6
 401 -27 401 -27 346 -27 c 0,7,8
 271 -27 271 -27 219.5 2.5 c 128,-1,9
 168 32 168 32 134 81 c 128,-1,10
 100 130 100 130 81 193 c 128,-1,11
 62 256 62 256 53 323 c 128,-1,12
 44 390 44 390 42 455.5 c 128,-1,13
 40 521 40 521 40 576 c 0,14,15
 40 635 40 635 40.5 701.5 c 128,-1,16
 41 768 41 768 47.5 833.5 c 128,-1,17
 54 899 54 899 70 959.5 c 128,-1,18
 86 1020 86 1020 117.5 1066 c 128,-1,19
 149 1112 149 1112 199 1139.5 c 128,-1,20
 249 1167 249 1167 324 1167 c 0,21,22
 360 1167 360 1167 394 1156 c 128,-1,23
 428 1145 428 1145 458.5 1127.5 c 128,-1,24
 489 1110 489 1110 516.5 1087.5 c 128,-1,25
 544 1065 544 1065 568 1041 c 1,26,-1
 616 1152 l 1,27,-1
 856 1128 l 1,28,-1
 856 -322 l 1,0,-1
465 960 m 0,29,30
 432 960 432 960 406 940.5 c 128,-1,31
 380 921 380 921 363 876 c 128,-1,32
 346 831 346 831 337 757.5 c 128,-1,33
 328 684 328 684 328 576 c 0,34,35
 328 457 328 457 336.5 382 c 128,-1,36
 345 307 345 307 360.5 265 c 128,-1,37
 376 223 376 223 397 208 c 128,-1,38
 418 193 418 193 443 193 c 0,39,40
 475 193 475 193 499 207.5 c 128,-1,41
 523 222 523 222 538 239 c 0,42,43
 556 259 556 259 568 285 c 1,44,-1
 568 880 l 1,45,46
 556 902 556 902 540 920 c 0,47,48
 526 935 526 935 507 947.5 c 128,-1,49
 488 960 488 960 465 960 c 0,29,30
EndSplineSet
EndChar

StartChar: r
Encoding: 114 114 55
Width: 829
Flags: W
HStem: -12 21G<156 396> 864 303<618.465 827.156> 1132 20G<204 444>
VStem: 156 288<12 810.162 967 1128>
LayerCount: 2
Fore
SplineSet
156 1128 m 1,0,-1
 444 1152 l 1,1,-1
 444 967 l 1,2,3
 469 1000 469 1000 503 1035.5 c 128,-1,4
 537 1071 537 1071 580.5 1100 c 128,-1,5
 624 1129 624 1129 677 1148 c 128,-1,6
 730 1167 730 1167 793 1167 c 0,7,8
 798 1167 798 1167 804 1166.5 c 128,-1,9
 810 1166 810 1166 815 1165 c 0,10,11
 821 1164 821 1164 828 1163 c 1,12,-1
 828 820 l 1,13,14
 781 834 781 834 733 849 c 128,-1,15
 685 864 685 864 636 864 c 0,16,17
 588 864 588 864 541 843 c 128,-1,18
 494 822 494 822 444 768 c 1,19,-1
 444 12 l 1,20,-1
 156 -12 l 1,21,-1
 156 1128 l 1,0,-1
EndSplineSet
EndChar

StartChar: s
Encoding: 115 115 56
Width: 954
Flags: W
HStem: -27 227<349.599 592.622> 954 213<365.872 569.905>
VStem: 83 267<794.658 934.785> 611 276<224.721 368.494>
DStem2: 450 764 283 490 0.926341 -0.376686<-123.302 318.667>
LayerCount: 2
Fore
SplineSet
298 337 m 1,0,1
 307 298 307 298 329 268 c 0,2,3
 347 242 347 242 380 221 c 128,-1,4
 413 200 413 200 466 200 c 0,5,6
 486 200 486 200 511.5 204.5 c 128,-1,7
 537 209 537 209 559 220 c 128,-1,8
 581 231 581 231 596 248.5 c 128,-1,9
 611 266 611 266 611 293 c 0,10,11
 611 330 611 330 585 354 c 128,-1,12
 559 378 559 378 524 392 c 2,13,-1
 283 490 l 2,14,15
 186 529 186 529 134.5 611.5 c 128,-1,16
 83 694 83 694 83 814 c 0,17,18
 83 900 83 900 116 966 c 128,-1,19
 149 1032 149 1032 203 1076.5 c 128,-1,20
 257 1121 257 1121 327 1144 c 128,-1,21
 397 1167 397 1167 472 1167 c 0,22,23
 534 1167 534 1167 594.5 1149 c 128,-1,24
 655 1131 655 1131 707 1095.5 c 128,-1,25
 759 1060 759 1060 797.5 1008 c 128,-1,26
 836 956 836 956 855 889 c 1,27,-1
 619 816 l 1,28,29
 608 854 608 854 589 885 c 0,30,31
 572 911 572 911 544 932.5 c 128,-1,32
 516 954 516 954 474 954 c 0,33,34
 451 954 451 954 429 949 c 128,-1,35
 407 944 407 944 389.5 932.5 c 128,-1,36
 372 921 372 921 361 903.5 c 128,-1,37
 350 886 350 886 350 862 c 0,38,39
 350 843 350 843 360.5 827.5 c 128,-1,40
 371 812 371 812 386.5 800 c 128,-1,41
 402 788 402 788 419 779 c 128,-1,42
 436 770 436 770 450 764 c 2,43,-1
 655 679 l 1,44,45
 703 657 703 657 745.5 628 c 128,-1,46
 788 599 788 599 819.5 559 c 128,-1,47
 851 519 851 519 869 465.5 c 128,-1,48
 887 412 887 412 887 342 c 0,49,50
 887 249 887 249 852 180 c 128,-1,51
 817 111 817 111 760 65 c 128,-1,52
 703 19 703 19 631 -4 c 128,-1,53
 559 -27 559 -27 485 -27 c 0,54,55
 397 -27 397 -27 328 -6.5 c 128,-1,56
 259 14 259 14 208 52 c 128,-1,57
 157 90 157 90 124 144 c 128,-1,58
 91 198 91 198 76 265 c 1,59,-1
 298 337 l 1,0,1
EndSplineSet
EndChar

StartChar: t
Encoding: 116 116 57
Width: 736
Flags: W
HStem: -27 219<362.5 679.31> 936 216<24 173 461 684>
VStem: 173 288<216.004 936 1152 1248.86> 210 250<1278.41 1402>
LayerCount: 2
Fore
SplineSet
181 1152 m 1,0,-1
 210 1402 l 1,1,-1
 460 1438 l 1,2,-1
 460 1152 l 1,3,-1
 696 1152 l 1,4,-1
 684 936 l 1,5,-1
 461 936 l 1,6,-1
 461 301 l 2,7,8
 461 267 461 267 475 245.5 c 128,-1,9
 489 224 489 224 510.5 212 c 128,-1,10
 532 200 532 200 558 196 c 128,-1,11
 584 192 584 192 608 192 c 0,12,13
 639 192 639 192 659 195 c 0,14,15
 670 197 670 197 680 199 c 1,16,-1
 680 1 l 1,17,18
 658 -7 658 -7 626 -13 c 0,19,20
 599 -18 599 -18 558 -22.5 c 128,-1,21
 517 -27 517 -27 460 -27 c 0,22,23
 413 -27 413 -27 362.5 -13.5 c 128,-1,24
 312 0 312 0 270 31.5 c 128,-1,25
 228 63 228 63 200.5 115 c 128,-1,26
 173 167 173 167 173 244 c 2,27,-1
 173 936 l 1,28,-1
 12 936 l 1,29,-1
 24 1152 l 1,30,-1
 181 1152 l 1,0,-1
EndSplineSet
EndChar

StartChar: u
Encoding: 117 117 58
Width: 1164
Flags: W
HStem: -27 255<375 559.462> -12 21G<723 963> 1132 20G<195 435 771 1011>
VStem: 147 288<263.075 1128> 723 288<12 135 289.52 1128>
LayerCount: 2
Fore
SplineSet
435 381 m 2,0,1
 435 296 435 296 461 262 c 128,-1,2
 487 228 487 228 530 228 c 0,3,4
 550 228 550 228 572.5 235.5 c 128,-1,5
 595 243 595 243 620 256 c 128,-1,6
 645 269 645 269 671 285 c 128,-1,7
 697 301 697 301 723 318 c 1,8,-1
 723 1128 l 1,9,-1
 1011 1152 l 1,10,-1
 1011 12 l 1,11,-1
 723 -12 l 1,12,-1
 723 135 l 1,13,14
 639 60 639 60 557 16.5 c 128,-1,15
 475 -27 475 -27 403 -27 c 0,16,17
 347 -27 347 -27 300 -6.5 c 128,-1,18
 253 14 253 14 219 51.5 c 128,-1,19
 185 89 185 89 166 143 c 128,-1,20
 147 197 147 197 147 264 c 2,21,-1
 147 1128 l 1,22,-1
 435 1152 l 1,23,-1
 435 381 l 2,0,1
EndSplineSet
EndChar

StartChar: v
Encoding: 118 118 59
Width: 974
Flags: W
HStem: 0 21G<345.326 621.789> 1132 20G<88.1667 377.935>
LayerCount: 2
Fore
SplineSet
31 1128 m 1,0,-1
 374 1152 l 1,1,-1
 519 415 l 1,2,-1
 685 1116 l 1,3,-1
 946 1140 l 1,4,-1
 616 0 l 1,5,-1
 351 0 l 1,6,-1
 31 1128 l 1,0,-1
EndSplineSet
EndChar

StartChar: w
Encoding: 119 119 60
Width: 1408
Flags: W
HStem: 0 21G<310.805 554.337 839.493 1078.63> 1132 20G<104.636 374.037 655 858.851>
DStem2: 470 500 712 747 0.211941 0.977283<0 292.678> 979 508 1074 0 0.225608 0.974218<0 632.216>
LayerCount: 2
Fore
SplineSet
712 747 m 1,0,-1
 550 0 l 1,1,-1
 315 0 l 1,2,-1
 78 1130 l 1,3,-1
 371 1152 l 1,4,-1
 470 500 l 1,5,-1
 615 1128 l 1,6,-1
 855 1152 l 1,7,-1
 979 508 l 1,8,-1
 1104 1128 l 1,9,-1
 1338 1140 l 1,10,-1
 1074 0 l 1,11,-1
 843 0 l 1,12,-1
 712 747 l 1,0,-1
EndSplineSet
EndChar

StartChar: x
Encoding: 120 120 61
Width: 1116
Flags: W
HStem: 0 21G<95 379.383 705.313 979.167> 1132 20G<106 429.858 694.645 977>
DStem2: 95 0 369 0 0.467958 0.883751<128.221 510.173 985.996 1303.54> 420 1152 106 1152 0.463335 -0.886183<0 314.307 778.384 1168.2>
LayerCount: 2
Fore
SplineSet
545 339 m 1,0,-1
 369 0 l 1,1,-1
 95 0 l 1,2,-1
 406 579 l 1,3,-1
 106 1152 l 1,4,-1
 420 1152 l 1,5,-1
 559 870 l 1,6,-1
 705 1152 l 1,7,-1
 977 1152 l 1,8,-1
 700 634 l 1,9,-1
 1032 12 l 1,10,-1
 715 -12 l 1,11,-1
 545 339 l 1,0,-1
EndSplineSet
EndChar

StartChar: y
Encoding: 121 121 62
Width: 1017
Flags: W
HStem: -365 250<150 410.684> 1132 20G<122 438.494>
VStem: 749 260<886 1146>
LayerCount: 2
Fore
SplineSet
150 -113 m 1,0,1
 176 -114 176 -114 200 -115 c 0,2,3
 220 -116 220 -116 240 -116.5 c 128,-1,4
 260 -117 260 -117 269 -117 c 0,5,6
 319 -117 319 -117 353.5 -105 c 128,-1,7
 388 -93 388 -93 410 -71 c 128,-1,8
 432 -49 432 -49 441.5 -18 c 128,-1,9
 451 13 451 13 451 52 c 2,10,-1
 451 108 l 1,11,-1
 122 1138 l 1,12,-1
 434 1152 l 1,13,-1
 596 431 l 1,14,-1
 749 1146 l 1,15,-1
 1009 1148 l 1,16,-1
 714 21 l 1,17,18
 678 -105 678 -105 625 -181.5 c 128,-1,19
 572 -258 572 -258 512 -298.5 c 128,-1,20
 452 -339 452 -339 389.5 -352 c 128,-1,21
 327 -365 327 -365 271 -365 c 0,22,23
 250 -365 250 -365 228 -363 c 128,-1,24
 206 -361 206 -361 189 -359 c 0,25,26
 169 -356 169 -356 150 -353 c 1,27,-1
 150 -113 l 1,0,1
EndSplineSet
EndChar

StartChar: z
Encoding: 122 122 63
Width: 1043
Flags: W
HStem: 0 234<486 892> 925 227<189 530>
DStem2: 135 181 486 234 0.460456 0.887683<208.667 842.316>
LayerCount: 2
Fore
SplineSet
916 234 m 1,0,-1
 892 0 l 1,1,-1
 135 0 l 1,2,-1
 135 181 l 1,3,-1
 530 925 l 1,4,-1
 165 925 l 1,5,-1
 189 1152 l 1,6,-1
 874 1152 l 1,7,-1
 874 982 l 1,8,-1
 486 234 l 1,9,-1
 916 234 l 1,0,-1
EndSplineSet
EndChar

StartChar: bar
Encoding: 124 124 64
Width: 620
Flags: W
VStem: 162 300<-96 1632>
LayerCount: 2
Fore
SplineSet
162 1632 m 1,0,-1
 462 1632 l 1,1,-1
 462 -96 l 1,2,-1
 162 -96 l 1,3,-1
 162 1632 l 1,0,-1
EndSplineSet
EndChar

StartChar: D
Encoding: 68 68 65
Width: 1150
Flags: W
HStem: 0 240<457 642.16> 1296 240<457 638.422>
VStem: 158 299<240 1296> 775 300<420.842 1121.13>
LayerCount: 2
Fore
SplineSet
158 1536 m 1,0,-1
 472 1536 l 2,1,2
 775 1536 775 1536 925 1344.5 c 128,-1,3
 1075 1153 1075 1153 1075 762 c 0,4,5
 1075 665 1075 665 1062 570.5 c 128,-1,6
 1049 476 1049 476 1021.5 391.5 c 128,-1,7
 994 307 994 307 951 235 c 128,-1,8
 908 163 908 163 847 111 c 128,-1,9
 786 59 786 59 706 29.5 c 128,-1,10
 626 0 626 0 525 0 c 2,11,-1
 158 0 l 1,12,-1
 158 1536 l 1,0,-1
457 1296 m 1,13,-1
 457 240 l 1,14,-1
 500 240 l 2,15,16
 557 240 557 240 600 259.5 c 128,-1,17
 643 279 643 279 673.5 313 c 128,-1,18
 704 347 704 347 723.5 392.5 c 128,-1,19
 743 438 743 438 754.5 489.5 c 128,-1,20
 766 541 766 541 770.5 596 c 128,-1,21
 775 651 775 651 775 705 c 0,22,23
 775 754 775 754 775 817 c 128,-1,24
 775 880 775 880 769 945.5 c 128,-1,25
 763 1011 763 1011 747 1074 c 128,-1,26
 731 1137 731 1137 700 1186.5 c 128,-1,27
 669 1236 669 1236 618.5 1266 c 128,-1,28
 568 1296 568 1296 492 1296 c 2,29,-1
 457 1296 l 1,13,-1
EndSplineSet
EndChar

StartChar: parenright
Encoding: 41 41 66
Width: 715
Flags: W
HStem: -76 189<126 227.812> 1380 183<126 218.051>
VStem: 403 288<417.894 1074.41>
LayerCount: 2
Fore
SplineSet
126 113 m 1,0,1
 195 119 195 119 247 175 c 128,-1,2
 299 231 299 231 333.5 319 c 128,-1,3
 368 407 368 407 385.5 518 c 128,-1,4
 403 629 403 629 403 745 c 0,5,6
 403 857 403 857 385.5 965.5 c 128,-1,7
 368 1074 368 1074 333.5 1161.5 c 128,-1,8
 299 1249 299 1249 247 1308 c 128,-1,9
 195 1367 195 1367 126 1380 c 1,10,-1
 126 1563 l 1,11,12
 219 1560 219 1560 297.5 1526 c 128,-1,13
 376 1492 376 1492 438.5 1435 c 128,-1,14
 501 1378 501 1378 548.5 1301 c 128,-1,15
 596 1224 596 1224 627.5 1134 c 128,-1,16
 659 1044 659 1044 675 945 c 128,-1,17
 691 846 691 846 691 745 c 0,18,19
 691 646 691 646 675.5 549 c 128,-1,20
 660 452 660 452 629 363.5 c 128,-1,21
 598 275 598 275 551.5 198 c 128,-1,22
 505 121 505 121 442 63 c 128,-1,23
 379 5 379 5 300 -31.5 c 128,-1,24
 221 -68 221 -68 126 -76 c 1,25,-1
 126 113 l 1,0,1
EndSplineSet
EndChar

StartChar: parenleft
Encoding: 40 40 67
Width: 712
Flags: W
HStem: -76 189<486.537 589> 1380 183<496.949 589>
VStem: 24 288<417.894 1074.41>
LayerCount: 2
Fore
SplineSet
589 -76 m 1,0,1
 493 -68 493 -68 414.5 -31.5 c 128,-1,2
 336 5 336 5 273 63 c 128,-1,3
 210 121 210 121 163.5 198 c 128,-1,4
 117 275 117 275 86 363.5 c 128,-1,5
 55 452 55 452 39.5 549 c 128,-1,6
 24 646 24 646 24 745 c 0,7,8
 24 846 24 846 40 945 c 128,-1,9
 56 1044 56 1044 87.5 1134 c 128,-1,10
 119 1224 119 1224 166.5 1301 c 128,-1,11
 214 1378 214 1378 276.5 1435 c 128,-1,12
 339 1492 339 1492 417.5 1526 c 128,-1,13
 496 1560 496 1560 589 1563 c 1,14,-1
 589 1380 l 1,15,16
 520 1367 520 1367 468 1308 c 128,-1,17
 416 1249 416 1249 381.5 1161.5 c 128,-1,18
 347 1074 347 1074 329.5 965.5 c 128,-1,19
 312 857 312 857 312 745 c 0,20,21
 312 629 312 629 329.5 518 c 128,-1,22
 347 407 347 407 381.5 319 c 128,-1,23
 416 231 416 231 468 175 c 128,-1,24
 520 119 520 119 589 113 c 1,25,-1
 589 -76 l 1,0,1
EndSplineSet
EndChar

StartChar: A
Encoding: 65 65 68
Width: 1166
Flags: W
HStem: 0 21G<41 312.073 793.535 1124> 329 246<429 686> 1516 20G<365 796.357>
VStem: 41 267<0 267>
DStem2: 41 0 308 0 0.208737 0.977972<55.7328 391.471 643.324 1061.92> 792 1536 545 1310 0.212856 -0.977084<168.246 916.415 1168.27 1440.58> 1124 12 686 575 0.212856 -0.977084<-1391.5 -643.329 -391.472 -391.472>
LayerCount: 2
Fore
SplineSet
375 329 m 1,0,-1
 308 0 l 1,1,-1
 41 0 l 1,2,-1
 365 1518 l 1,3,-1
 792 1536 l 1,4,-1
 1124 12 l 1,5,-1
 797 0 l 1,6,-1
 740 329 l 1,7,-1
 375 329 l 1,0,-1
686 575 m 1,8,-1
 545 1310 l 1,9,-1
 429 575 l 1,10,-1
 686 575 l 1,8,-1
EndSplineSet
EndChar

StartChar: B
Encoding: 66 66 69
Width: 1158
Flags: W
HStem: 0 240<458 689.244> 693 218<458 703.762> 1296 240<448 694.297>
VStem: 158 300<240 693 911 1296> 755 279<962.452 1236.99> 793 288<338.496 624.329>
LayerCount: 2
Fore
SplineSet
158 1536 m 1,0,-1
 502 1536 l 2,1,2
 650 1536 650 1536 751.5 1505 c 128,-1,3
 853 1474 853 1474 916 1420 c 128,-1,4
 979 1366 979 1366 1006.5 1294 c 128,-1,5
 1034 1222 1034 1222 1034 1140 c 0,6,7
 1034 1084 1034 1084 1022.5 1034 c 128,-1,8
 1011 984 1011 984 989.5 942.5 c 128,-1,9
 968 901 968 901 937 869 c 128,-1,10
 906 837 906 837 867 818 c 1,11,12
 908 797 908 797 946.5 768 c 128,-1,13
 985 739 985 739 1015 694.5 c 128,-1,14
 1045 650 1045 650 1063 586 c 128,-1,15
 1081 522 1081 522 1081 431 c 0,16,17
 1081 341 1081 341 1053.5 274 c 128,-1,18
 1026 207 1026 207 977.5 159 c 128,-1,19
 929 111 929 111 863.5 80.5 c 128,-1,20
 798 50 798 50 723 32 c 128,-1,21
 648 14 648 14 566.5 7 c 128,-1,22
 485 0 485 0 404 0 c 2,23,-1
 158 0 l 1,24,-1
 158 1536 l 1,0,-1
513 240 m 2,25,26
 595 240 595 240 649 263.5 c 128,-1,27
 703 287 703 287 735 322 c 128,-1,28
 767 357 767 357 780 397 c 128,-1,29
 793 437 793 437 793 471 c 0,30,31
 793 545 793 545 771 589 c 128,-1,32
 749 633 749 633 712 656 c 128,-1,33
 675 679 675 679 626 686 c 128,-1,34
 577 693 577 693 524 693 c 2,35,-1
 458 693 l 1,36,-1
 458 240 l 1,37,-1
 513 240 l 2,25,26
520 911 m 2,38,39
 572 911 572 911 615.5 917.5 c 128,-1,40
 659 924 659 924 690 945 c 128,-1,41
 721 966 721 966 738 1005.5 c 128,-1,42
 755 1045 755 1045 755 1111 c 0,43,44
 755 1168 755 1168 735 1204.5 c 128,-1,45
 715 1241 715 1241 681 1261 c 128,-1,46
 647 1281 647 1281 602 1288.5 c 128,-1,47
 557 1296 557 1296 507 1296 c 2,48,-1
 448 1296 l 1,49,-1
 448 911 l 1,50,-1
 520 911 l 2,38,39
EndSplineSet
EndChar

StartChar: C
Encoding: 67 67 70
Width: 1064
Flags: W
HStem: -32 257<481.915 668.884> 1328 240<470.615 636.306>
VStem: 82 300<388.562 1147.15> 705 291<1014 1245.44> 743 255<321.788 523>
LayerCount: 2
Fore
SplineSet
998 523 m 1,0,1
 998 416 998 416 971.5 315.5 c 128,-1,2
 945 215 945 215 891 138 c 128,-1,3
 837 61 837 61 755 14.5 c 128,-1,4
 673 -32 673 -32 562 -32 c 0,5,6
 466 -32 466 -32 392.5 2.5 c 128,-1,7
 319 37 319 37 266 97.5 c 128,-1,8
 213 158 213 158 177.5 238.5 c 128,-1,9
 142 319 142 319 121 411.5 c 128,-1,10
 100 504 100 504 91 603.5 c 128,-1,11
 82 703 82 703 82 800 c 0,12,13
 82 886 82 886 93 976.5 c 128,-1,14
 104 1067 104 1067 128 1152.5 c 128,-1,15
 152 1238 152 1238 190.5 1313.5 c 128,-1,16
 229 1389 229 1389 283 1445.5 c 128,-1,17
 337 1502 337 1502 408 1535 c 128,-1,18
 479 1568 479 1568 569 1568 c 0,19,20
 670 1568 670 1568 749.5 1519.5 c 128,-1,21
 829 1471 829 1471 883.5 1392.5 c 128,-1,22
 938 1314 938 1314 967 1215 c 128,-1,23
 996 1116 996 1116 996 1014 c 1,24,-1
 706 999 l 1,25,26
 706 1007 706 1007 705 1034.5 c 128,-1,27
 704 1062 704 1062 699 1098.5 c 128,-1,28
 694 1135 694 1135 684.5 1175.5 c 128,-1,29
 675 1216 675 1216 658 1250 c 128,-1,30
 641 1284 641 1284 615 1306 c 128,-1,31
 589 1328 589 1328 552 1328 c 0,32,33
 516 1328 516 1328 489.5 1304.5 c 128,-1,34
 463 1281 463 1281 444 1241.5 c 128,-1,35
 425 1202 425 1202 413 1149 c 128,-1,36
 401 1096 401 1096 394 1037.5 c 128,-1,37
 387 979 387 979 384.5 918 c 128,-1,38
 382 857 382 857 382 800 c 0,39,40
 382 728 382 728 384.5 657 c 128,-1,41
 387 586 387 586 395 522 c 128,-1,42
 403 458 403 458 416.5 403.5 c 128,-1,43
 430 349 430 349 452.5 309.5 c 128,-1,44
 475 270 475 270 506.5 247.5 c 128,-1,45
 538 225 538 225 581 225 c 0,46,47
 628 225 628 225 657.5 256.5 c 128,-1,48
 687 288 687 288 705 336 c 128,-1,49
 723 384 723 384 731 440.5 c 128,-1,50
 739 497 739 497 743 547 c 1,51,-1
 998 523 l 1,0,1
EndSplineSet
EndChar

StartChar: exclam
Encoding: 33 33 71
Width: 588
Flags: W
HStem: -12 312<155 443> 1516 20G<155 443>
VStem: 155 288<0 300 1217.68 1536> 204 192<448 766.318>
LayerCount: 2
Fore
SplineSet
155 1536 m 1,0,-1
 443 1536 l 1,1,-1
 396 448 l 1,2,-1
 204 448 l 1,3,-1
 155 1536 l 1,0,-1
155 -12 m 1,4,-1
 155 300 l 1,5,-1
 443 300 l 1,6,-1
 443 0 l 1,7,-1
 155 -12 l 1,4,-1
EndSplineSet
EndChar

StartChar: fi
Encoding: 64257 64257 72
Width: 1345
Flags: W
HStem: -12 21G<199 439 897 1137> 915 237<81 199 487 897> 1288 312<897 1185> 1344 202<512.818 679.435> 1344 172<513.547 680>
VStem: 199 288<12 915 1152 1318.76> 897 288<12 915 1300 1600>
LayerCount: 2
Fore
SplineSet
897 915 m 1,0,-1
 487 915 l 1,1,-1
 487 12 l 1,2,-1
 199 -12 l 1,3,-1
 199 917 l 1,4,-1
 57 917 l 1,5,-1
 81 1152 l 1,6,-1
 199 1152 l 1,7,-1
 199 1174 l 2,8,9
 199 1244 199 1244 204.5 1310.5 c 128,-1,10
 210 1377 210 1377 237.5 1429.5 c 128,-1,11
 265 1482 265 1482 323 1514 c 128,-1,12
 381 1546 381 1546 485 1546 c 0,13,14
 538 1546 538 1546 575 1541 c 128,-1,15
 612 1536 612 1536 635 1531 c 0,16,17
 662 1524 662 1524 680 1516 c 1,18,-1
 680 1344 l 1,19,-1
 617 1344 l 2,20,21
 572 1344 572 1344 546 1329 c 128,-1,22
 520 1314 520 1314 507 1290 c 128,-1,23
 494 1266 494 1266 490.5 1235 c 128,-1,24
 487 1204 487 1204 487 1173 c 2,25,-1
 487 1152 l 1,26,-1
 1185 1152 l 1,27,-1
 1185 12 l 1,28,-1
 897 -12 l 1,29,-1
 897 915 l 1,0,-1
1185 1600 m 1,30,-1
 1185 1300 l 1,31,-1
 897 1288 l 1,32,-1
 897 1600 l 1,33,-1
 1185 1600 l 1,30,-1
EndSplineSet
EndChar

StartChar: fl
Encoding: 64258 64258 73
Width: 1350
Flags: W
HStem: -12 21G<204 444 902 1142> 915 237<86 204 492 659> 1344 192<510.066 902>
VStem: 204 288<12 915 1152 1332.52> 902 288<12 1344>
LayerCount: 2
Fore
SplineSet
902 1344 m 1,0,-1
 582 1344 l 2,1,2
 550 1344 550 1344 532 1329 c 128,-1,3
 514 1314 514 1314 505 1290 c 128,-1,4
 496 1266 496 1266 494 1235 c 128,-1,5
 492 1204 492 1204 492 1173 c 2,6,-1
 492 1152 l 1,7,-1
 683 1152 l 1,8,-1
 659 915 l 1,9,-1
 492 915 l 1,10,-1
 492 12 l 1,11,-1
 204 -12 l 1,12,-1
 204 917 l 1,13,-1
 62 917 l 1,14,-1
 86 1152 l 1,15,-1
 204 1152 l 1,16,-1
 204 1174 l 2,17,18
 204 1220 204 1220 206.5 1265 c 128,-1,19
 209 1310 209 1310 220 1350.5 c 128,-1,20
 231 1391 231 1391 255 1425 c 128,-1,21
 279 1459 279 1459 322 1483.5 c 128,-1,22
 365 1508 365 1508 430 1522 c 128,-1,23
 495 1536 495 1536 590 1536 c 2,24,-1
 1190 1536 l 1,25,-1
 1190 12 l 1,26,-1
 902 -12 l 1,27,-1
 902 1344 l 1,0,-1
EndSplineSet
EndChar

StartChar: fraction
Encoding: 8260 8260 74
Width: 544
Flags: W
HStem: 0 21G<22 324.617> 1516 20G<220.383 523>
VStem: 22 300<0 300> 223 300<1236 1536>
DStem2: 22 0 322 0 0.129753 0.991546<38.9259 1549.1>
LayerCount: 2
Fore
SplineSet
223 1536 m 1,0,-1
 523 1536 l 1,1,-1
 322 0 l 1,2,-1
 22 0 l 1,3,-1
 223 1536 l 1,0,-1
EndSplineSet
EndChar

StartChar: slash
Encoding: 47 47 75
Width: 544
Flags: W
HStem: 0 21G<22 324.617> 1516 20G<220.383 523>
VStem: 22 300<0 300> 223 300<1236 1536>
DStem2: 22 0 322 0 0.129753 0.991546<38.9259 1549.1>
LayerCount: 2
Fore
SplineSet
223 1536 m 1,0,-1
 523 1536 l 1,1,-1
 322 0 l 1,2,-1
 22 0 l 1,3,-1
 223 1536 l 1,0,-1
EndSplineSet
EndChar

StartChar: plus
Encoding: 43 43 76
Width: 741
Flags: W
HStem: 260 238<12 252 490 730>
VStem: 252 238<20 260 498 738>
LayerCount: 2
Fore
SplineSet
490 260 m 1,0,-1
 490 20 l 1,1,-1
 252 20 l 1,2,-1
 252 260 l 1,3,-1
 12 260 l 1,4,-1
 12 498 l 1,5,-1
 252 498 l 1,6,-1
 252 738 l 1,7,-1
 490 738 l 1,8,-1
 490 498 l 1,9,-1
 730 498 l 1,10,-1
 730 260 l 1,11,-1
 490 260 l 1,0,-1
EndSplineSet
EndChar

StartChar: acute
Encoding: 180 180 78
Width: 613
Flags: W
HStem: 1245 548
VStem: 65 524
LayerCount: 2
Fore
SplineSet
65 1346 m 1,0,-1
 362 1793 l 1,1,-1
 589 1591 l 1,2,-1
 178 1245 l 1,3,-1
 65 1346 l 1,0,-1
EndSplineSet
EndChar

StartChar: macron
Encoding: 175 175 79
Width: 898
Flags: W
HStem: 1248 192<162 738>
VStem: 162 576<1248 1440>
LayerCount: 2
Fore
SplineSet
162 1440 m 1,0,-1
 738 1440 l 1,1,-1
 738 1248 l 1,2,-1
 162 1248 l 1,3,-1
 162 1440 l 1,0,-1
EndSplineSet
EndChar

StartChar: grave
Encoding: 96 96 80
Width: 613
Flags: W
HStem: 1241 548
VStem: 11 524
LayerCount: 2
Fore
SplineSet
421 1241 m 1,0,-1
 11 1587 l 1,1,-1
 238 1789 l 1,2,-1
 535 1342 l 1,3,-1
 421 1241 l 1,0,-1
EndSplineSet
EndChar

StartChar: period
Encoding: 46 46 81
Width: 581
Flags: W
HStem: -12 300<158 330.032> 12 276<273.968 446>
VStem: 158 288<12 288>
LayerCount: 2
Fore
SplineSet
446 288 m 1,0,-1
 446 12 l 1,1,-1
 158 -12 l 1,2,-1
 158 288 l 1,3,-1
 446 288 l 1,0,-1
EndSplineSet
EndChar

StartChar: dieresis
Encoding: 168 168 82
Width: 1091
Flags: W
HStem: 1248 288<162 450 642 930>
VStem: 162 288<1248 1536> 642 288<1248 1536>
LayerCount: 2
Fore
SplineSet
450 1536 m 1,0,-1
 450 1248 l 1,1,-1
 162 1248 l 1,2,-1
 162 1536 l 1,3,-1
 450 1536 l 1,0,-1
930 1536 m 1,4,-1
 930 1248 l 1,5,-1
 642 1248 l 1,6,-1
 642 1536 l 1,7,-1
 930 1536 l 1,4,-1
EndSplineSet
EndChar

StartChar: dotaccent
Encoding: 729 729 84
Width: 608
Flags: W
HStem: 1248 288<162 450>
VStem: 162 288<1248 1536>
LayerCount: 2
Fore
SplineSet
450 1536 m 1,0,-1
 450 1248 l 1,1,-1
 162 1248 l 1,2,-1
 162 1536 l 1,3,-1
 450 1536 l 1,0,-1
EndSplineSet
EndChar

StartChar: periodcentered
Encoding: 183 183 85
Width: 608
Flags: W
HStem: 480 288<162 450>
VStem: 162 288<480 768>
LayerCount: 2
Fore
SplineSet
450 768 m 1,0,-1
 450 480 l 1,1,-1
 162 480 l 1,2,-1
 162 768 l 1,3,-1
 450 768 l 1,0,-1
EndSplineSet
EndChar

StartChar: comma
Encoding: 44 44 86
Width: 476
Flags: W
HStem: -288 192<147 228.908> 0 288<99 243>
VStem: 99 288<0 288> 243 144<-83.2117 0>
LayerCount: 2
Fore
SplineSet
387 288 m 1,0,-1
 387 0 l 2,1,2
 387 -54 387 -54 376.5 -95 c 128,-1,3
 366 -136 366 -136 349.5 -166.5 c 128,-1,4
 333 -197 333 -197 311 -218 c 128,-1,5
 289 -239 289 -239 267 -252 c 0,6,7
 214 -284 214 -284 147 -288 c 1,8,-1
 147 -96 l 1,9,10
 183 -96 183 -96 202.5 -81 c 128,-1,11
 222 -66 222 -66 231 -48 c 0,12,13
 242 -27 242 -27 243 0 c 1,14,-1
 99 0 l 1,15,-1
 99 288 l 1,16,-1
 387 288 l 1,0,-1
EndSplineSet
EndChar

StartChar: semicolon
Encoding: 59 59 87
Width: 503
Flags: W
HStem: -288 192<157 238.908> -12 300<109 253> 576 288<109 397>
VStem: 109 288<-12 288 576 864> 253 144<-83.2117 0>
LayerCount: 2
Fore
SplineSet
397 288 m 1,0,-1
 397 0 l 2,1,2
 397 -54 397 -54 386.5 -95 c 128,-1,3
 376 -136 376 -136 359.5 -166.5 c 128,-1,4
 343 -197 343 -197 321 -218 c 128,-1,5
 299 -239 299 -239 277 -252 c 0,6,7
 224 -284 224 -284 157 -288 c 1,8,-1
 157 -96 l 1,9,10
 193 -96 193 -96 212.5 -81 c 128,-1,11
 232 -66 232 -66 241 -48 c 0,12,13
 252 -27 252 -27 253 0 c 1,14,-1
 109 -12 l 1,15,-1
 109 288 l 1,16,-1
 397 288 l 1,0,-1
397 864 m 1,17,-1
 397 576 l 1,18,-1
 109 576 l 1,19,-1
 109 864 l 1,20,-1
 397 864 l 1,17,-1
EndSplineSet
EndChar

StartChar: colon
Encoding: 58 58 88
Width: 592
Flags: W
HStem: -12 300<158 446> 576 288<158 446>
VStem: 158 288<0 288 576 864>
LayerCount: 2
Fore
SplineSet
446 288 m 1,0,-1
 446 0 l 1,1,-1
 158 -12 l 1,2,-1
 158 288 l 1,3,-1
 446 288 l 1,0,-1
446 864 m 1,4,-1
 446 576 l 1,5,-1
 158 576 l 1,6,-1
 158 864 l 1,7,-1
 446 864 l 1,4,-1
EndSplineSet
EndChar

StartChar: hyphen
Encoding: 45 45 89
Width: 898
Flags: W
HStem: 480 238<162 738>
VStem: 162 576<480 718>
LayerCount: 2
Fore
SplineSet
162 718 m 1,0,-1
 738 718 l 1,1,-1
 738 480 l 1,2,-1
 162 480 l 1,3,-1
 162 718 l 1,0,-1
EndSplineSet
EndChar

StartChar: quotedblbase
Encoding: 8222 8222 90
Width: 935
Flags: W
HStem: -288 192<182 263.908 566 647.908> 0 288<134 278 518 662>
VStem: 134 288<0 288> 278 144<-83.2117 0> 518 288<0 288> 662 144<-83.2117 0>
LayerCount: 2
Fore
SplineSet
806 288 m 1,0,-1
 806 0 l 2,1,2
 806 -54 806 -54 795.5 -95 c 128,-1,3
 785 -136 785 -136 768.5 -166.5 c 128,-1,4
 752 -197 752 -197 730 -218 c 128,-1,5
 708 -239 708 -239 686 -252 c 0,6,7
 633 -284 633 -284 566 -288 c 1,8,-1
 566 -96 l 1,9,10
 602 -96 602 -96 621.5 -81 c 128,-1,11
 641 -66 641 -66 650 -48 c 0,12,13
 661 -27 661 -27 662 0 c 1,14,-1
 518 0 l 1,15,-1
 518 288 l 1,16,-1
 806 288 l 1,0,-1
422 288 m 1,17,-1
 422 0 l 2,18,19
 422 -54 422 -54 411.5 -95 c 128,-1,20
 401 -136 401 -136 384.5 -166.5 c 128,-1,21
 368 -197 368 -197 346 -218 c 128,-1,22
 324 -239 324 -239 302 -252 c 0,23,24
 249 -284 249 -284 182 -288 c 1,25,-1
 182 -96 l 1,26,27
 218 -96 218 -96 237.5 -81 c 128,-1,28
 257 -66 257 -66 266 -48 c 0,29,30
 277 -27 277 -27 278 0 c 1,31,-1
 134 0 l 1,32,-1
 134 288 l 1,33,-1
 422 288 l 1,17,-1
EndSplineSet
EndChar

StartChar: quotedblright
Encoding: 8221 8221 91
Width: 936
Flags: W
HStem: 960 192<183 264.908 567 648.908> 1236 300<135 279 519 663>
VStem: 135 288<1236 1536> 279 144<1164.79 1248> 519 288<1236 1536> 663 144<1164.79 1248>
LayerCount: 2
Fore
SplineSet
807 1536 m 1,0,-1
 807 1248 l 2,1,2
 807 1194 807 1194 796.5 1153 c 128,-1,3
 786 1112 786 1112 769.5 1081.5 c 128,-1,4
 753 1051 753 1051 731 1030 c 128,-1,5
 709 1009 709 1009 687 996 c 0,6,7
 634 964 634 964 567 960 c 1,8,-1
 567 1152 l 1,9,10
 603 1152 603 1152 622.5 1167 c 128,-1,11
 642 1182 642 1182 651 1200 c 0,12,13
 662 1221 662 1221 663 1248 c 1,14,-1
 519 1236 l 1,15,-1
 519 1536 l 1,16,-1
 807 1536 l 1,0,-1
423 1536 m 1,17,-1
 423 1248 l 2,18,19
 423 1194 423 1194 412.5 1153 c 128,-1,20
 402 1112 402 1112 385.5 1081.5 c 128,-1,21
 369 1051 369 1051 347 1030 c 128,-1,22
 325 1009 325 1009 303 996 c 0,23,24
 250 964 250 964 183 960 c 1,25,-1
 183 1152 l 1,26,27
 219 1152 219 1152 238.5 1167 c 128,-1,28
 258 1182 258 1182 267 1200 c 0,29,30
 278 1221 278 1221 279 1248 c 1,31,-1
 135 1236 l 1,32,-1
 135 1536 l 1,33,-1
 423 1536 l 1,17,-1
EndSplineSet
EndChar

StartChar: quotedblleft
Encoding: 8220 8220 92
Width: 935
Flags: W
HStem: 960 288<276 420 660 804> 1344 192<290.092 372 674.092 756>
VStem: 132 288<960 1248> 132 144<1248 1331.21> 516 288<960 1248> 516 144<1248 1331.21>
LayerCount: 2
Fore
SplineSet
132 948 m 1,0,-1
 132 1248 l 2,1,2
 132 1302 132 1302 142.5 1343 c 128,-1,3
 153 1384 153 1384 169.5 1414.5 c 128,-1,4
 186 1445 186 1445 207.5 1465.5 c 128,-1,5
 229 1486 229 1486 252 1500 c 0,6,7
 305 1532 305 1532 372 1536 c 1,8,-1
 372 1344 l 1,9,10
 336 1344 336 1344 316.5 1329 c 128,-1,11
 297 1314 297 1314 288 1296 c 0,12,13
 277 1275 277 1275 276 1248 c 1,14,-1
 420 1248 l 1,15,-1
 420 960 l 1,16,-1
 132 948 l 1,0,-1
516 948 m 1,17,-1
 516 1248 l 2,18,19
 516 1302 516 1302 526.5 1343 c 128,-1,20
 537 1384 537 1384 553.5 1414.5 c 128,-1,21
 570 1445 570 1445 591.5 1465.5 c 128,-1,22
 613 1486 613 1486 636 1500 c 0,23,24
 689 1532 689 1532 756 1536 c 1,25,-1
 756 1344 l 1,26,27
 720 1344 720 1344 700.5 1329 c 128,-1,28
 681 1314 681 1314 672 1296 c 0,29,30
 661 1275 661 1275 660 1248 c 1,31,-1
 804 1248 l 1,32,-1
 804 960 l 1,33,-1
 516 948 l 1,17,-1
EndSplineSet
EndChar

StartChar: quoteleft
Encoding: 8216 8216 93
Width: 540
Flags: W
HStem: 918 330<243 436> 1344 192<265.218 388>
VStem: 99 337<930 1248>
LayerCount: 2
Fore
SplineSet
99 918 m 1,0,-1
 99 1248 l 2,1,2
 99 1302 99 1302 111.5 1343 c 128,-1,3
 124 1384 124 1384 144 1414.5 c 128,-1,4
 164 1445 164 1445 190 1465.5 c 128,-1,5
 216 1486 216 1486 243 1500 c 0,6,7
 306 1532 306 1532 388 1536 c 1,8,-1
 388 1344 l 1,9,10
 333 1344 333 1344 304 1329 c 128,-1,11
 275 1314 275 1314 261 1296 c 0,12,13
 245 1275 245 1275 243 1248 c 1,14,-1
 436 1248 l 1,15,-1
 436 930 l 1,16,-1
 99 918 l 1,0,-1
EndSplineSet
EndChar

StartChar: quoteright
Encoding: 8217 8217 94
Width: 482
Flags: W
HStem: 960 192<151 232.908> 1236 300<103 247>
VStem: 103 288<1236 1536> 247 144<1164.79 1248>
LayerCount: 2
Fore
SplineSet
391 1536 m 1,0,-1
 391 1248 l 2,1,2
 391 1194 391 1194 380.5 1153 c 128,-1,3
 370 1112 370 1112 353.5 1081.5 c 128,-1,4
 337 1051 337 1051 315 1030 c 128,-1,5
 293 1009 293 1009 271 996 c 0,6,7
 218 964 218 964 151 960 c 1,8,-1
 151 1152 l 1,9,10
 187 1152 187 1152 206.5 1167 c 128,-1,11
 226 1182 226 1182 235 1200 c 0,12,13
 246 1221 246 1221 247 1248 c 1,14,-1
 103 1236 l 1,15,-1
 103 1536 l 1,16,-1
 391 1536 l 1,0,-1
EndSplineSet
EndChar

StartChar: minus
Encoding: 8722 8722 95
Width: 898
Flags: W
HStem: 480 238<162 738>
VStem: 162 576<480 718>
LayerCount: 2
Fore
SplineSet
162 718 m 1,0,-1
 738 718 l 1,1,-1
 738 480 l 1,2,-1
 162 480 l 1,3,-1
 162 718 l 1,0,-1
EndSplineSet
EndChar

StartChar: logicalnot
Encoding: 172 172 96
Width: 739
Flags: W
HStem: 480 238<3 435>
VStem: 435 144<288 480>
LayerCount: 2
Fore
SplineSet
3 718 m 1,0,-1
 579 718 l 1,1,-1
 579 288 l 1,2,-1
 435 288 l 1,3,-1
 435 480 l 1,4,-1
 3 480 l 1,5,-1
 3 718 l 1,0,-1
EndSplineSet
EndChar

StartChar: brokenbar
Encoding: 166 166 97
Width: 620
Flags: W
VStem: 162 300<-96 576 960 1632>
LayerCount: 2
Fore
SplineSet
162 576 m 1,0,-1
 462 576 l 1,1,-1
 462 -96 l 1,2,-1
 162 -96 l 1,3,-1
 162 576 l 1,0,-1
162 1632 m 1,4,-1
 462 1632 l 1,5,-1
 462 960 l 1,6,-1
 162 960 l 1,7,-1
 162 1632 l 1,4,-1
EndSplineSet
EndChar

StartChar: circumflex
Encoding: 710 710 98
Width: 739
Flags: W
HStem: 1248 480<252 272>
VStem: 32 672
LayerCount: 2
Fore
SplineSet
32 1248 m 1,0,-1
 272 1728 l 1,1,-1
 474 1728 l 1,2,-1
 704 1248 l 1,3,-1
 454 1248 l 1,4,-1
 358 1538 l 1,5,-1
 242 1248 l 1,6,-1
 32 1248 l 1,0,-1
EndSplineSet
EndChar

StartChar: caron
Encoding: 711 711 100
Width: 768
Flags: W
HStem: 1248 480<242 262>
VStem: 32 672
LayerCount: 2
Fore
SplineSet
242 1728 m 1,0,-1
 358 1438 l 1,1,-1
 454 1728 l 1,2,-1
 704 1728 l 1,3,-1
 474 1248 l 1,4,-1
 272 1248 l 1,5,-1
 32 1728 l 1,6,-1
 242 1728 l 1,0,-1
EndSplineSet
EndChar

StartChar: bracketleft
Encoding: 91 91 101
Width: 725
Flags: W
HStem: -96 191<462 654> 1440 192<462 654>
VStem: 162 492<-96 95 1440 1632> 162 300<95 1440>
LayerCount: 2
Fore
SplineSet
162 1632 m 1,0,-1
 654 1632 l 1,1,-1
 654 1440 l 1,2,-1
 462 1440 l 1,3,-1
 462 95 l 1,4,-1
 654 95 l 1,5,-1
 654 -96 l 1,6,-1
 162 -96 l 1,7,-1
 162 1632 l 1,0,-1
EndSplineSet
EndChar

StartChar: bracketright
Encoding: 93 93 102
Width: 724
Flags: W
HStem: -96 191<72 264> 1440 192<72 264>
VStem: 72 492<-96 95 1440 1632> 264 300<95 1440>
LayerCount: 2
Fore
SplineSet
564 -96 m 1,0,-1
 72 -96 l 1,1,-1
 72 95 l 1,2,-1
 264 95 l 1,3,-1
 264 1440 l 1,4,-1
 72 1440 l 1,5,-1
 72 1632 l 1,6,-1
 564 1632 l 1,7,-1
 564 -96 l 1,0,-1
EndSplineSet
EndChar

StartChar: backslash
Encoding: 92 92 103
Width: 544
Flags: W
HStem: 0 21G<219.383 522> 1516 20G<21 323.617>
VStem: 21 300<1236 1536> 222 300<0 300>
DStem2: 321 1536 21 1536 0.129753 -0.991546<0 1510.17>
LayerCount: 2
Fore
SplineSet
522 0 m 1,0,-1
 222 0 l 1,1,-1
 21 1536 l 1,2,-1
 321 1536 l 1,3,-1
 522 0 l 1,0,-1
EndSplineSet
EndChar

StartChar: hungarumlaut
Encoding: 733 733 104
Width: 1102
Flags: W
HStem: 1150 578
LayerCount: 2
Fore
SplineSet
564 1248 m 1,0,-1
 833 1728 l 1,1,-1
 1067 1534 l 1,2,-1
 683 1150 l 1,3,-1
 564 1248 l 1,0,-1
61 1248 m 1,4,-1
 330 1728 l 1,5,-1
 564 1534 l 1,6,-1
 180 1150 l 1,7,-1
 61 1248 l 1,4,-1
EndSplineSet
EndChar

StartChar: ring
Encoding: 730 730 105
Width: 789
Flags: W
HStem: 1248 159<294.047 493.21> 1631 161<293.898 493.855>
VStem: 82 189<1430.8 1606.54> 394 1<1406.5 1407.5> 518 189<1432.1 1606.54>
CounterMasks: 1 38
LayerCount: 2
Fore
SplineSet
394 1407 m 2,0,1
 417 1407 417 1407 439 1414 c 128,-1,2
 461 1421 461 1421 478.5 1435.5 c 128,-1,3
 496 1450 496 1450 507 1471 c 128,-1,4
 518 1492 518 1492 518 1520 c 0,5,6
 518 1547 518 1547 507 1567.5 c 128,-1,7
 496 1588 496 1588 479 1602 c 128,-1,8
 462 1616 462 1616 439.5 1623.5 c 128,-1,9
 417 1631 417 1631 395 1631 c 0,10,11
 372 1631 372 1631 349.5 1623.5 c 128,-1,12
 327 1616 327 1616 309.5 1602 c 128,-1,13
 292 1588 292 1588 281.5 1567.5 c 128,-1,14
 271 1547 271 1547 271 1520 c 0,15,16
 271 1492 271 1492 281.5 1471 c 128,-1,17
 292 1450 292 1450 309.5 1435.5 c 128,-1,18
 327 1421 327 1421 349.5 1414 c 128,-1,19
 372 1407 372 1407 395 1407 c 2,20,-1
 394 1407 l 2,0,1
395 1248 m 0,21,22
 336 1248 336 1248 280 1265 c 128,-1,23
 224 1282 224 1282 180 1315.5 c 128,-1,24
 136 1349 136 1349 109 1400.5 c 128,-1,25
 82 1452 82 1452 82 1521 c 0,26,27
 82 1589 82 1589 109 1640 c 128,-1,28
 136 1691 136 1691 180 1724.5 c 128,-1,29
 224 1758 224 1758 280 1775 c 128,-1,30
 336 1792 336 1792 395 1792 c 0,31,32
 453 1792 453 1792 509 1775 c 128,-1,33
 565 1758 565 1758 609 1724.5 c 128,-1,34
 653 1691 653 1691 680 1640 c 128,-1,35
 707 1589 707 1589 707 1521 c 0,36,37
 707 1452 707 1452 680 1400.5 c 128,-1,38
 653 1349 653 1349 609 1315.5 c 128,-1,39
 565 1282 565 1282 509 1265 c 128,-1,40
 453 1248 453 1248 395 1248 c 0,21,22
EndSplineSet
EndChar

StartChar: degree
Encoding: 176 176 106
Width: 957
Flags: W
HStem: 387 192<370.313 587.486> 959 192<370.313 587.486>
VStem: 86 248<614.767 923.233> 621 249<611.852 926.148>
LayerCount: 2
Fore
SplineSet
86 769 m 256,0,1
 86 851 86 851 111 921 c 128,-1,2
 136 991 136 991 186 1042 c 128,-1,3
 236 1093 236 1093 311 1122 c 128,-1,4
 386 1151 386 1151 487 1151 c 0,5,6
 580 1151 580 1151 651.5 1122 c 128,-1,7
 723 1093 723 1093 771.5 1042 c 128,-1,8
 820 991 820 991 845 921 c 128,-1,9
 870 851 870 851 870 769 c 256,10,11
 870 687 870 687 845 617 c 128,-1,12
 820 547 820 547 771.5 496 c 128,-1,13
 723 445 723 445 651.5 416 c 128,-1,14
 580 387 580 387 487 387 c 0,15,16
 386 387 386 387 311 416 c 128,-1,17
 236 445 236 445 186 496 c 128,-1,18
 136 547 136 547 111 617 c 128,-1,19
 86 687 86 687 86 769 c 256,0,1
621 769 m 256,20,21
 621 793 621 793 618.5 825.5 c 128,-1,22
 616 858 616 858 603 888 c 128,-1,23
 590 918 590 918 562.5 938.5 c 128,-1,24
 535 959 535 959 486 959 c 0,25,26
 429 959 429 959 398 938.5 c 128,-1,27
 367 918 367 918 352.5 888 c 128,-1,28
 338 858 338 858 336 825.5 c 128,-1,29
 334 793 334 793 334 769 c 256,30,31
 334 745 334 745 336 712.5 c 128,-1,32
 338 680 338 680 352.5 650 c 128,-1,33
 367 620 367 620 398 599.5 c 128,-1,34
 429 579 429 579 486 579 c 0,35,36
 535 579 535 579 562.5 599.5 c 128,-1,37
 590 620 590 620 603 650 c 128,-1,38
 616 680 616 680 618.5 712.5 c 128,-1,39
 621 745 621 745 621 769 c 256,20,21
EndSplineSet
EndChar

StartChar: currency
Encoding: 164 164 109
Width: 1292
Flags: W
HStem: 482 216<644 778.249> 1127 216<510.888 778.797>
VStem: 214 240<755.081 1069.64> 644 1<481.5 482.5> 836 240<755.452 1069.14>
DStem2: 221 1387 126 1278 0.75095 -0.660359<0.638903 202.694 1063.34 1258.41> 126 556 221 447 0.75095 0.660359<0 194.065 1054.38 1257.77>
LayerCount: 2
Fore
SplineSet
221 447 m 1,0,-1
 126 556 l 1,1,-1
 266 679 l 1,2,3
 240 729 240 729 227 787.5 c 128,-1,4
 214 846 214 846 214 912 c 0,5,6
 214 980 214 980 227.5 1040 c 128,-1,7
 241 1100 241 1100 270 1151 c 1,8,-1
 126 1278 l 1,9,-1
 221 1387 l 1,10,-1
 364 1261 l 1,11,12
 416 1300 416 1300 486 1321.5 c 128,-1,13
 556 1343 556 1343 646 1343 c 256,14,15
 736 1343 736 1343 805.5 1321 c 128,-1,16
 875 1299 875 1299 927 1260 c 1,17,-1
 1071 1387 l 1,18,-1
 1166 1278 l 1,19,-1
 1021 1150 l 1,20,21
 1049 1099 1049 1099 1062.5 1039 c 128,-1,22
 1076 979 1076 979 1076 912 c 0,23,24
 1076 846 1076 846 1063 788 c 128,-1,25
 1050 730 1050 730 1024 680 c 1,26,-1
 1166 556 l 1,27,-1
 1071 447 l 1,28,-1
 932 569 l 1,29,30
 879 527 879 527 808 504.5 c 128,-1,31
 737 482 737 482 644 482 c 2,32,-1
 645 482 l 2,33,34
 553 482 553 482 482 504.5 c 128,-1,35
 411 527 411 527 359 568 c 1,36,-1
 221 447 l 1,0,-1
645 698 m 256,37,38
 836 698 836 698 836 912 c 0,39,40
 836 1127 836 1127 645 1127 c 256,41,42
 454 1127 454 1127 454 912 c 0,43,44
 454 698 454 698 645 698 c 256,37,38
EndSplineSet
EndChar

StartChar: cent
Encoding: 162 162 110
Width: 923
Flags: W
VStem: 31 289<318.235 846.083> 418 139<-192 -20.2812 252 918 1153.87 1344> 634 273<754 884.395>
LayerCount: 2
Fore
SplineSet
418 -16 m 1,0,1
 320 4 320 4 247.5 59.5 c 128,-1,2
 175 115 175 115 127 193.5 c 128,-1,3
 79 272 79 272 55 368 c 128,-1,4
 31 464 31 464 31 566 c 0,5,6
 31 669 31 669 54 770 c 128,-1,7
 77 871 77 871 124 953.5 c 128,-1,8
 171 1036 171 1036 244 1092 c 128,-1,9
 317 1148 317 1148 418 1162 c 1,10,-1
 418 1344 l 1,11,-1
 557 1344 l 1,12,-1
 557 1161 l 1,13,14
 634 1149 634 1149 697 1114.5 c 128,-1,15
 760 1080 760 1080 806 1027 c 128,-1,16
 852 974 852 974 878 904.5 c 128,-1,17
 904 835 904 835 907 754 c 1,18,-1
 634 742 l 1,19,20
 631 761 631 761 626.5 785 c 128,-1,21
 622 809 622 809 613.5 834 c 128,-1,22
 605 859 605 859 591.5 881 c 128,-1,23
 578 903 578 903 557 918 c 1,24,-1
 557 218 l 1,25,26
 576 222 576 222 590.5 234 c 128,-1,27
 605 246 605 246 615.5 261.5 c 128,-1,28
 626 277 626 277 633.5 296 c 128,-1,29
 641 315 641 315 646 334 c 0,30,31
 657 378 657 378 660 432 c 1,32,-1
 900 405 l 1,33,34
 888 314 888 314 866.5 237.5 c 128,-1,35
 845 161 845 161 806 104.5 c 128,-1,36
 767 48 767 48 706.5 14.5 c 128,-1,37
 646 -19 646 -19 557 -25 c 1,38,-1
 557 -192 l 1,39,-1
 418 -192 l 1,40,-1
 418 -16 l 1,0,1
320 576 m 0,41,42
 320 548 320 548 321.5 504.5 c 128,-1,43
 323 461 323 461 332 414.5 c 128,-1,44
 341 368 341 368 361 324 c 128,-1,45
 381 280 381 280 418 252 c 1,46,-1
 418 920 l 1,47,48
 393 904 393 904 376.5 878 c 128,-1,49
 360 852 360 852 349 820.5 c 128,-1,50
 338 789 338 789 332 754.5 c 128,-1,51
 326 720 326 720 323.5 687 c 128,-1,52
 321 654 321 654 320.5 625 c 128,-1,53
 320 596 320 596 320 576 c 0,41,42
EndSplineSet
EndChar

StartChar: yen
Encoding: 165 165 111
Width: 1066
Flags: W
HStem: 0 21G<388 691> 1516 20G<18 354.594 779.875 1046>
VStem: 388 303<0 608>
DStem2: 559 896 691 643 0.369416 0.929264<0 678.956>
LayerCount: 2
Fore
SplineSet
388 608 m 1,0,-1
 18 1536 l 1,1,-1
 348 1536 l 1,2,-1
 559 896 l 1,3,-1
 787 1536 l 1,4,-1
 1046 1536 l 1,5,-1
 691 643 l 1,6,-1
 691 0 l 1,7,-1
 388 0 l 1,8,-1
 388 608 l 1,0,-1
EndSplineSet
EndChar

StartChar: OE
Encoding: 338 338 112
Width: 1710
Flags: W
HStem: -27 255<495.445 707.778> 0 240<1098 1588> 672 258<1098 1397> 1307 239<501.414 698.649 1098 1572>
VStem: 116 299<367.409 1178.77> 798 300<340.855 672 930 1176.88>
LayerCount: 2
Fore
SplineSet
798 1536 m 1,0,-1
 1572 1536 l 1,1,-1
 1572 1296 l 1,2,-1
 1098 1296 l 1,3,-1
 1098 930 l 1,4,-1
 1397 930 l 1,5,-1
 1397 672 l 1,6,-1
 1098 672 l 1,7,-1
 1098 240 l 1,8,-1
 1588 240 l 1,9,-1
 1588 0 l 1,10,-1
 798 0 l 1,11,-1
 798 96 l 1,12,13
 761 38 761 38 710.5 5.5 c 128,-1,14
 660 -27 660 -27 591 -27 c 0,15,16
 493 -27 493 -27 419.5 5.5 c 128,-1,17
 346 38 346 38 293 95.5 c 128,-1,18
 240 153 240 153 206 232 c 128,-1,19
 172 311 172 311 152 404 c 128,-1,20
 132 497 132 497 124 600.5 c 128,-1,21
 116 704 116 704 116 810 c 0,22,23
 116 974 116 974 143.5 1109.5 c 128,-1,24
 171 1245 171 1245 229 1342 c 128,-1,25
 287 1439 287 1439 376.5 1492.5 c 128,-1,26
 466 1546 466 1546 591 1546 c 0,27,28
 657 1546 657 1546 708 1514.5 c 128,-1,29
 759 1483 759 1483 798 1424 c 1,30,-1
 798 1536 l 1,0,-1
591 228 m 0,31,32
 652 228 652 228 692.5 259 c 128,-1,33
 733 290 733 290 756 348 c 128,-1,34
 779 406 779 406 788.5 490 c 128,-1,35
 798 574 798 574 798 681 c 2,36,-1
 798 884 l 2,37,38
 798 929 798 929 794.5 978.5 c 128,-1,39
 791 1028 791 1028 782 1075 c 128,-1,40
 773 1122 773 1122 758 1164 c 128,-1,41
 743 1206 743 1206 720 1238 c 128,-1,42
 697 1270 697 1270 665 1288.5 c 128,-1,43
 633 1307 633 1307 591 1307 c 0,44,45
 550 1307 550 1307 521 1283 c 128,-1,46
 492 1259 492 1259 472.5 1219 c 128,-1,47
 453 1179 453 1179 441.5 1127 c 128,-1,48
 430 1075 430 1075 424 1020 c 128,-1,49
 418 965 418 965 416.5 910.5 c 128,-1,50
 415 856 415 856 415 810 c 0,51,52
 415 675 415 675 420 567 c 128,-1,53
 425 459 425 459 443 383.5 c 128,-1,54
 461 308 461 308 496 268 c 128,-1,55
 531 228 531 228 591 228 c 0,31,32
EndSplineSet
EndChar

StartChar: oe
Encoding: 339 339 113
Width: 1631
Flags: W
HStem: -27 214<459.233 628.739 1041.78 1196.54> 536 166<976 1251> 964 203<459.654 628.904 1037.5 1204.04>
VStem: 114 288<272.054 873.158> 688 288<268.629 536 702 894.494> 1251 283<702 877.521>
LayerCount: 2
Fore
SplineSet
976 536 m 1,0,1
 976 482 976 482 983 420 c 128,-1,2
 990 358 990 358 1006.5 306 c 128,-1,3
 1023 254 1023 254 1050 219.5 c 128,-1,4
 1077 185 1077 185 1116 185 c 0,5,6
 1150 185 1150 185 1178 212 c 128,-1,7
 1206 239 1206 239 1227 273 c 128,-1,8
 1248 307 1248 307 1260.5 337 c 128,-1,9
 1273 367 1273 367 1276 373 c 1,10,-1
 1494 290 l 1,11,12
 1474 220 1474 220 1441 162 c 128,-1,13
 1408 104 1408 104 1361 62 c 128,-1,14
 1314 20 1314 20 1252 -3.5 c 128,-1,15
 1190 -27 1190 -27 1111 -27 c 0,16,17
 1018 -27 1018 -27 952.5 15 c 128,-1,18
 887 57 887 57 835 132 c 1,19,20
 784 57 784 57 709 15 c 128,-1,21
 634 -27 634 -27 546 -27 c 0,22,23
 438 -27 438 -27 357 17.5 c 128,-1,24
 276 62 276 62 222 141.5 c 128,-1,25
 168 221 168 221 141 332 c 128,-1,26
 114 443 114 443 114 577 c 0,27,28
 114 706 114 706 141 814.5 c 128,-1,29
 168 923 168 923 222 1001.5 c 128,-1,30
 276 1080 276 1080 357 1123.5 c 128,-1,31
 438 1167 438 1167 546 1167 c 0,32,33
 634 1167 634 1167 710 1122 c 128,-1,34
 786 1077 786 1077 837 997 c 1,35,36
 891 1078 891 1078 958.5 1122.5 c 128,-1,37
 1026 1167 1026 1167 1121 1167 c 0,38,39
 1224 1167 1224 1167 1301 1123.5 c 128,-1,40
 1378 1080 1378 1080 1430 1001 c 128,-1,41
 1482 922 1482 922 1508 812 c 128,-1,42
 1534 702 1534 702 1534 570 c 1,43,-1
 1530 556 l 2,44,45
 1528 550 1528 550 1527 544.5 c 128,-1,46
 1526 539 1526 539 1526 536 c 1,47,-1
 976 536 l 1,0,1
544 187 m 0,48,49
 579 187 579 187 604 206 c 128,-1,50
 629 225 629 225 645 256.5 c 128,-1,51
 661 288 661 288 670 328.5 c 128,-1,52
 679 369 679 369 683 412.5 c 128,-1,53
 687 456 687 456 688 498.5 c 128,-1,54
 689 541 689 541 689 577 c 0,55,56
 689 612 689 612 688 654 c 128,-1,57
 687 696 687 696 683 739 c 128,-1,58
 679 782 679 782 670 822.5 c 128,-1,59
 661 863 661 863 645 894.5 c 128,-1,60
 629 926 629 926 604.5 945 c 128,-1,61
 580 964 580 964 545 964 c 0,62,63
 509 964 509 964 484.5 945 c 128,-1,64
 460 926 460 926 444 894.5 c 128,-1,65
 428 863 428 863 419.5 822.5 c 128,-1,66
 411 782 411 782 407 739 c 128,-1,67
 403 696 403 696 402.5 654 c 128,-1,68
 402 612 402 612 402 577 c 0,69,70
 402 541 402 541 402.5 498.5 c 128,-1,71
 403 456 403 456 407 412.5 c 128,-1,72
 411 369 411 369 419.5 328.5 c 128,-1,73
 428 288 428 288 443.5 256.5 c 128,-1,74
 459 225 459 225 483.5 206 c 128,-1,75
 508 187 508 187 544 187 c 0,48,49
976 702 m 1,76,-1
 1251 702 l 1,77,78
 1251 759 1251 759 1243.5 808 c 128,-1,79
 1236 857 1236 857 1220 892.5 c 128,-1,80
 1204 928 1204 928 1178.5 948.5 c 128,-1,81
 1153 969 1153 969 1116 969 c 0,82,83
 1090 969 1090 969 1064.5 948.5 c 128,-1,84
 1039 928 1039 928 1019.5 892.5 c 128,-1,85
 1000 857 1000 857 988 808 c 128,-1,86
 976 759 976 759 976 702 c 1,76,-1
EndSplineSet
EndChar

StartChar: plusminus
Encoding: 177 177 114
Width: 798
Flags: W
HStem: 1 238<108 684> 576 238<41 281 519 759>
VStem: 281 238<336 576 814 1054>
LayerCount: 2
Fore
SplineSet
519 576 m 1,0,-1
 519 336 l 1,1,-1
 281 336 l 1,2,-1
 281 576 l 1,3,-1
 41 576 l 1,4,-1
 41 814 l 1,5,-1
 281 814 l 1,6,-1
 281 1054 l 1,7,-1
 519 1054 l 1,8,-1
 519 814 l 1,9,-1
 759 814 l 1,10,-1
 759 576 l 1,11,-1
 519 576 l 1,0,-1
108 239 m 1,12,-1
 684 239 l 1,13,-1
 684 1 l 1,14,-1
 108 1 l 1,15,-1
 108 239 l 1,12,-1
EndSplineSet
EndChar

StartChar: bullet
Encoding: 8226 8226 115
Width: 846
Flags: W
HStem: 385 671<239.487 609.706>
VStem: 86 673<535.941 904.154>
LayerCount: 2
Fore
SplineSet
86 720 m 256,0,1
 86 792 86 792 107.5 853.5 c 128,-1,2
 129 915 129 915 172 960 c 128,-1,3
 215 1005 215 1005 279.5 1030.5 c 128,-1,4
 344 1056 344 1056 430 1056 c 0,5,6
 510 1056 510 1056 571.5 1030.5 c 128,-1,7
 633 1005 633 1005 674.5 960 c 128,-1,8
 716 915 716 915 737.5 853.5 c 128,-1,9
 759 792 759 792 759 720 c 256,10,11
 759 648 759 648 737.5 586.5 c 128,-1,12
 716 525 716 525 674.5 480.5 c 128,-1,13
 633 436 633 436 571.5 410.5 c 128,-1,14
 510 385 510 385 430 385 c 0,15,16
 344 385 344 385 279.5 410.5 c 128,-1,17
 215 436 215 436 172 480.5 c 128,-1,18
 129 525 129 525 107.5 586.5 c 128,-1,19
 86 648 86 648 86 720 c 256,0,1
EndSplineSet
EndChar

StartChar: copyright
Encoding: 169 169 116
Width: 1441
Flags: W
HStem: 0 133<518.1 921.976> 242 149<657.323 811.475> 944 162<648.868 791.59> 1213 133<518.1 922.141>
VStem: 76 133<453.807 892.193> 413 198<443.56 909.299> 825 191<763 914.935> 849 168<423.844 582> 1232 133<453.807 892.193>
LayerCount: 2
Fore
SplineSet
1017 582 m 1,0,1
 1017 515 1017 515 999.5 453.5 c 128,-1,2
 982 392 982 392 946.5 345 c 128,-1,3
 911 298 911 298 856.5 270 c 128,-1,4
 802 242 802 242 729 242 c 0,5,6
 642 242 642 242 582 283 c 128,-1,7
 522 324 522 324 484.5 389 c 128,-1,8
 447 454 447 454 430 533 c 128,-1,9
 413 612 413 612 413 689 c 0,10,11
 413 736 413 736 420.5 785 c 128,-1,12
 428 834 428 834 443.5 880.5 c 128,-1,13
 459 927 459 927 484.5 968 c 128,-1,14
 510 1009 510 1009 545.5 1039.5 c 128,-1,15
 581 1070 581 1070 628 1088 c 128,-1,16
 675 1106 675 1106 734 1106 c 0,17,18
 800 1106 800 1106 852.5 1076 c 128,-1,19
 905 1046 905 1046 941.5 997 c 128,-1,20
 978 948 978 948 997 887 c 128,-1,21
 1016 826 1016 826 1016 763 c 1,22,-1
 825 755 l 1,23,24
 825 759 825 759 824 775 c 128,-1,25
 823 791 823 791 820 812 c 128,-1,26
 817 833 817 833 810.5 856 c 128,-1,27
 804 879 804 879 792.5 898.5 c 128,-1,28
 781 918 781 918 764 931 c 128,-1,29
 747 944 747 944 722 944 c 0,30,31
 686 944 686 944 664.5 920.5 c 128,-1,32
 643 897 643 897 631 860 c 128,-1,33
 619 823 619 823 615 777.5 c 128,-1,34
 611 732 611 732 611 689 c 0,35,36
 611 633 611 633 615.5 579.5 c 128,-1,37
 620 526 620 526 633.5 484 c 128,-1,38
 647 442 647 442 673 416.5 c 128,-1,39
 699 391 699 391 742 391 c 0,40,41
 773 391 773 391 793 411 c 128,-1,42
 813 431 813 431 824.5 462 c 128,-1,43
 836 493 836 493 841.5 529.5 c 128,-1,44
 847 566 847 566 849 598 c 1,45,-1
 1017 582 l 1,0,1
209 673 m 256,46,47
 209 561 209 561 249.5 462.5 c 128,-1,48
 290 364 290 364 359.5 291 c 128,-1,49
 429 218 429 218 522 175.5 c 128,-1,50
 615 133 615 133 721 133 c 0,51,52
 826 133 826 133 919 175.5 c 128,-1,53
 1012 218 1012 218 1081.5 291 c 128,-1,54
 1151 364 1151 364 1191.5 462.5 c 128,-1,55
 1232 561 1232 561 1232 673 c 256,56,57
 1232 785 1232 785 1191.5 883.5 c 128,-1,58
 1151 982 1151 982 1081.5 1055 c 128,-1,59
 1012 1128 1012 1128 919 1170.5 c 128,-1,60
 826 1213 826 1213 721 1213 c 0,61,62
 615 1213 615 1213 522 1170.5 c 128,-1,63
 429 1128 429 1128 359.5 1055 c 128,-1,64
 290 982 290 982 249.5 883.5 c 128,-1,65
 209 785 209 785 209 673 c 256,46,47
76 673 m 256,66,67
 76 766 76 766 99 852 c 128,-1,68
 122 938 122 938 164 1013 c 128,-1,69
 206 1088 206 1088 265 1149 c 128,-1,70
 324 1210 324 1210 396 1254 c 128,-1,71
 468 1298 468 1298 550 1322 c 128,-1,72
 632 1346 632 1346 721 1346 c 256,73,74
 810 1346 810 1346 892 1322 c 128,-1,75
 974 1298 974 1298 1045.5 1254 c 128,-1,76
 1117 1210 1117 1210 1176 1149 c 128,-1,77
 1235 1088 1235 1088 1277 1013 c 128,-1,78
 1319 938 1319 938 1342 852 c 128,-1,79
 1365 766 1365 766 1365 673 c 256,80,81
 1365 580 1365 580 1342 494 c 128,-1,82
 1319 408 1319 408 1277 333 c 128,-1,83
 1235 258 1235 258 1176 197 c 128,-1,84
 1117 136 1117 136 1045.5 92 c 128,-1,85
 974 48 974 48 891.5 24 c 128,-1,86
 809 0 809 0 721 0 c 0,87,88
 632 0 632 0 550 24 c 128,-1,89
 468 48 468 48 396 92 c 128,-1,90
 324 136 324 136 265 197 c 128,-1,91
 206 258 206 258 164 333 c 128,-1,92
 122 408 122 408 99 494 c 128,-1,93
 76 580 76 580 76 673 c 256,66,67
EndSplineSet
EndChar

StartChar: registered
Encoding: 174 174 117
Width: 1441
Flags: W
HStem: 0 133<518.1 921.976> 591 140<689 872.405> 936 157.5<689 875.201> 1213 133<518.1 922.141>
VStem: 76 133<453.807 892.193> 490 197<233 591 731 936> 891 197<753.502 916.325> 1232 133<453.807 892.193>
LayerCount: 2
Fore
SplineSet
209 673 m 256,0,1
 209 561 209 561 249.5 462.5 c 128,-1,2
 290 364 290 364 359.5 291 c 128,-1,3
 429 218 429 218 522 175.5 c 128,-1,4
 615 133 615 133 721 133 c 0,5,6
 826 133 826 133 919 175.5 c 128,-1,7
 1012 218 1012 218 1081.5 291 c 128,-1,8
 1151 364 1151 364 1191.5 462.5 c 128,-1,9
 1232 561 1232 561 1232 673 c 256,10,11
 1232 785 1232 785 1191.5 883.5 c 128,-1,12
 1151 982 1151 982 1081.5 1055 c 128,-1,13
 1012 1128 1012 1128 919 1170.5 c 128,-1,14
 826 1213 826 1213 721 1213 c 0,15,16
 615 1213 615 1213 522 1170.5 c 128,-1,17
 429 1128 429 1128 359.5 1055 c 128,-1,18
 290 982 290 982 249.5 883.5 c 128,-1,19
 209 785 209 785 209 673 c 256,0,1
76 673 m 256,20,21
 76 766 76 766 99 852 c 128,-1,22
 122 938 122 938 164 1013 c 128,-1,23
 206 1088 206 1088 265 1149 c 128,-1,24
 324 1210 324 1210 396 1254 c 128,-1,25
 468 1298 468 1298 550 1322 c 128,-1,26
 632 1346 632 1346 721 1346 c 256,27,28
 810 1346 810 1346 892 1322 c 128,-1,29
 974 1298 974 1298 1045.5 1254 c 128,-1,30
 1117 1210 1117 1210 1176 1149 c 128,-1,31
 1235 1088 1235 1088 1277 1013 c 128,-1,32
 1319 938 1319 938 1342 852 c 128,-1,33
 1365 766 1365 766 1365 673 c 256,34,35
 1365 580 1365 580 1342 494 c 128,-1,36
 1319 408 1319 408 1277 333 c 128,-1,37
 1235 258 1235 258 1176 197 c 128,-1,38
 1117 136 1117 136 1045.5 92 c 128,-1,39
 974 48 974 48 891.5 24 c 128,-1,40
 809 0 809 0 721 0 c 0,41,42
 632 0 632 0 550 24 c 128,-1,43
 468 48 468 48 396 92 c 128,-1,44
 324 136 324 136 265 197 c 128,-1,45
 206 258 206 258 164 333 c 128,-1,46
 122 408 122 408 99 494 c 128,-1,47
 76 580 76 580 76 673 c 256,20,21
490 1094 m 1,48,-1
 616 1094 l 2,49,50
 667 1094 667 1094 722 1093.5 c 128,-1,51
 777 1093 777 1093 829 1086.5 c 128,-1,52
 881 1080 881 1080 928.5 1065 c 128,-1,53
 976 1050 976 1050 1011 1021 c 128,-1,54
 1046 992 1046 992 1067 945.5 c 128,-1,55
 1088 899 1088 899 1088 831 c 0,56,57
 1088 776 1088 776 1071 737 c 128,-1,58
 1054 698 1054 698 1024 671 c 128,-1,59
 994 644 994 644 955 628.5 c 128,-1,60
 916 613 916 613 871 604.5 c 128,-1,61
 826 596 826 596 779 593.5 c 128,-1,62
 732 591 732 591 687 591 c 1,63,-1
 687 233 l 1,64,-1
 490 233 l 1,65,-1
 490 1094 l 1,48,-1
722 731 m 2,66,67
 756 731 756 731 786.5 735 c 128,-1,68
 817 739 817 739 840.5 750.5 c 128,-1,69
 864 762 864 762 877.5 781.5 c 128,-1,70
 891 801 891 801 891 832 c 0,71,72
 891 865 891 865 879.5 885.5 c 128,-1,73
 868 906 868 906 845.5 917 c 128,-1,74
 823 928 823 928 791 932 c 128,-1,75
 759 936 759 936 717 936 c 2,76,-1
 689 936 l 1,77,-1
 689 731 l 1,78,-1
 722 731 l 2,66,67
EndSplineSet
EndChar

StartChar: florin
Encoding: 402 402 118
Width: 720
Flags: W
HStem: -394 202<23.5647 190.182> -364 172<23 189.009> 627 237<74 216 504 695> 1344 202<529.818 696.435> 1344 172<530.547 697>
VStem: 216 288<-166.758 627 864 1318.76>
LayerCount: 2
Fore
SplineSet
504 -22 m 2,0,1
 504 -92 504 -92 498.5 -158.5 c 128,-1,2
 493 -225 493 -225 465.5 -277.5 c 128,-1,3
 438 -330 438 -330 380 -362 c 128,-1,4
 322 -394 322 -394 218 -394 c 0,5,6
 164 -394 164 -394 127.5 -389.5 c 128,-1,7
 91 -385 91 -385 68 -379 c 0,8,9
 41 -373 41 -373 23 -364 c 1,10,-1
 23 -192 l 1,11,-1
 86 -192 l 2,12,13
 131 -192 131 -192 157 -177 c 128,-1,14
 183 -162 183 -162 196 -138 c 128,-1,15
 209 -114 209 -114 212.5 -83.5 c 128,-1,16
 216 -53 216 -53 216 -21 c 2,17,-1
 216 629 l 1,18,-1
 74 629 l 1,19,-1
 74 864 l 1,20,-1
 216 864 l 1,21,-1
 216 1174 l 2,22,23
 216 1244 216 1244 221.5 1310.5 c 128,-1,24
 227 1377 227 1377 254.5 1429.5 c 128,-1,25
 282 1482 282 1482 340 1514 c 128,-1,26
 398 1546 398 1546 502 1546 c 0,27,28
 555 1546 555 1546 592 1541 c 128,-1,29
 629 1536 629 1536 652 1531 c 0,30,31
 679 1524 679 1524 697 1516 c 1,32,-1
 697 1344 l 1,33,-1
 634 1344 l 2,34,35
 589 1344 589 1344 563 1329 c 128,-1,36
 537 1314 537 1314 524 1290 c 128,-1,37
 511 1266 511 1266 507.5 1235 c 128,-1,38
 504 1204 504 1204 504 1173 c 2,39,-1
 504 864 l 1,40,-1
 695 864 l 1,41,-1
 695 627 l 1,42,-1
 504 627 l 1,43,-1
 504 -22 l 2,0,1
EndSplineSet
EndChar

StartChar: ae
Encoding: 230 230 119
Width: 1555
Flags: W
HStem: -27 212<415.416 574.587 970.114 1121.66> 536 166<903 1178> 556 171.5<449.817 615> 956 211<454.621 587.553 958.801 1136.63>
VStem: 108 282<212.07 493.29> 615 288<268.801 536 736.312 894.934> 1178 283<702 877.521>
LayerCount: 2
Fore
SplineSet
903 536 m 1,0,1
 903 482 903 482 910 420 c 128,-1,2
 917 358 917 358 933.5 306 c 128,-1,3
 950 254 950 254 977 219.5 c 128,-1,4
 1004 185 1004 185 1043 185 c 0,5,6
 1077 185 1077 185 1105 212 c 128,-1,7
 1133 239 1133 239 1154 273 c 128,-1,8
 1175 307 1175 307 1187.5 337 c 128,-1,9
 1200 367 1200 367 1203 373 c 1,10,-1
 1421 290 l 1,11,12
 1401 220 1401 220 1368 162 c 128,-1,13
 1335 104 1335 104 1288 62 c 128,-1,14
 1241 20 1241 20 1179 -3.5 c 128,-1,15
 1117 -27 1117 -27 1038 -27 c 0,16,17
 951 -27 951 -27 884 18 c 128,-1,18
 817 63 817 63 767 144 c 1,19,20
 741 94 741 94 701.5 61 c 128,-1,21
 662 28 662 28 615.5 8.5 c 128,-1,22
 569 -11 569 -11 518.5 -19 c 128,-1,23
 468 -27 468 -27 419 -27 c 0,24,25
 349 -27 349 -27 291.5 -0.5 c 128,-1,26
 234 26 234 26 193.5 73.5 c 128,-1,27
 153 121 153 121 130.5 185.5 c 128,-1,28
 108 250 108 250 108 327 c 0,29,30
 108 409 108 409 131.5 470.5 c 128,-1,31
 155 532 155 532 194.5 576.5 c 128,-1,32
 234 621 234 621 286 651 c 128,-1,33
 338 681 338 681 394.5 699.5 c 128,-1,34
 451 718 451 718 508 727.5 c 128,-1,35
 565 737 565 737 615 740 c 1,36,37
 615 780 615 780 614 818.5 c 128,-1,38
 613 857 613 857 605 887.5 c 128,-1,39
 597 918 597 918 580 937 c 128,-1,40
 563 956 563 956 532 956 c 0,41,42
 506 956 506 956 487.5 944.5 c 128,-1,43
 469 933 469 933 456.5 914.5 c 128,-1,44
 444 896 444 896 437.5 872.5 c 128,-1,45
 431 849 431 849 428 826 c 1,46,-1
 148 875 l 1,47,48
 159 961 159 961 197 1017.5 c 128,-1,49
 235 1074 235 1074 288.5 1107 c 128,-1,50
 342 1140 342 1140 405.5 1153.5 c 128,-1,51
 469 1167 469 1167 532 1167 c 0,52,53
 615 1167 615 1167 675 1131 c 128,-1,54
 735 1095 735 1095 777 1032 c 1,55,56
 831 1095 831 1095 898 1131 c 128,-1,57
 965 1167 965 1167 1048 1167 c 0,58,59
 1151 1167 1151 1167 1228 1123.5 c 128,-1,60
 1305 1080 1305 1080 1357 1001 c 128,-1,61
 1409 922 1409 922 1435 812 c 128,-1,62
 1461 702 1461 702 1461 570 c 1,63,-1
 1457 556 l 2,64,65
 1455 550 1455 550 1454 544.5 c 128,-1,66
 1453 539 1453 539 1453 536 c 1,67,-1
 903 536 l 1,0,1
390 331 m 0,68,69
 390 263 390 263 417.5 221 c 128,-1,70
 445 179 445 179 504 179 c 0,71,72
 528 179 528 179 548.5 197.5 c 128,-1,73
 569 216 569 216 584 245 c 128,-1,74
 599 274 599 274 607 310.5 c 128,-1,75
 615 347 615 347 615 382 c 2,76,-1
 615 568 l 1,77,78
 567 568 567 568 526 556 c 128,-1,79
 485 544 485 544 454.5 516 c 128,-1,80
 424 488 424 488 407 442.5 c 128,-1,81
 390 397 390 397 390 331 c 0,68,69
1178 702 m 1,82,83
 1178 759 1178 759 1170.5 808 c 128,-1,84
 1163 857 1163 857 1147 892.5 c 128,-1,85
 1131 928 1131 928 1105.5 948.5 c 128,-1,86
 1080 969 1080 969 1043 969 c 0,87,88
 1017 969 1017 969 992.5 949.5 c 128,-1,89
 968 930 968 930 948.5 896 c 128,-1,90
 929 862 929 862 916.5 815 c 128,-1,91
 904 768 904 768 903 713 c 1,92,-1
 903 702 l 1,93,-1
 1178 702 l 1,82,83
EndSplineSet
EndChar

StartChar: paragraph
Encoding: 182 182 120
Width: 1162
Flags: W
HStem: 0 21G<320 552 704 936> 1288 248<936 1080>
VStem: 32 904<963.526 1286.29> 320 232<0 770> 704 232<0 764>
LayerCount: 2
Fore
SplineSet
1080 1288 m 1,0,-1
 936 1288 l 1,1,-1
 936 0 l 1,2,-1
 704 0 l 1,3,-1
 704 764 l 1,4,5
 666 764 666 764 628.5 765 c 128,-1,6
 591 766 591 766 552 770 c 1,7,-1
 552 0 l 1,8,-1
 320 0 l 1,9,-1
 320 801 l 1,10,11
 258 818 258 818 205 845 c 128,-1,12
 152 872 152 872 113.5 913.5 c 128,-1,13
 75 955 75 955 53.5 1012 c 128,-1,14
 32 1069 32 1069 32 1145 c 0,15,16
 32 1247 32 1247 68 1315.5 c 128,-1,17
 104 1384 104 1384 165 1427.5 c 128,-1,18
 226 1471 226 1471 307 1493.5 c 128,-1,19
 388 1516 388 1516 478 1525.5 c 128,-1,20
 568 1535 568 1535 662 1535.5 c 128,-1,21
 756 1536 756 1536 844 1536 c 2,22,-1
 1080 1536 l 1,23,-1
 1080 1288 l 1,0,-1
EndSplineSet
EndChar

StartChar: question
Encoding: 63 63 121
Width: 845
Flags: W
HStem: 1318 228<361.473 512.144>
VStem: 50 273<1133 1283.2> 195 240<384 573.338> 547 289<941.513 1285.34>
LayerCount: 2
Fore
SplineSet
435 384 m 1,0,-1
 195 384 l 1,1,2
 185 493 185 493 195 566.5 c 128,-1,3
 205 640 205 640 228 689.5 c 128,-1,4
 251 739 251 739 283.5 770 c 128,-1,5
 316 801 316 801 351.5 824.5 c 128,-1,6
 387 848 387 848 422 868.5 c 128,-1,7
 457 889 457 889 484.5 919 c 128,-1,8
 512 949 512 949 529.5 992.5 c 128,-1,9
 547 1036 547 1036 547 1105 c 0,10,11
 547 1125 547 1125 545 1160.5 c 128,-1,12
 543 1196 543 1196 532.5 1231 c 128,-1,13
 522 1266 522 1266 498 1292 c 128,-1,14
 474 1318 474 1318 431 1318 c 0,15,16
 398 1318 398 1318 378 1296.5 c 128,-1,17
 358 1275 358 1275 346.5 1244 c 128,-1,18
 335 1213 335 1213 330.5 1179.5 c 128,-1,19
 326 1146 326 1146 323 1121 c 1,20,-1
 50 1133 l 1,21,22
 53 1224 53 1224 82.5 1300 c 128,-1,23
 112 1376 112 1376 163 1431 c 128,-1,24
 214 1486 214 1486 284 1516 c 128,-1,25
 354 1546 354 1546 438 1546 c 0,26,27
 541 1546 541 1546 616.5 1506.5 c 128,-1,28
 692 1467 692 1467 740.5 1403 c 128,-1,29
 789 1339 789 1339 812.5 1258 c 128,-1,30
 836 1177 836 1177 836 1095 c 0,31,32
 836 1004 836 1004 819 941.5 c 128,-1,33
 802 879 802 879 773.5 835 c 128,-1,34
 745 791 745 791 709 762 c 128,-1,35
 673 733 673 733 635.5 708 c 128,-1,36
 598 683 598 683 562 658.5 c 128,-1,37
 526 634 526 634 497.5 599.5 c 128,-1,38
 469 565 469 565 452 516.5 c 128,-1,39
 435 468 435 468 435 396 c 2,40,-1
 435 384 l 1,0,-1
170 288 m 1,41,-1
 170 -12 l 1,42,-1
 458 0 l 1,43,-1
 458 288 l 1,44,-1
 170 288 l 1,41,-1
EndSplineSet
EndChar

StartChar: breve
Encoding: 728 728 122
Width: 1018
Flags: W
HStem: 1248 240<370.716 647.284>
VStem: 77 240<1542.54 1728> 701 240<1542.54 1728>
LayerCount: 2
Fore
SplineSet
317 1728 m 1,0,1
 317 1692 317 1692 320 1650 c 128,-1,2
 323 1608 323 1608 341 1572 c 128,-1,3
 359 1536 359 1536 398 1512 c 128,-1,4
 437 1488 437 1488 509 1488 c 256,5,6
 581 1488 581 1488 620 1512 c 128,-1,7
 659 1536 659 1536 677 1572 c 128,-1,8
 695 1608 695 1608 698 1650 c 128,-1,9
 701 1692 701 1692 701 1728 c 1,10,-1
 941 1728 l 1,11,12
 941 1682 941 1682 932.5 1629 c 128,-1,13
 924 1576 924 1576 904 1522.5 c 128,-1,14
 884 1469 884 1469 851 1419.5 c 128,-1,15
 818 1370 818 1370 770 1332 c 128,-1,16
 722 1294 722 1294 657.5 1271 c 128,-1,17
 593 1248 593 1248 509 1248 c 256,18,19
 425 1248 425 1248 360.5 1271 c 128,-1,20
 296 1294 296 1294 248 1332 c 128,-1,21
 200 1370 200 1370 167 1419.5 c 128,-1,22
 134 1469 134 1469 114 1522.5 c 128,-1,23
 94 1576 94 1576 85.5 1629 c 128,-1,24
 77 1682 77 1682 77 1728 c 1,25,-1
 317 1728 l 1,0,1
EndSplineSet
EndChar

StartChar: ogonek
Encoding: 731 731 123
Width: 544
Flags: W
HStem: -385 194<302.184 494.358>
VStem: 83 206<-240 -73.5703>
LayerCount: 2
Fore
SplineSet
294 -101 m 2,0,1
 289 -119 289 -119 289 -130 c 0,2,3
 289 -165 289 -165 312 -178 c 128,-1,4
 335 -191 335 -191 368 -191 c 0,5,6
 388 -191 388 -191 410 -187.5 c 128,-1,7
 432 -184 432 -184 452 -178.5 c 128,-1,8
 472 -173 472 -173 489 -167 c 128,-1,9
 506 -161 506 -161 517 -156 c 1,10,-1
 517 -321 l 1,11,12
 488 -352 488 -352 433.5 -368.5 c 128,-1,13
 379 -385 379 -385 319 -385 c 0,14,15
 275 -385 275 -385 232.5 -375.5 c 128,-1,16
 190 -366 190 -366 157 -345.5 c 128,-1,17
 124 -325 124 -325 103.5 -293.5 c 128,-1,18
 83 -262 83 -262 83 -218 c 0,19,20
 83 -202 83 -202 87.5 -185 c 128,-1,21
 92 -168 92 -168 100 -148 c 2,22,-1
 162 20 l 1,23,-1
 324 20 l 1,24,-1
 294 -101 l 2,0,1
EndSplineSet
EndChar

StartChar: cedilla
Encoding: 184 184 124
Width: 551
Flags: W
HStem: -556 193<108.892 307.965> -171 219<164 278.209>
VStem: 164 152<-11.2555 48> 316 206<-340.311 -210.851>
LayerCount: 2
Fore
SplineSet
164 48 m 1,0,-1
 316 48 l 1,1,-1
 286 -76 l 1,2,3
 347 -93 347 -93 388 -119 c 128,-1,4
 429 -145 429 -145 455 -173 c 128,-1,5
 481 -201 481 -201 495 -229.5 c 128,-1,6
 509 -258 509 -258 515 -281.5 c 128,-1,7
 521 -305 521 -305 521.5 -320.5 c 128,-1,8
 522 -336 522 -336 522 -339 c 0,9,10
 522 -399 522 -399 504 -440 c 128,-1,11
 486 -481 486 -481 456 -507 c 128,-1,12
 426 -533 426 -533 387 -544.5 c 128,-1,13
 348 -556 348 -556 306 -556 c 0,14,15
 241 -556 241 -556 179.5 -538.5 c 128,-1,16
 118 -521 118 -521 76 -492 c 1,17,-1
 76 -327 l 1,18,19
 120 -347 120 -347 155.5 -355 c 128,-1,20
 191 -363 191 -363 220 -363 c 0,21,22
 272 -363 272 -363 294 -341 c 128,-1,23
 316 -319 316 -319 316 -289 c 0,24,25
 316 -269 316 -269 305 -248 c 128,-1,26
 294 -227 294 -227 270.5 -210 c 128,-1,27
 247 -193 247 -193 211 -182 c 128,-1,28
 175 -171 175 -171 124 -171 c 1,29,-1
 164 48 l 1,0,-1
EndSplineSet
EndChar

StartChar: dagger
Encoding: 8224 8224 127
Width: 674
Flags: W
HStem: 960 192<13 217 457 661>
VStem: 217 240<192 960 1152 1428>
LayerCount: 2
Fore
SplineSet
217 1152 m 1,0,-1
 217 1428 l 1,1,-1
 457 1440 l 1,2,-1
 457 1152 l 1,3,-1
 673 1152 l 1,4,-1
 661 960 l 1,5,-1
 457 960 l 1,6,-1
 457 192 l 1,7,-1
 217 180 l 1,8,-1
 217 960 l 1,9,-1
 1 960 l 1,10,-1
 13 1152 l 1,11,-1
 217 1152 l 1,0,-1
EndSplineSet
EndChar

StartChar: daggerdbl
Encoding: 8225 8225 128
Width: 692
Flags: W
HStem: 480 192<22 226 466 670> 960 192<22 226 466 670>
VStem: 226 240<192 480 672 960 1152 1428>
LayerCount: 2
Fore
SplineSet
226 1152 m 1,0,-1
 226 1428 l 1,1,-1
 466 1440 l 1,2,-1
 466 1152 l 1,3,-1
 682 1152 l 1,4,-1
 670 960 l 1,5,-1
 466 960 l 1,6,-1
 466 672 l 1,7,-1
 682 672 l 1,8,-1
 670 480 l 1,9,-1
 466 480 l 1,10,-1
 466 192 l 1,11,-1
 226 180 l 1,12,-1
 226 480 l 1,13,-1
 10 480 l 1,14,-1
 22 672 l 1,15,-1
 226 672 l 1,16,-1
 226 960 l 1,17,-1
 10 960 l 1,18,-1
 22 1152 l 1,19,-1
 226 1152 l 1,0,-1
EndSplineSet
EndChar

StartChar: sterling
Encoding: 163 163 129
Width: 961
Flags: W
HStem: -12 31G<211.5 243 799.5 858> 97 225<451.661 746.608> 636 191<120 226 251 545.5 569 716> 1331 233<443.369 597.498>
VStem: 125 294<995.374 1303.26> 261 308<423.464 634.967>
DStem2: 442.5 1042.5 160 1027 0.299232 -0.95418<-135.16 154.761>
LayerCount: 2
Fore
SplineSet
816 -2 m 1,0,1
 783 30 783 30 751.5 49.5 c 128,-1,2
 720 69 720 69 690.5 79.5 c 128,-1,3
 661 90 661 90 633 93.5 c 128,-1,4
 605 97 605 97 578 97 c 0,5,6
 519 97 519 97 469.5 80 c 128,-1,7
 420 63 420 63 377 42.5 c 128,-1,8
 334 22 334 22 297 5 c 128,-1,9
 260 -12 260 -12 226 -12 c 0,10,11
 197 -12 197 -12 176 -4.5 c 128,-1,12
 155 3 155 3 141 12 c 0,13,14
 124 23 124 23 112 36 c 1,15,-1
 112 226 l 1,16,17
 155 240 155 240 183.5 273 c 128,-1,18
 212 306 212 306 229 354 c 128,-1,19
 246 402 246 402 253.5 462.5 c 128,-1,20
 261 523 261 523 261 591 c 0,21,22
 261 643 261 643 251 698.5 c 128,-1,23
 241 754 241 754 226 810.5 c 128,-1,24
 211 867 211 867 193 922 c 128,-1,25
 175 977 175 977 160 1027 c 128,-1,26
 145 1077 145 1077 135 1121 c 128,-1,27
 125 1165 125 1165 125 1199 c 0,28,29
 125 1284 125 1284 158 1351.5 c 128,-1,30
 191 1419 191 1419 243.5 1466.5 c 128,-1,31
 296 1514 296 1514 362.5 1539 c 128,-1,32
 429 1564 429 1564 497 1564 c 0,33,34
 561 1564 561 1564 622 1545 c 128,-1,35
 683 1526 683 1526 733.5 1485.5 c 128,-1,36
 784 1445 784 1445 819 1382.5 c 128,-1,37
 854 1320 854 1320 866 1233 c 1,38,-1
 634 1145 l 1,39,40
 634 1240 634 1240 599 1285.5 c 128,-1,41
 564 1331 564 1331 511 1331 c 0,42,43
 473 1331 473 1331 446 1295.5 c 128,-1,44
 419 1260 419 1260 419 1179 c 0,45,46
 419 1108 419 1108 442.5 1042.5 c 128,-1,47
 466 977 466 977 494 912 c 128,-1,48
 522 847 522 847 545.5 778.5 c 128,-1,49
 569 710 569 710 569 632 c 0,50,51
 569 559 569 559 543 474.5 c 128,-1,52
 517 390 517 390 450 288 c 1,53,54
 519 322 519 322 591 322 c 0,55,56
 660 322 660 322 726 297.5 c 128,-1,57
 792 273 792 273 858 231 c 1,58,-1
 858 10 l 1,59,-1
 816 -2 l 1,0,1
120 827 m 1,60,-1
 716 827 l 1,61,-1
 716 636 l 1,62,-1
 120 636 l 1,63,-1
 120 827 l 1,60,-1
EndSplineSet
EndChar

StartChar: tilde
Encoding: 732 732 130
Width: 860
Flags: W
HStem: 1230 227<448.272 676.633> 1331 206<201.874 429.573>
VStem: 118 637
LayerCount: 2
Fore
SplineSet
118 1415 m 1,0,1
 148 1449 148 1449 181 1476 c 0,2,3
 209 1499 209 1499 243 1518 c 128,-1,4
 277 1537 277 1537 311 1537 c 0,5,6
 351 1537 351 1537 383 1524.5 c 128,-1,7
 415 1512 415 1512 444.5 1497 c 128,-1,8
 474 1482 474 1482 502 1469.5 c 128,-1,9
 530 1457 530 1457 562 1457 c 0,10,11
 600 1457 600 1457 628.5 1469.5 c 128,-1,12
 657 1482 657 1482 675 1497 c 0,13,14
 696 1515 696 1515 711 1537 c 1,15,-1
 755 1375 l 2,16,17
 755 1374 755 1374 742 1351 c 128,-1,18
 729 1328 729 1328 704.5 1301 c 128,-1,19
 680 1274 680 1274 644.5 1252 c 128,-1,20
 609 1230 609 1230 564 1230 c 0,21,22
 528 1230 528 1230 498.5 1246 c 128,-1,23
 469 1262 469 1262 439 1280.5 c 128,-1,24
 409 1299 409 1299 376 1315 c 128,-1,25
 343 1331 343 1331 300 1331 c 0,26,27
 269 1331 269 1331 239 1315.5 c 128,-1,28
 209 1300 209 1300 186 1281 c 0,29,30
 158 1259 158 1259 133 1231 c 1,31,-1
 118 1415 l 1,0,1
EndSplineSet
EndChar

StartChar: ellipsis
Encoding: 8230 8230 131
Width: 1751
Flags: W
HStem: -12 300<162 334.032 734 906.032 1306 1478.03> 12 276<277.968 450 849.968 1022 1421.97 1594>
VStem: 162 288<12 288> 734 288<12 288> 1306 288<12 288>
CounterMasks: 1 38
LayerCount: 2
Fore
SplineSet
450 288 m 1,0,-1
 450 12 l 1,1,-1
 162 -12 l 1,2,-1
 162 288 l 1,3,-1
 450 288 l 1,0,-1
1022 288 m 1,4,-1
 1022 12 l 1,5,-1
 734 -12 l 1,6,-1
 734 288 l 1,7,-1
 1022 288 l 1,4,-1
1594 288 m 1,8,-1
 1594 12 l 1,9,-1
 1306 -12 l 1,10,-1
 1306 288 l 1,11,-1
 1594 288 l 1,8,-1
EndSplineSet
EndChar

StartChar: quotesinglbase
Encoding: 8218 8218 132
Width: 481
Flags: W
HStem: -288 192<150 231.908> 0 288<102 246>
VStem: 102 288<0 288> 246 144<-83.2117 0>
LayerCount: 2
Fore
SplineSet
390 288 m 1,0,-1
 390 0 l 2,1,2
 390 -54 390 -54 379.5 -95 c 128,-1,3
 369 -136 369 -136 352.5 -166.5 c 128,-1,4
 336 -197 336 -197 314 -218 c 128,-1,5
 292 -239 292 -239 270 -252 c 0,6,7
 217 -284 217 -284 150 -288 c 1,8,-1
 150 -96 l 1,9,10
 186 -96 186 -96 205.5 -81 c 128,-1,11
 225 -66 225 -66 234 -48 c 0,12,13
 245 -27 245 -27 246 0 c 1,14,-1
 102 0 l 1,15,-1
 102 288 l 1,16,-1
 390 288 l 1,0,-1
EndSplineSet
EndChar

StartChar: at
Encoding: 64 64 133
Width: 1620
Flags: W
HStem: -32 183<574.662 1042.64> 324 187<750.772 901.013> 348 121<1186.67 1314.26> 911 157<754.815 905.958> 1258 194<623.91 1091.54>
VStem: 81 224<434.44 913.694> 480 234<544.635 872.252> 950 223<549.939 882.146> 1362 190<533.615 999.458>
LayerCount: 2
Fore
SplineSet
1552 775 m 0,0,1
 1552 675 1552 675 1530 596 c 128,-1,2
 1508 517 1508 517 1466 462 c 128,-1,3
 1424 407 1424 407 1363.5 377.5 c 128,-1,4
 1303 348 1303 348 1225 348 c 0,5,6
 1211 348 1211 348 1183.5 352 c 128,-1,7
 1156 356 1156 356 1125.5 372.5 c 128,-1,8
 1095 389 1095 389 1066 421 c 128,-1,9
 1037 453 1037 453 1020 510 c 1,10,11
 969 416 969 416 903 370 c 128,-1,12
 837 324 837 324 765 324 c 0,13,14
 711 324 711 324 659.5 347 c 128,-1,15
 608 370 608 370 568 416.5 c 128,-1,16
 528 463 528 463 504 533.5 c 128,-1,17
 480 604 480 604 480 699 c 0,18,19
 480 798 480 798 504.5 868 c 128,-1,20
 529 938 529 938 568.5 982.5 c 128,-1,21
 608 1027 608 1027 657.5 1047.5 c 128,-1,22
 707 1068 707 1068 757 1068 c 0,23,24
 792 1068 792 1068 825.5 1059.5 c 128,-1,25
 859 1051 859 1051 888 1034.5 c 128,-1,26
 917 1018 917 1018 941 994.5 c 128,-1,27
 965 971 965 971 980 941 c 1,28,-1
 1016 1050 l 1,29,-1
 1173 1050 l 1,30,-1
 1173 581 l 2,31,32
 1173 521 1173 521 1191 495 c 128,-1,33
 1209 469 1209 469 1236 469 c 0,34,35
 1267 469 1267 469 1289 486 c 128,-1,36
 1311 503 1311 503 1325 530.5 c 128,-1,37
 1339 558 1339 558 1346.5 592.5 c 128,-1,38
 1354 627 1354 627 1357.5 661 c 128,-1,39
 1361 695 1361 695 1361.5 725 c 128,-1,40
 1362 755 1362 755 1362 775 c 0,41,42
 1362 895 1362 895 1324 985.5 c 128,-1,43
 1286 1076 1286 1076 1217.5 1136.5 c 128,-1,44
 1149 1197 1149 1197 1053.5 1227.5 c 128,-1,45
 958 1258 958 1258 844 1258 c 0,46,47
 755 1258 755 1258 680 1234.5 c 128,-1,48
 605 1211 605 1211 545.5 1169.5 c 128,-1,49
 486 1128 486 1128 441 1072 c 128,-1,50
 396 1016 396 1016 365.5 950.5 c 128,-1,51
 335 885 335 885 320 813.5 c 128,-1,52
 305 742 305 742 305 671 c 0,53,54
 305 571 305 571 334 477.5 c 128,-1,55
 363 384 363 384 423 311.5 c 128,-1,56
 483 239 483 239 575.5 195 c 128,-1,57
 668 151 668 151 795 151 c 0,58,59
 889 151 889 151 995 180.5 c 128,-1,60
 1101 210 1101 210 1231 274 c 1,61,-1
 1303 124 l 1,62,63
 1156 43 1156 43 1026.5 5.5 c 128,-1,64
 897 -32 897 -32 779 -32 c 0,65,66
 600 -32 600 -32 468.5 27 c 128,-1,67
 337 86 337 86 251 183.5 c 128,-1,68
 165 281 165 281 123 406.5 c 128,-1,69
 81 532 81 532 81 666 c 0,70,71
 81 762 81 762 103.5 858 c 128,-1,72
 126 954 126 954 169.5 1041 c 128,-1,73
 213 1128 213 1128 278 1203.5 c 128,-1,74
 343 1279 343 1279 428 1334 c 128,-1,75
 513 1389 513 1389 617.5 1420.5 c 128,-1,76
 722 1452 722 1452 845 1452 c 0,77,78
 933 1452 933 1452 1020 1433 c 128,-1,79
 1107 1414 1107 1414 1185.5 1376 c 128,-1,80
 1264 1338 1264 1338 1331 1281.5 c 128,-1,81
 1398 1225 1398 1225 1447 1150 c 128,-1,82
 1496 1075 1496 1075 1524 981 c 128,-1,83
 1552 887 1552 887 1552 775 c 0,0,1
950 844 m 1,84,85
 884 911 884 911 832 911 c 0,86,87
 805 911 805 911 783 895.5 c 128,-1,88
 761 880 761 880 745.5 852.5 c 128,-1,89
 730 825 730 825 722 786 c 128,-1,90
 714 747 714 747 714 699 c 0,91,92
 714 652 714 652 723.5 616.5 c 128,-1,93
 733 581 733 581 749 557.5 c 128,-1,94
 765 534 765 534 785.5 522.5 c 128,-1,95
 806 511 806 511 829 511 c 0,96,97
 862 511 862 511 895 539.5 c 128,-1,98
 928 568 928 568 950 625 c 1,99,-1
 950 844 l 1,84,85
EndSplineSet
EndChar

StartChar: quotesingle
Encoding: 39 39 134
Width: 459
Flags: W
HStem: 948 588<134.83 328>
VStem: 136 192<960 1123.62>
LayerCount: 2
Fore
SplineSet
376 1536 m 1,0,-1
 328 960 l 1,1,-1
 136 948 l 1,2,-1
 88 1536 l 1,3,-1
 376 1536 l 1,0,-1
EndSplineSet
EndChar

StartChar: quotedbl
Encoding: 34 34 135
Width: 918
Flags: W
HStem: 948 588<170.83 364 554.83 748>
VStem: 172 192<960 1123.62> 556 192<960 1123.62>
LayerCount: 2
Fore
SplineSet
412 1536 m 1,0,-1
 364 960 l 1,1,-1
 172 948 l 1,2,-1
 124 1536 l 1,3,-1
 412 1536 l 1,0,-1
796 1536 m 1,4,-1
 748 960 l 1,5,-1
 556 948 l 1,6,-1
 508 1536 l 1,7,-1
 796 1536 l 1,4,-1
EndSplineSet
EndChar

StartChar: numbersign
Encoding: 35 35 136
Width: 1281
Flags: W
HStem: 0 21G<157 459.604 643 945.604> 384 238<58 207 538 693 1024 1165> 960 238<106 282 613 768 1099 1213> 1516 20G<355.337 658 841.337 1144>
VStem: 157 300<0 300> 358 300<1236 1536> 643 300<0 300> 844 300<1236 1536>
DStem2: 157 0 457 0 0.129753 0.991546<38.9259 387.241 666.178 968.104 1247.04 1549.1> 643 0 943 0 0.129753 0.991546<38.9259 387.241 666.178 968.104 1247.04 1549.1>
LayerCount: 2
Fore
SplineSet
106 1198 m 1,0,-1
 313 1198 l 1,1,-1
 358 1536 l 1,2,-1
 658 1536 l 1,3,-1
 613 1198 l 1,4,-1
 799 1198 l 1,5,-1
 844 1536 l 1,6,-1
 1144 1536 l 1,7,-1
 1099 1198 l 1,8,-1
 1213 1198 l 1,9,-1
 1213 960 l 1,10,-1
 1068 960 l 1,11,-1
 1024 622 l 1,12,-1
 1165 622 l 1,13,-1
 1165 384 l 1,14,-1
 993 384 l 1,15,-1
 943 0 l 1,16,-1
 643 0 l 1,17,-1
 693 384 l 1,18,-1
 507 384 l 1,19,-1
 457 0 l 1,20,-1
 157 0 l 1,21,-1
 207 384 l 1,22,-1
 58 384 l 1,23,-1
 58 622 l 1,24,-1
 238 622 l 1,25,-1
 282 960 l 1,26,-1
 106 960 l 1,27,-1
 106 1198 l 1,0,-1
538 622 m 1,28,-1
 724 622 l 1,29,-1
 768 960 l 1,30,-1
 582 960 l 1,31,-1
 538 622 l 1,28,-1
EndSplineSet
EndChar

StartChar: asterisk
Encoding: 42 42 137
Width: 997
Flags: W
LayerCount: 2
Fore
SplineSet
629 1392 m 1,0,-1
 578 1030 l 1,1,-1
 894 1182 l 1,2,-1
 974 909 l 1,3,-1
 624 855 l 1,4,-1
 886 595 l 1,5,-1
 659 428 l 1,6,-1
 498 748 l 1,7,-1
 337 428 l 1,8,-1
 110 595 l 1,9,-1
 372 855 l 1,10,-1
 22 909 l 1,11,-1
 102 1182 l 1,12,-1
 418 1030 l 1,13,-1
 367 1392 l 1,14,-1
 629 1392 l 1,0,-1
EndSplineSet
EndChar

StartChar: dotlessi
Encoding: 305 305 138
Width: 603
Flags: W
HStem: -12 21G<161 401> 1132 20G<209 449>
VStem: 161 288<12 1128>
LayerCount: 2
Fore
SplineSet
161 1128 m 1,0,-1
 449 1152 l 1,1,-1
 449 12 l 1,2,-1
 161 -12 l 1,3,-1
 161 1128 l 1,0,-1
EndSplineSet
EndChar

StartChar: equal
Encoding: 61 61 139
Width: 898
Flags: W
HStem: 288 238<162 738> 672 238<162 738>
VStem: 162 576<288 526 672 910>
LayerCount: 2
Fore
SplineSet
162 526 m 1,0,-1
 738 526 l 1,1,-1
 738 288 l 1,2,-1
 162 288 l 1,3,-1
 162 526 l 1,0,-1
162 910 m 1,4,-1
 738 910 l 1,5,-1
 738 672 l 1,6,-1
 162 672 l 1,7,-1
 162 910 l 1,4,-1
EndSplineSet
EndChar

StartChar: braceleft
Encoding: 123 123 140
Width: 677
Flags: W
HStem: -87 162<480.227 590> 693 189<14 97.1332> 1470 162<480.227 590>
VStem: 110 291<184.742 682.688 892.312 1373.77>
LayerCount: 2
Fore
SplineSet
110 551 m 0,0,1
 110 575 110 575 108.5 600 c 128,-1,2
 107 625 107 625 98 646 c 128,-1,3
 89 667 89 667 69.5 680 c 128,-1,4
 50 693 50 693 14 693 c 1,5,-1
 14 882 l 1,6,7
 50 882 50 882 69.5 895 c 128,-1,8
 89 908 89 908 98 929 c 128,-1,9
 107 950 107 950 108.5 975 c 128,-1,10
 110 1000 110 1000 110 1024 c 0,11,12
 110 1171 110 1171 131 1284.5 c 128,-1,13
 152 1398 152 1398 206 1475 c 128,-1,14
 260 1552 260 1552 353 1592 c 128,-1,15
 446 1632 446 1632 590 1632 c 1,16,-1
 590 1470 l 1,17,18
 518 1470 518 1470 479 1443 c 128,-1,19
 440 1416 440 1416 422 1360.5 c 128,-1,20
 404 1305 404 1305 401 1221 c 128,-1,21
 398 1137 398 1137 398 1024 c 0,22,23
 398 994 398 994 395 962.5 c 128,-1,24
 392 931 392 931 374 900 c 128,-1,25
 356 869 356 869 317 840.5 c 128,-1,26
 278 812 278 812 206 787 c 1,27,28
 278 763 278 763 317 734.5 c 128,-1,29
 356 706 356 706 374 675 c 128,-1,30
 392 644 392 644 395 612.5 c 128,-1,31
 398 581 398 581 398 551 c 0,32,33
 398 430 398 430 401 340.5 c 128,-1,34
 404 251 404 251 422 192 c 128,-1,35
 440 133 440 133 479 104 c 128,-1,36
 518 75 518 75 590 75 c 1,37,-1
 590 -87 l 1,38,39
 446 -87 446 -87 353 -45 c 128,-1,40
 260 -3 260 -3 206 78 c 128,-1,41
 152 159 152 159 131 278 c 128,-1,42
 110 397 110 397 110 551 c 0,0,1
EndSplineSet
EndChar

StartChar: braceright
Encoding: 125 125 141
Width: 678
Flags: W
HStem: -87 162<88 197.773> 693 189<580.867 664> 1470 162<88 197.773>
VStem: 277 291<184.742 682.688 892.312 1373.77>
LayerCount: 2
Fore
SplineSet
568 551 m 0,0,1
 568 397 568 397 547 278 c 128,-1,2
 526 159 526 159 472 78 c 128,-1,3
 418 -3 418 -3 325 -45 c 128,-1,4
 232 -87 232 -87 88 -87 c 1,5,-1
 88 75 l 1,6,7
 160 75 160 75 199 104 c 128,-1,8
 238 133 238 133 256 192 c 128,-1,9
 274 251 274 251 277 340.5 c 128,-1,10
 280 430 280 430 280 551 c 0,11,12
 280 581 280 581 283 612.5 c 128,-1,13
 286 644 286 644 304 675 c 128,-1,14
 322 706 322 706 361 734.5 c 128,-1,15
 400 763 400 763 472 787 c 1,16,17
 400 812 400 812 361 840.5 c 128,-1,18
 322 869 322 869 304 900 c 128,-1,19
 286 931 286 931 283 962.5 c 128,-1,20
 280 994 280 994 280 1024 c 0,21,22
 280 1137 280 1137 277 1221 c 128,-1,23
 274 1305 274 1305 256 1360.5 c 128,-1,24
 238 1416 238 1416 199 1443 c 128,-1,25
 160 1470 160 1470 88 1470 c 1,26,-1
 88 1632 l 1,27,28
 232 1632 232 1632 325 1592 c 128,-1,29
 418 1552 418 1552 472 1475 c 128,-1,30
 526 1398 526 1398 547 1284.5 c 128,-1,31
 568 1171 568 1171 568 1024 c 0,32,33
 568 1000 568 1000 569.5 975 c 128,-1,34
 571 950 571 950 580 929 c 128,-1,35
 589 908 589 908 608.5 895 c 128,-1,36
 628 882 628 882 664 882 c 1,37,-1
 664 693 l 1,38,39
 628 693 628 693 608.5 680 c 128,-1,40
 589 667 589 667 580 646 c 128,-1,41
 571 625 571 625 569.5 600 c 128,-1,42
 568 575 568 575 568 551 c 0,0,1
EndSplineSet
EndChar

StartChar: mu
Encoding: 181 181 144
Width: 1111
Flags: W
HStem: -12 21G<738 978> 43 185<472.926 662.587> 1132 20G<210 450 786 1026>
VStem: 162 288<-192 46 263.075 1128> 738 288<12 135 289.52 1128>
LayerCount: 2
Fore
SplineSet
162 1128 m 1,0,-1
 450 1152 l 1,1,-1
 450 381 l 2,2,3
 450 296 450 296 476 262 c 128,-1,4
 502 228 502 228 545 228 c 0,5,6
 565 228 565 228 587.5 235.5 c 128,-1,7
 610 243 610 243 635 256 c 128,-1,8
 660 269 660 269 686 285 c 128,-1,9
 712 301 712 301 738 318 c 1,10,-1
 738 1128 l 1,11,-1
 1026 1152 l 1,12,-1
 1026 12 l 1,13,-1
 738 -12 l 1,14,-1
 738 135 l 1,15,16
 677 91 677 91 618 67 c 128,-1,17
 559 43 559 43 508 43 c 0,18,19
 477 43 477 43 450 46 c 1,20,-1
 450 -192 l 1,21,-1
 162 -204 l 1,22,-1
 162 1128 l 1,0,-1
EndSplineSet
EndChar

StartChar: ordmasculine
Encoding: 186 186 145
Width: 958
Flags: W
HStem: 363 194<389.594 570.869> 984 183<387.28 570.57>
VStem: 88 247<612.925 931.473> 623 249<610.284 929.707>
LayerCount: 2
Fore
SplineSet
478 557 m 0,0,1
 514 557 514 557 541.5 575 c 128,-1,2
 569 593 569 593 587 623 c 128,-1,3
 605 653 605 653 614 691 c 128,-1,4
 623 729 623 729 623 769 c 256,5,6
 623 809 623 809 614 847.5 c 128,-1,7
 605 886 605 886 587 916.5 c 128,-1,8
 569 947 569 947 542 965.5 c 128,-1,9
 515 984 515 984 479 984 c 256,10,11
 443 984 443 984 416 966 c 128,-1,12
 389 948 389 948 371 918 c 128,-1,13
 353 888 353 888 344 849.5 c 128,-1,14
 335 811 335 811 335 771 c 0,15,16
 335 732 335 732 344 694 c 128,-1,17
 353 656 353 656 371 626 c 128,-1,18
 389 596 389 596 415.5 577 c 128,-1,19
 442 558 442 558 478 557 c 0,0,1
480 363 m 0,20,21
 382 363 382 363 308.5 393 c 128,-1,22
 235 423 235 423 186 476.5 c 128,-1,23
 137 530 137 530 112.5 604 c 128,-1,24
 88 678 88 678 88 767 c 0,25,26
 88 854 88 854 112.5 927 c 128,-1,27
 137 1000 137 1000 186 1053.5 c 128,-1,28
 235 1107 235 1107 308.5 1137 c 128,-1,29
 382 1167 382 1167 480 1167 c 0,30,31
 576 1167 576 1167 649 1137 c 128,-1,32
 722 1107 722 1107 771.5 1053.5 c 128,-1,33
 821 1000 821 1000 846.5 927 c 128,-1,34
 872 854 872 854 872 767 c 0,35,36
 872 678 872 678 846.5 604 c 128,-1,37
 821 530 821 530 771.5 476.5 c 128,-1,38
 722 423 722 423 649 393 c 128,-1,39
 576 363 576 363 480 363 c 0,20,21
EndSplineSet
EndChar

StartChar: percent
Encoding: 37 37 146
Width: 2083
Flags: W
HStem: -1 194<1560.59 1741.87> 620 183<1558.28 1741.57> 732 194<342.594 523.869> 1353 183<340.28 523.57>
VStem: 41 247<981.925 1300.47> 576 249<979.284 1298.71> 697 276<0 276> 1090 276<1260 1536> 1259 247<248.925 567.473> 1794 249<246.284 565.707>
DStem2: 697 0 973 0 0.247875 0.968792<68.4134 1585.48>
LayerCount: 2
Fore
SplineSet
431 926 m 0,0,1
 467 926 467 926 494.5 944 c 128,-1,2
 522 962 522 962 540 992 c 128,-1,3
 558 1022 558 1022 567 1060 c 128,-1,4
 576 1098 576 1098 576 1138 c 256,5,6
 576 1178 576 1178 567 1216.5 c 128,-1,7
 558 1255 558 1255 540 1285.5 c 128,-1,8
 522 1316 522 1316 495 1334.5 c 128,-1,9
 468 1353 468 1353 432 1353 c 256,10,11
 396 1353 396 1353 369 1335 c 128,-1,12
 342 1317 342 1317 324 1287 c 128,-1,13
 306 1257 306 1257 297 1218.5 c 128,-1,14
 288 1180 288 1180 288 1140 c 0,15,16
 288 1101 288 1101 297 1063 c 128,-1,17
 306 1025 306 1025 324 995 c 128,-1,18
 342 965 342 965 368.5 946 c 128,-1,19
 395 927 395 927 431 926 c 0,0,1
433 732 m 0,20,21
 335 732 335 732 261.5 762 c 128,-1,22
 188 792 188 792 139 845.5 c 128,-1,23
 90 899 90 899 65.5 973 c 128,-1,24
 41 1047 41 1047 41 1136 c 0,25,26
 41 1223 41 1223 65.5 1296 c 128,-1,27
 90 1369 90 1369 139 1422.5 c 128,-1,28
 188 1476 188 1476 261.5 1506 c 128,-1,29
 335 1536 335 1536 433 1536 c 0,30,31
 529 1536 529 1536 602 1506 c 128,-1,32
 675 1476 675 1476 724.5 1422.5 c 128,-1,33
 774 1369 774 1369 799.5 1296 c 128,-1,34
 825 1223 825 1223 825 1136 c 0,35,36
 825 1047 825 1047 799.5 973 c 128,-1,37
 774 899 774 899 724.5 845.5 c 128,-1,38
 675 792 675 792 602 762 c 128,-1,39
 529 732 529 732 433 732 c 0,20,21
1649 193 m 0,40,41
 1685 193 1685 193 1712.5 211 c 128,-1,42
 1740 229 1740 229 1758 259 c 128,-1,43
 1776 289 1776 289 1785 327 c 128,-1,44
 1794 365 1794 365 1794 405 c 256,45,46
 1794 445 1794 445 1785 483.5 c 128,-1,47
 1776 522 1776 522 1758 552.5 c 128,-1,48
 1740 583 1740 583 1713 601.5 c 128,-1,49
 1686 620 1686 620 1650 620 c 256,50,51
 1614 620 1614 620 1587 602 c 128,-1,52
 1560 584 1560 584 1542 554 c 128,-1,53
 1524 524 1524 524 1515 485.5 c 128,-1,54
 1506 447 1506 447 1506 407 c 0,55,56
 1506 368 1506 368 1515 330 c 128,-1,57
 1524 292 1524 292 1542 262 c 128,-1,58
 1560 232 1560 232 1586.5 213 c 128,-1,59
 1613 194 1613 194 1649 193 c 0,40,41
1651 -1 m 0,60,61
 1553 -1 1553 -1 1479.5 29 c 128,-1,62
 1406 59 1406 59 1357 112.5 c 128,-1,63
 1308 166 1308 166 1283.5 240 c 128,-1,64
 1259 314 1259 314 1259 403 c 0,65,66
 1259 490 1259 490 1283.5 563 c 128,-1,67
 1308 636 1308 636 1357 689.5 c 128,-1,68
 1406 743 1406 743 1479.5 773 c 128,-1,69
 1553 803 1553 803 1651 803 c 0,70,71
 1747 803 1747 803 1820 773 c 128,-1,72
 1893 743 1893 743 1942.5 689.5 c 128,-1,73
 1992 636 1992 636 2017.5 563 c 128,-1,74
 2043 490 2043 490 2043 403 c 0,75,76
 2043 314 2043 314 2017.5 240 c 128,-1,77
 1992 166 1992 166 1942.5 112.5 c 128,-1,78
 1893 59 1893 59 1820 29 c 128,-1,79
 1747 -1 1747 -1 1651 -1 c 0,60,61
1090 1536 m 1,80,-1
 1366 1536 l 1,81,-1
 973 0 l 1,82,-1
 697 0 l 1,83,-1
 1090 1536 l 1,80,-1
EndSplineSet
EndChar

StartChar: perthousand
Encoding: 8240 8240 147
Width: 2986
Flags: W
HStem: -1 194<1589.59 1770.87 2490.59 2671.87> 620 183<1587.28 1770.57 2488.28 2671.57> 732 194<371.594 552.869> 1353 183<369.28 552.57>
VStem: 70 247<981.925 1300.47> 605 249<979.284 1298.71> 726 276<0 276> 1119 276<1260 1536> 1288 247<248.925 567.473> 1823 249<246.284 565.707> 2189 247<248.925 567.473> 2724 249<246.284 565.707>
DStem2: 726 0 1002 0 0.247875 0.968792<68.4134 1585.48>
LayerCount: 2
Fore
SplineSet
460 926 m 0,0,1
 496 926 496 926 523.5 944 c 128,-1,2
 551 962 551 962 569 992 c 128,-1,3
 587 1022 587 1022 596 1060 c 128,-1,4
 605 1098 605 1098 605 1138 c 256,5,6
 605 1178 605 1178 596 1216.5 c 128,-1,7
 587 1255 587 1255 569 1285.5 c 128,-1,8
 551 1316 551 1316 524 1334.5 c 128,-1,9
 497 1353 497 1353 461 1353 c 256,10,11
 425 1353 425 1353 398 1335 c 128,-1,12
 371 1317 371 1317 353 1287 c 128,-1,13
 335 1257 335 1257 326 1218.5 c 128,-1,14
 317 1180 317 1180 317 1140 c 0,15,16
 317 1101 317 1101 326 1063 c 128,-1,17
 335 1025 335 1025 353 995 c 128,-1,18
 371 965 371 965 397.5 946 c 128,-1,19
 424 927 424 927 460 926 c 0,0,1
462 732 m 0,20,21
 364 732 364 732 290.5 762 c 128,-1,22
 217 792 217 792 168 845.5 c 128,-1,23
 119 899 119 899 94.5 973 c 128,-1,24
 70 1047 70 1047 70 1136 c 0,25,26
 70 1223 70 1223 94.5 1296 c 128,-1,27
 119 1369 119 1369 168 1422.5 c 128,-1,28
 217 1476 217 1476 290.5 1506 c 128,-1,29
 364 1536 364 1536 462 1536 c 0,30,31
 558 1536 558 1536 631 1506 c 128,-1,32
 704 1476 704 1476 753.5 1422.5 c 128,-1,33
 803 1369 803 1369 828.5 1296 c 128,-1,34
 854 1223 854 1223 854 1136 c 0,35,36
 854 1047 854 1047 828.5 973 c 128,-1,37
 803 899 803 899 753.5 845.5 c 128,-1,38
 704 792 704 792 631 762 c 128,-1,39
 558 732 558 732 462 732 c 0,20,21
2579 193 m 0,40,41
 2615 193 2615 193 2642.5 211 c 128,-1,42
 2670 229 2670 229 2688 259 c 128,-1,43
 2706 289 2706 289 2715 327 c 128,-1,44
 2724 365 2724 365 2724 405 c 256,45,46
 2724 445 2724 445 2715 483.5 c 128,-1,47
 2706 522 2706 522 2688 552.5 c 128,-1,48
 2670 583 2670 583 2643 601.5 c 128,-1,49
 2616 620 2616 620 2580 620 c 256,50,51
 2544 620 2544 620 2517 602 c 128,-1,52
 2490 584 2490 584 2472 554 c 128,-1,53
 2454 524 2454 524 2445 485.5 c 128,-1,54
 2436 447 2436 447 2436 407 c 0,55,56
 2436 368 2436 368 2445 330 c 128,-1,57
 2454 292 2454 292 2472 262 c 128,-1,58
 2490 232 2490 232 2516.5 213 c 128,-1,59
 2543 194 2543 194 2579 193 c 0,40,41
2581 -1 m 0,60,61
 2483 -1 2483 -1 2409.5 29 c 128,-1,62
 2336 59 2336 59 2287 112.5 c 128,-1,63
 2238 166 2238 166 2213.5 240 c 128,-1,64
 2189 314 2189 314 2189 403 c 0,65,66
 2189 490 2189 490 2213.5 563 c 128,-1,67
 2238 636 2238 636 2287 689.5 c 128,-1,68
 2336 743 2336 743 2409.5 773 c 128,-1,69
 2483 803 2483 803 2581 803 c 0,70,71
 2677 803 2677 803 2750 773 c 128,-1,72
 2823 743 2823 743 2872.5 689.5 c 128,-1,73
 2922 636 2922 636 2947.5 563 c 128,-1,74
 2973 490 2973 490 2973 403 c 0,75,76
 2973 314 2973 314 2947.5 240 c 128,-1,77
 2922 166 2922 166 2872.5 112.5 c 128,-1,78
 2823 59 2823 59 2750 29 c 128,-1,79
 2677 -1 2677 -1 2581 -1 c 0,60,61
1119 1536 m 1,80,-1
 1395 1536 l 1,81,-1
 1002 0 l 1,82,-1
 726 0 l 1,83,-1
 1119 1536 l 1,80,-1
1678 193 m 0,84,85
 1714 193 1714 193 1741.5 211 c 128,-1,86
 1769 229 1769 229 1787 259 c 128,-1,87
 1805 289 1805 289 1814 327 c 128,-1,88
 1823 365 1823 365 1823 405 c 256,89,90
 1823 445 1823 445 1814 483.5 c 128,-1,91
 1805 522 1805 522 1787 552.5 c 128,-1,92
 1769 583 1769 583 1742 601.5 c 128,-1,93
 1715 620 1715 620 1679 620 c 256,94,95
 1643 620 1643 620 1616 602 c 128,-1,96
 1589 584 1589 584 1571 554 c 128,-1,97
 1553 524 1553 524 1544 485.5 c 128,-1,98
 1535 447 1535 447 1535 407 c 0,99,100
 1535 368 1535 368 1544 330 c 128,-1,101
 1553 292 1553 292 1571 262 c 128,-1,102
 1589 232 1589 232 1615.5 213 c 128,-1,103
 1642 194 1642 194 1678 193 c 0,84,85
1680 -1 m 0,104,105
 1582 -1 1582 -1 1508.5 29 c 128,-1,106
 1435 59 1435 59 1386 112.5 c 128,-1,107
 1337 166 1337 166 1312.5 240 c 128,-1,108
 1288 314 1288 314 1288 403 c 0,109,110
 1288 490 1288 490 1312.5 563 c 128,-1,111
 1337 636 1337 636 1386 689.5 c 128,-1,112
 1435 743 1435 743 1508.5 773 c 128,-1,113
 1582 803 1582 803 1680 803 c 0,114,115
 1776 803 1776 803 1849 773 c 128,-1,116
 1922 743 1922 743 1971.5 689.5 c 128,-1,117
 2021 636 2021 636 2046.5 563 c 128,-1,118
 2072 490 2072 490 2072 403 c 0,119,120
 2072 314 2072 314 2046.5 240 c 128,-1,121
 2021 166 2021 166 1971.5 112.5 c 128,-1,122
 1922 59 1922 59 1849 29 c 128,-1,123
 1776 -1 1776 -1 1680 -1 c 0,104,105
EndSplineSet
EndChar

StartChar: section
Encoding: 167 167 148
Width: 1004
Flags: W
HStem: -32 207<368.599 611.622> 1365 203<394.872 598.905>
VStem: 102 267<746.065 887.153 1212.31 1339.95> 630 276<199.894 343.468 655.079 806.717>
LayerCount: 2
Fore
SplineSet
317 312 m 1,0,1
 326 273 326 273 348 243 c 0,2,3
 366 217 366 217 399 196 c 128,-1,4
 432 175 432 175 485 175 c 0,5,6
 505 175 505 175 530.5 179.5 c 128,-1,7
 556 184 556 184 578 195 c 128,-1,8
 600 206 600 206 615 223.5 c 128,-1,9
 630 241 630 241 630 268 c 0,10,11
 630 305 630 305 604 329 c 128,-1,12
 578 353 578 353 543 367 c 2,13,-1
 302 465 l 1,14,15
 205 503 205 503 153.5 583 c 128,-1,16
 102 663 102 663 102 779 c 0,17,18
 102 850 102 850 124.5 906.5 c 128,-1,19
 147 963 147 963 185 1007 c 1,20,21
 112 1091 112 1091 112 1225 c 0,22,23
 112 1309 112 1309 145 1373 c 128,-1,24
 178 1437 178 1437 232 1480.5 c 128,-1,25
 286 1524 286 1524 356 1546 c 128,-1,26
 426 1568 426 1568 501 1568 c 0,27,28
 563 1568 563 1568 623.5 1550.5 c 128,-1,29
 684 1533 684 1533 736 1499 c 128,-1,30
 788 1465 788 1465 826.5 1415 c 128,-1,31
 865 1365 865 1365 884 1300 c 1,32,-1
 648 1227 l 1,33,34
 637 1265 637 1265 618 1296 c 0,35,36
 601 1322 601 1322 573 1343.5 c 128,-1,37
 545 1365 545 1365 503 1365 c 0,38,39
 480 1365 480 1365 458 1360 c 128,-1,40
 436 1355 436 1355 418.5 1343.5 c 128,-1,41
 401 1332 401 1332 390 1314.5 c 128,-1,42
 379 1297 379 1297 379 1273 c 0,43,44
 379 1254 379 1254 389.5 1238.5 c 128,-1,45
 400 1223 400 1223 415.5 1210.5 c 128,-1,46
 431 1198 431 1198 448 1189 c 128,-1,47
 465 1180 465 1180 479 1175 c 2,48,-1
 684 1090 l 2,49,50
 732 1070 732 1070 774.5 1042.5 c 128,-1,51
 817 1015 817 1015 848.5 977 c 128,-1,52
 880 939 880 939 898 889 c 128,-1,53
 916 839 916 839 916 773 c 0,54,55
 916 695 916 695 891 634.5 c 128,-1,56
 866 574 866 574 824 529 c 1,57,58
 862 491 862 491 884 439 c 128,-1,59
 906 387 906 387 906 317 c 0,60,61
 906 230 906 230 871 164.5 c 128,-1,62
 836 99 836 99 779 55.5 c 128,-1,63
 722 12 722 12 650 -10 c 128,-1,64
 578 -32 578 -32 504 -32 c 0,65,66
 416 -32 416 -32 347 -13 c 128,-1,67
 278 6 278 6 227 41.5 c 128,-1,68
 176 77 176 77 143 127.5 c 128,-1,69
 110 178 110 178 95 240 c 1,70,-1
 317 312 l 1,0,1
369 827 m 0,71,72
 369 804 369 804 379.5 785.5 c 128,-1,73
 390 767 390 767 405.5 752.5 c 128,-1,74
 421 738 421 738 438 727 c 128,-1,75
 455 716 455 716 469 709 c 1,76,-1
 602 654 l 1,77,78
 617 665 617 665 628.5 681.5 c 128,-1,79
 640 698 640 698 640 724 c 0,80,81
 640 761 640 761 614 785 c 128,-1,82
 588 809 588 809 553 823 c 2,83,-1
 392 888 l 1,84,85
 382 877 382 877 375.5 862 c 128,-1,86
 369 847 369 847 369 827 c 0,71,72
EndSplineSet
EndChar

StartChar: greater
Encoding: 62 62 149
Width: 966
Flags: W
DStem2: 156 1064 170 803 0.913812 -0.406138<118.796 610.528>
LayerCount: 2
Fore
SplineSet
158 89 m 1,0,-1
 144 432 l 1,1,-1
 621 607 l 1,2,-1
 170 803 l 1,3,-1
 156 1064 l 1,4,-1
 966 704 l 1,5,-1
 966 439 l 1,6,-1
 158 89 l 1,0,-1
EndSplineSet
EndChar

StartChar: less
Encoding: 60 60 150
Width: 966
Flags: W
DStem2: 0 704 345 607 0.913812 0.406138<275.87 767.602>
LayerCount: 2
Fore
SplineSet
0 439 m 1,0,-1
 0 704 l 1,1,-1
 810 1064 l 1,2,-1
 796 803 l 1,3,-1
 345 607 l 1,4,-1
 822 432 l 1,5,-1
 808 89 l 1,6,-1
 0 439 l 1,0,-1
EndSplineSet
EndChar

StartChar: guilsinglleft
Encoding: 8249 8249 151
Width: 796
Flags: W
VStem: 0 652
DStem2: 0 704 245 607 0.853941 0.52037<158.74 601.695>
LayerCount: 2
Fore
SplineSet
0 439 m 1,0,-1
 0 704 l 1,1,-1
 640 1094 l 1,2,-1
 626 833 l 1,3,-1
 245 607 l 1,4,-1
 652 402 l 1,5,-1
 638 59 l 1,6,-1
 0 439 l 1,0,-1
EndSplineSet
EndChar

StartChar: guilsinglright
Encoding: 8250 8250 152
Width: 796
Flags: W
VStem: 144 652
DStem2: 156 1094 170 833 0.853941 -0.52037<147.772 590.727>
LayerCount: 2
Fore
SplineSet
158 59 m 1,0,-1
 144 402 l 1,1,-1
 551 607 l 1,2,-1
 170 833 l 1,3,-1
 156 1094 l 1,4,-1
 796 704 l 1,5,-1
 796 439 l 1,6,-1
 158 59 l 1,0,-1
EndSplineSet
EndChar

StartChar: trademark
Encoding: 8482 8482 153
Width: 1890
Flags: W
HStem: 1215 176<115 316 525 723>
VStem: 316 209<548 1215> 866 172<548 1104> 1514 216<548 1100>
DStem2: 1171 1389 1038 1104 0.302019 -0.953302<231.522 520.189> 1312 888 1514 1100 0.286878 0.957967<0 261.038>
LayerCount: 2
Fore
SplineSet
98 1215 m 1,0,-1
 115 1391 l 1,1,-1
 741 1391 l 1,2,-1
 723 1215 l 1,3,-1
 525 1215 l 1,4,-1
 525 548 l 1,5,-1
 316 531 l 1,6,-1
 316 1215 l 1,7,-1
 98 1215 l 1,0,-1
1038 1104 m 1,8,-1
 1038 548 l 1,9,-1
 866 539 l 1,10,-1
 866 1381 l 1,11,-1
 1171 1389 l 1,12,-1
 1312 888 l 1,13,-1
 1452 1364 l 1,14,-1
 1730 1382 l 1,15,-1
 1730 548 l 1,16,-1
 1514 531 l 1,17,-1
 1514 1100 l 1,18,-1
 1346 539 l 1,19,-1
 1217 539 l 1,20,-1
 1038 1104 l 1,8,-1
EndSplineSet
EndChar

StartChar: emdash
Encoding: 8212 8212 154
Width: 1475
Flags: W
HStem: 480 238<162 1314>
LayerCount: 2
Fore
SplineSet
162 718 m 1,0,-1
 1314 718 l 1,1,-1
 1314 480 l 1,2,-1
 162 480 l 1,3,-1
 162 718 l 1,0,-1
EndSplineSet
EndChar

StartChar: endash
Encoding: 8211 8211 155
Width: 898
Flags: W
HStem: 480 238<162 738>
VStem: 162 576<480 718>
LayerCount: 2
Fore
SplineSet
162 718 m 1,0,-1
 738 718 l 1,1,-1
 738 480 l 1,2,-1
 162 480 l 1,3,-1
 162 718 l 1,0,-1
EndSplineSet
EndChar

StartChar: onesuperior
Encoding: 185 185 156
Width: 725
Flags: W
HStem: 576 192<76 255 495 670> 1516 20G<361.707 495>
VStem: 255 240<768 1206>
LayerCount: 2
Fore
SplineSet
76 768 m 1,0,-1
 255 768 l 1,1,-1
 255 1206 l 1,2,3
 224 1202 224 1202 193 1198 c 0,4,5
 167 1195 167 1195 138 1192.5 c 128,-1,6
 109 1190 109 1190 89 1190 c 2,7,-1
 63 1190 l 1,8,-1
 63 1331 l 1,9,-1
 394 1536 l 1,10,-1
 495 1536 l 1,11,-1
 495 768 l 1,12,-1
 682 768 l 1,13,-1
 670 576 l 1,14,-1
 76 576 l 1,15,-1
 76 768 l 1,0,-1
EndSplineSet
EndChar

StartChar: underscore
Encoding: 95 95 157
Width: 898
Flags: W
HStem: -238 238<162 738>
VStem: 162 576<-238 0>
LayerCount: 2
Fore
SplineSet
162 0 m 1,0,-1
 738 0 l 1,1,-1
 738 -238 l 1,2,-1
 162 -238 l 1,3,-1
 162 0 l 1,0,-1
EndSplineSet
EndChar

StartChar: asciicircum
Encoding: 94 94 158
Width: 1032
Flags: W
LayerCount: 2
Fore
SplineSet
1002 644 m 1,0,-1
 659 636 l 1,1,-1
 484 1119 l 1,2,-1
 288 644 l 1,3,-1
 27 642 l 1,4,-1
 387 1440 l 1,5,-1
 652 1440 l 1,6,-1
 1002 644 l 1,0,-1
EndSplineSet
EndChar

StartChar: twosuperior
Encoding: 178 178 159
Width: 855
Flags: W
HStem: 576 192<411 699> 1378 190<360.159 464.565>
VStem: 477 285<1138.47 1362.21>
LayerCount: 2
Fore
SplineSet
95 1321 m 1,0,1
 107 1370 107 1370 136.5 1415 c 128,-1,2
 166 1460 166 1460 210.5 1494 c 128,-1,3
 255 1528 255 1528 313.5 1548 c 128,-1,4
 372 1568 372 1568 442 1568 c 0,5,6
 507 1568 507 1568 565 1552 c 128,-1,7
 623 1536 623 1536 667 1502 c 128,-1,8
 711 1468 711 1468 736.5 1414 c 128,-1,9
 762 1360 762 1360 762 1284 c 0,10,11
 762 1215 762 1215 729 1144.5 c 128,-1,12
 696 1074 696 1074 645 1007.5 c 128,-1,13
 594 941 594 941 532 880 c 128,-1,14
 470 819 470 819 411 768 c 1,15,-1
 715 768 l 1,16,17
 715 739 715 739 712.5 716.5 c 128,-1,18
 710 694 710 694 707 672 c 128,-1,19
 704 650 704 650 701.5 627.5 c 128,-1,20
 699 605 699 605 699 576 c 1,21,-1
 95 576 l 1,22,-1
 95 749 l 1,23,24
 132 791 132 791 174.5 835 c 128,-1,25
 217 879 217 879 259.5 923.5 c 128,-1,26
 302 968 302 968 341.5 1013 c 128,-1,27
 381 1058 381 1058 411 1103.5 c 128,-1,28
 441 1149 441 1149 459 1194.5 c 128,-1,29
 477 1240 477 1240 477 1286 c 0,30,31
 477 1324 477 1324 461.5 1351 c 128,-1,32
 446 1378 446 1378 416 1378 c 0,33,34
 390 1378 390 1378 374 1356.5 c 128,-1,35
 358 1335 358 1335 349 1309 c 0,36,37
 338 1279 338 1279 334 1241 c 1,38,-1
 95 1321 l 1,0,1
EndSplineSet
EndChar

StartChar: threesuperior
Encoding: 179 179 160
Width: 841
Flags: W
HStem: 528 194<284.641 459.25> 971 193<272 436.133> 1381 186<311.5 446.623>
VStem: 478 273<739.092 933.668 1205.56 1357.51>
LayerCount: 2
Fore
SplineSet
83 1372 m 1,0,1
 113 1424 113 1424 146 1461 c 128,-1,2
 179 1498 179 1498 217 1521.5 c 128,-1,3
 255 1545 255 1545 300 1556 c 128,-1,4
 345 1567 345 1567 400 1567 c 0,5,6
 464 1567 464 1567 524.5 1551 c 128,-1,7
 585 1535 585 1535 632 1503 c 128,-1,8
 679 1471 679 1471 708 1424 c 128,-1,9
 737 1377 737 1377 737 1315 c 0,10,11
 737 1293 737 1293 732 1263 c 128,-1,12
 727 1233 727 1233 708 1200.5 c 128,-1,13
 689 1168 689 1168 651.5 1136 c 128,-1,14
 614 1104 614 1104 550 1079 c 1,15,16
 646 1049 646 1049 698.5 990 c 128,-1,17
 751 931 751 931 751 830 c 0,18,19
 751 757 751 757 721.5 700.5 c 128,-1,20
 692 644 692 644 642.5 606 c 128,-1,21
 593 568 593 568 527 548 c 128,-1,22
 461 528 461 528 388 528 c 0,23,24
 329 528 329 528 274 542 c 128,-1,25
 219 556 219 556 173.5 584 c 128,-1,26
 128 612 128 612 94.5 654.5 c 128,-1,27
 61 697 61 697 46 754 c 1,28,-1
 261 817 l 1,29,30
 267 798 267 798 276 781 c 128,-1,31
 285 764 285 764 298 751 c 128,-1,32
 311 738 311 738 329.5 730 c 128,-1,33
 348 722 348 722 375 722 c 0,34,35
 399 722 399 722 418 730.5 c 128,-1,36
 437 739 437 739 450.5 754 c 128,-1,37
 464 769 464 769 471 788 c 128,-1,38
 478 807 478 807 478 828 c 0,39,40
 478 874 478 874 461.5 902 c 128,-1,41
 445 930 445 930 417 945.5 c 128,-1,42
 389 961 389 961 351.5 966 c 128,-1,43
 314 971 314 971 272 971 c 1,44,-1
 272 1164 l 1,45,46
 311 1164 311 1164 346 1169 c 128,-1,47
 381 1174 381 1174 407.5 1187.5 c 128,-1,48
 434 1201 434 1201 449 1225.5 c 128,-1,49
 464 1250 464 1250 464 1289 c 0,50,51
 464 1325 464 1325 442.5 1353 c 128,-1,52
 421 1381 421 1381 378 1381 c 0,53,54
 355 1381 355 1381 339 1367.5 c 128,-1,55
 323 1354 323 1354 312 1337 c 0,56,57
 299 1318 299 1318 290 1294 c 1,58,-1
 83 1372 l 1,0,1
EndSplineSet
EndChar

StartChar: onehalf
Encoding: 189 189 161
Width: 1964
Flags: W
HStem: 0 192<1560 1848> 576 192<55 234 474 649> 802 190<1509.16 1613.56> 1516 20G<340.707 474 1030 1323>
VStem: 234 240<768 1206> 651 288<0 288> 1035 288<1248 1536> 1626 285<562.473 786.214>
DStem2: 651 0 939 0 0.242536 0.970143<69.8503 1583.27>
LayerCount: 2
Fore
SplineSet
1035 1536 m 1,0,-1
 1323 1536 l 1,1,-1
 939 0 l 1,2,-1
 651 0 l 1,3,-1
 1035 1536 l 1,0,-1
55 768 m 1,4,-1
 234 768 l 1,5,-1
 234 1206 l 1,6,7
 203 1202 203 1202 172 1198 c 0,8,9
 146 1195 146 1195 117 1192.5 c 128,-1,10
 88 1190 88 1190 68 1190 c 2,11,-1
 42 1190 l 1,12,-1
 42 1331 l 1,13,-1
 373 1536 l 1,14,-1
 474 1536 l 1,15,-1
 474 768 l 1,16,-1
 661 768 l 1,17,-1
 649 576 l 1,18,-1
 55 576 l 1,19,-1
 55 768 l 1,4,-1
1244 745 m 1,20,21
 1256 794 1256 794 1285.5 839 c 128,-1,22
 1315 884 1315 884 1359.5 918 c 128,-1,23
 1404 952 1404 952 1462.5 972 c 128,-1,24
 1521 992 1521 992 1591 992 c 0,25,26
 1656 992 1656 992 1714 976 c 128,-1,27
 1772 960 1772 960 1816 926 c 128,-1,28
 1860 892 1860 892 1885.5 838 c 128,-1,29
 1911 784 1911 784 1911 708 c 0,30,31
 1911 639 1911 639 1878 568.5 c 128,-1,32
 1845 498 1845 498 1794 431.5 c 128,-1,33
 1743 365 1743 365 1681 304 c 128,-1,34
 1619 243 1619 243 1560 192 c 1,35,-1
 1864 192 l 1,36,37
 1864 163 1864 163 1861.5 140.5 c 128,-1,38
 1859 118 1859 118 1856 96 c 128,-1,39
 1853 74 1853 74 1850.5 51.5 c 128,-1,40
 1848 29 1848 29 1848 0 c 1,41,-1
 1244 0 l 1,42,-1
 1244 173 l 1,43,44
 1281 215 1281 215 1323.5 259 c 128,-1,45
 1366 303 1366 303 1408.5 347.5 c 128,-1,46
 1451 392 1451 392 1490.5 437 c 128,-1,47
 1530 482 1530 482 1560 527.5 c 128,-1,48
 1590 573 1590 573 1608 618.5 c 128,-1,49
 1626 664 1626 664 1626 710 c 0,50,51
 1626 748 1626 748 1610.5 775 c 128,-1,52
 1595 802 1595 802 1565 802 c 0,53,54
 1539 802 1539 802 1523 780.5 c 128,-1,55
 1507 759 1507 759 1498 733 c 0,56,57
 1487 703 1487 703 1483 665 c 1,58,-1
 1244 745 l 1,20,21
EndSplineSet
EndChar

StartChar: onequarter
Encoding: 188 188 162
Width: 1934
Flags: W
HStem: 0 21G<640 933> 192 178<1327 1532 1780 1889> 576 192<44 223 463 638> 1516 20G<329.707 463 1019 1312>
VStem: 223 240<768 1206> 640 288<0 288> 1024 288<1248 1536> 1532 248<-32 192 370 711>
DStem2: 640 0 928 0 0.242536 0.970143<69.8503 1583.27> 1142 360 1327 370 0.506015 0.862525<102.238 500.092>
LayerCount: 2
Fore
SplineSet
1024 1536 m 1,0,-1
 1312 1536 l 1,1,-1
 928 0 l 1,2,-1
 640 0 l 1,3,-1
 1024 1536 l 1,0,-1
44 768 m 1,4,-1
 223 768 l 1,5,-1
 223 1206 l 1,6,7
 192 1202 192 1202 161 1198 c 0,8,9
 135 1195 135 1195 106 1192.5 c 128,-1,10
 77 1190 77 1190 57 1190 c 2,11,-1
 31 1190 l 1,12,-1
 31 1331 l 1,13,-1
 362 1536 l 1,14,-1
 463 1536 l 1,15,-1
 463 768 l 1,16,-1
 650 768 l 1,17,-1
 638 576 l 1,18,-1
 44 576 l 1,19,-1
 44 768 l 1,4,-1
1532 192 m 1,20,-1
 1142 192 l 1,21,-1
 1142 360 l 1,22,-1
 1494 960 l 1,23,-1
 1780 960 l 1,24,-1
 1780 370 l 1,25,-1
 1905 370 l 1,26,-1
 1889 192 l 1,27,-1
 1780 192 l 1,28,-1
 1780 -32 l 1,29,-1
 1532 -48 l 1,30,-1
 1532 192 l 1,20,-1
1532 370 m 1,31,-1
 1532 711 l 1,32,-1
 1327 370 l 1,33,-1
 1532 370 l 1,31,-1
EndSplineSet
EndChar

StartChar: foursuperior
Encoding: 8308 8308 163
Width: 815
Flags: W
HStem: 768 178<189 394 642 751> 1516 20G<344.267 642>
VStem: 394 248<544 768 946 1287>
DStem2: 4 936 189 946 0.506015 0.862525<102.238 500.092>
LayerCount: 2
Fore
SplineSet
394 768 m 1,0,-1
 4 768 l 1,1,-1
 4 936 l 1,2,-1
 356 1536 l 1,3,-1
 642 1536 l 1,4,-1
 642 946 l 1,5,-1
 767 946 l 1,6,-1
 751 768 l 1,7,-1
 642 768 l 1,8,-1
 642 544 l 1,9,-1
 394 528 l 1,10,-1
 394 768 l 1,0,-1
394 946 m 1,11,-1
 394 1287 l 1,12,-1
 189 946 l 1,13,-1
 394 946 l 1,11,-1
EndSplineSet
EndChar

StartChar: threequarters
Encoding: 190 190 164
Width: 1955
Flags: W
HStem: 0 21G<649 942> 192 178<1336 1541 1789 1898> 528 194<261.641 436.25> 971 193<249 413.133> 1381 186<288.5 423.623> 1516 20G<1028 1321>
VStem: 455 273<739.092 933.668 1205.56 1357.51> 649 288<0 288> 1033 288<1248 1536> 1541 248<-32 192 370 711>
DStem2: 649 0 937 0 0.242536 0.970143<69.8503 1583.27> 1151 360 1336 370 0.506015 0.862525<102.238 500.092>
LayerCount: 2
Fore
SplineSet
1033 1536 m 1,0,-1
 1321 1536 l 1,1,-1
 937 0 l 1,2,-1
 649 0 l 1,3,-1
 1033 1536 l 1,0,-1
60 1372 m 1,4,5
 90 1424 90 1424 123 1461 c 128,-1,6
 156 1498 156 1498 194 1521.5 c 128,-1,7
 232 1545 232 1545 277 1556 c 128,-1,8
 322 1567 322 1567 377 1567 c 0,9,10
 441 1567 441 1567 501.5 1551 c 128,-1,11
 562 1535 562 1535 609 1503 c 128,-1,12
 656 1471 656 1471 685 1424 c 128,-1,13
 714 1377 714 1377 714 1315 c 0,14,15
 714 1293 714 1293 709 1263 c 128,-1,16
 704 1233 704 1233 685 1200.5 c 128,-1,17
 666 1168 666 1168 628.5 1136 c 128,-1,18
 591 1104 591 1104 527 1079 c 1,19,20
 623 1049 623 1049 675.5 990 c 128,-1,21
 728 931 728 931 728 830 c 0,22,23
 728 757 728 757 698.5 700.5 c 128,-1,24
 669 644 669 644 619.5 606 c 128,-1,25
 570 568 570 568 504 548 c 128,-1,26
 438 528 438 528 365 528 c 0,27,28
 306 528 306 528 251 542 c 128,-1,29
 196 556 196 556 150.5 584 c 128,-1,30
 105 612 105 612 71.5 654.5 c 128,-1,31
 38 697 38 697 23 754 c 1,32,-1
 238 817 l 1,33,34
 244 798 244 798 253 781 c 128,-1,35
 262 764 262 764 275 751 c 128,-1,36
 288 738 288 738 306.5 730 c 128,-1,37
 325 722 325 722 352 722 c 0,38,39
 376 722 376 722 395 730.5 c 128,-1,40
 414 739 414 739 427.5 754 c 128,-1,41
 441 769 441 769 448 788 c 128,-1,42
 455 807 455 807 455 828 c 0,43,44
 455 874 455 874 438.5 902 c 128,-1,45
 422 930 422 930 394 945.5 c 128,-1,46
 366 961 366 961 328.5 966 c 128,-1,47
 291 971 291 971 249 971 c 1,48,-1
 249 1164 l 1,49,50
 288 1164 288 1164 323 1169 c 128,-1,51
 358 1174 358 1174 384.5 1187.5 c 128,-1,52
 411 1201 411 1201 426 1225.5 c 128,-1,53
 441 1250 441 1250 441 1289 c 0,54,55
 441 1325 441 1325 419.5 1353 c 128,-1,56
 398 1381 398 1381 355 1381 c 0,57,58
 332 1381 332 1381 316 1367.5 c 128,-1,59
 300 1354 300 1354 289 1337 c 0,60,61
 276 1318 276 1318 267 1294 c 1,62,-1
 60 1372 l 1,4,5
1541 192 m 1,63,-1
 1151 192 l 1,64,-1
 1151 360 l 1,65,-1
 1503 960 l 1,66,-1
 1789 960 l 1,67,-1
 1789 370 l 1,68,-1
 1914 370 l 1,69,-1
 1898 192 l 1,70,-1
 1789 192 l 1,71,-1
 1789 -32 l 1,72,-1
 1541 -48 l 1,73,-1
 1541 192 l 1,63,-1
1541 370 m 1,74,-1
 1541 711 l 1,75,-1
 1336 370 l 1,76,-1
 1541 370 l 1,74,-1
EndSplineSet
EndChar

StartChar: oslash
Encoding: 248 248 167
Width: 1099
Flags: W
HStem: -27 214<460.416 629.314> 964 203<460.654 630.791>
VStem: 115 288<427.614 873.158> 690 289<275.254 620>
DStem2: 100 37 177 -31 0.618913 0.78546<0 141.679 495.55 823.082 1234.75 1369.24>
LayerCount: 2
Fore
SplineSet
547 -27 m 0,0,1
 459 -27 459 -27 390 2 c 128,-1,2
 321 31 321 31 268 85 c 1,3,-1
 177 -31 l 1,4,-1
 100 37 l 1,5,-1
 205 170 l 1,6,7
 160 248 160 248 137.5 351 c 128,-1,8
 115 454 115 454 115 577 c 0,9,10
 115 706 115 706 142 814.5 c 128,-1,11
 169 923 169 923 223 1001.5 c 128,-1,12
 277 1080 277 1080 358 1123.5 c 128,-1,13
 439 1167 439 1167 547 1167 c 0,14,15
 651 1167 651 1167 730 1125 c 128,-1,16
 809 1083 809 1083 864 1007 c 1,17,-1
 951 1117 l 1,18,-1
 1028 1049 l 1,19,-1
 918 910 l 1,20,21
 979 770 979 770 979 577 c 0,22,23
 979 443 979 443 951 332 c 128,-1,24
 923 221 923 221 868.5 141.5 c 128,-1,25
 814 62 814 62 733 17.5 c 128,-1,26
 652 -27 652 -27 547 -27 c 0,0,1
403 577 m 0,27,28
 403 544 403 544 403.5 505 c 128,-1,29
 404 466 404 466 407 426 c 1,30,-1
 680 773 l 1,31,32
 675 811 675 811 665 845.5 c 128,-1,33
 655 880 655 880 639.5 906.5 c 128,-1,34
 624 933 624 933 601 948.5 c 128,-1,35
 578 964 578 964 546 964 c 0,36,37
 510 964 510 964 485.5 945 c 128,-1,38
 461 926 461 926 445 894.5 c 128,-1,39
 429 863 429 863 420.5 822.5 c 128,-1,40
 412 782 412 782 408 739 c 128,-1,41
 404 696 404 696 403.5 654 c 128,-1,42
 403 612 403 612 403 577 c 0,27,28
545 187 m 0,43,44
 580 187 580 187 605 206 c 128,-1,45
 630 225 630 225 646 256.5 c 128,-1,46
 662 288 662 288 671 328.5 c 128,-1,47
 680 369 680 369 684 412.5 c 128,-1,48
 688 456 688 456 689 498.5 c 128,-1,49
 690 541 690 541 690 577 c 2,50,-1
 690 620 l 1,51,-1
 430 290 l 1,52,53
 445 245 445 245 472.5 216 c 128,-1,54
 500 187 500 187 545 187 c 0,43,44
EndSplineSet
EndChar

StartChar: Oslash
Encoding: 216 216 168
Width: 1234
Flags: W
HStem: -32 255<510.772 704.868> 1329 239<519.813 699.374>
VStem: 134 299<635.562 1197.49> 787 300<372.555 850.375>
DStem2: 76 198 171 106 0.635884 0.771784<0 102.334 564.78 957.633 1449.91 1571.45>
LayerCount: 2
Fore
SplineSet
609 -32 m 0,0,1
 541 -32 541 -32 485.5 -16 c 128,-1,2
 430 0 430 0 385 29 c 128,-1,3
 340 58 340 58 305 100 c 128,-1,4
 270 142 270 142 243 193 c 1,5,-1
 171 106 l 1,6,-1
 76 198 l 1,7,-1
 188 334 l 1,8,9
 157 442 157 442 145.5 565.5 c 128,-1,10
 134 689 134 689 134 820 c 0,11,12
 134 989 134 989 161.5 1127 c 128,-1,13
 189 1265 189 1265 247 1363 c 128,-1,14
 305 1461 305 1461 394.5 1514.5 c 128,-1,15
 484 1568 484 1568 609 1568 c 0,16,17
 748 1568 748 1568 844.5 1502 c 128,-1,18
 941 1436 941 1436 998 1317 c 1,19,-1
 1082 1419 l 1,20,-1
 1177 1327 l 1,21,-1
 1049 1171 l 1,22,23
 1087 1016 1087 1016 1087 820 c 0,24,25
 1087 712 1087 712 1079 607 c 128,-1,26
 1071 502 1071 502 1050.5 407.5 c 128,-1,27
 1030 313 1030 313 995.5 232.5 c 128,-1,28
 961 152 961 152 908 93 c 128,-1,29
 855 34 855 34 781 1 c 128,-1,30
 707 -32 707 -32 609 -32 c 0,0,1
433 820 m 0,31,32
 433 769 433 769 433 723 c 128,-1,33
 433 677 433 677 435 634 c 1,34,-1
 776 1048 l 1,35,36
 770 1103 770 1103 758 1153.5 c 128,-1,37
 746 1204 746 1204 726.5 1243 c 128,-1,38
 707 1282 707 1282 678 1305.5 c 128,-1,39
 649 1329 649 1329 609 1329 c 0,40,41
 568 1329 568 1329 539 1304.5 c 128,-1,42
 510 1280 510 1280 490.5 1239.5 c 128,-1,43
 471 1199 471 1199 459.5 1146 c 128,-1,44
 448 1093 448 1093 442 1036.5 c 128,-1,45
 436 980 436 980 434.5 924 c 128,-1,46
 433 868 433 868 433 820 c 0,31,32
609 223 m 0,47,48
 669 223 669 223 704.5 264.5 c 128,-1,49
 740 306 740 306 758.5 383.5 c 128,-1,50
 777 461 777 461 782 571.5 c 128,-1,51
 787 682 787 682 787 820 c 2,52,-1
 787 853 l 1,53,-1
 450 444 l 1,54,55
 465 338 465 338 501.5 280.5 c 128,-1,56
 538 223 538 223 609 223 c 0,47,48
EndSplineSet
EndChar

StartChar: Thorn
Encoding: 222 222 169
Width: 1070
Flags: W
HStem: 265 223<464 693.836> 937 230<464 707.212> 1516 20G<162 464>
VStem: 162 302<-68 265 488 937 1167 1536> 771 299<563.032 874.415>
LayerCount: 2
Fore
SplineSet
162 1536 m 1,0,-1
 464 1536 l 1,1,-1
 464 1167 l 1,2,3
 536 1166 536 1166 608.5 1161 c 128,-1,4
 681 1156 681 1156 748.5 1140.5 c 128,-1,5
 816 1125 816 1125 874.5 1095 c 128,-1,6
 933 1065 933 1065 976.5 1015.5 c 128,-1,7
 1020 966 1020 966 1045 892.5 c 128,-1,8
 1070 819 1070 819 1070 716 c 256,9,10
 1070 613 1070 613 1044 539.5 c 128,-1,11
 1018 466 1018 466 973 416 c 128,-1,12
 928 366 928 366 868.5 336 c 128,-1,13
 809 306 809 306 741 290.5 c 128,-1,14
 673 275 673 275 601.5 270 c 128,-1,15
 530 265 530 265 462 265 c 1,16,-1
 462 -68 l 1,17,-1
 162 -92 l 1,18,-1
 162 1536 l 1,0,-1
515 488 m 2,19,20
 567 488 567 488 613.5 497.5 c 128,-1,21
 660 507 660 507 695 532.5 c 128,-1,22
 730 558 730 558 750.5 603 c 128,-1,23
 771 648 771 648 771 718 c 0,24,25
 771 787 771 787 753.5 830 c 128,-1,26
 736 873 736 873 702 896.5 c 128,-1,27
 668 920 668 920 619 928.5 c 128,-1,28
 570 937 570 937 507 937 c 2,29,-1
 464 937 l 1,30,-1
 464 488 l 1,31,-1
 515 488 l 2,19,20
EndSplineSet
EndChar

StartChar: AE
Encoding: 198 198 170
Width: 1691
Flags: W
HStem: 0 240<1126 1528> 329 246<571 807> 672 258<1126 1378> 1296 240<1126 1512>
VStem: 807 319<240 329 575 672 930 1033.13> 830 296<930 1296>
DStem2: 15 0 342 0 0.399234 0.916849<130.55 484.093 749.162 897.95>
LayerCount: 2
Fore
SplineSet
791 0 m 1,0,-1
 807 329 l 1,1,-1
 472 329 l 1,2,-1
 342 0 l 1,3,-1
 15 0 l 1,4,-1
 676 1518 l 1,5,-1
 880 1536 l 1,6,-1
 1536 1536 l 1,7,-1
 1512 1296 l 1,8,-1
 1126 1296 l 1,9,-1
 1126 930 l 1,10,-1
 1379 930 l 1,11,-1
 1378 672 l 1,12,-1
 1126 672 l 1,13,-1
 1126 240 l 1,14,-1
 1552 240 l 1,15,-1
 1528 0 l 1,16,-1
 791 0 l 1,0,-1
808 575 m 1,17,-1
 830 1310 l 1,18,-1
 571 575 l 1,19,-1
 808 575 l 1,17,-1
EndSplineSet
EndChar

StartChar: Lslash
Encoding: 321 321 171
Width: 1029
Flags: W
HStem: 0 240<504 976> 672 238<47 285> 768 238<481 719> 1516 20G<254.833 504>
VStem: 205 299<240 1512>
DStem2: 47 910 47 672 0.989949 0.141421<0 645.164>
LayerCount: 2
Fore
SplineSet
47 910 m 1,0,-1
 719 1006 l 1,1,-1
 719 768 l 1,2,-1
 47 672 l 1,3,-1
 47 910 l 1,0,-1
504 1536 m 1,4,-1
 504 240 l 1,5,-1
 1024 240 l 1,6,-1
 976 0 l 1,7,-1
 205 0 l 1,8,-1
 205 1512 l 1,9,-1
 504 1536 l 1,4,-1
EndSplineSet
EndChar

StartChar: lslash
Encoding: 322 322 172
Width: 607
Flags: W
HStem: -12 21G<165 405> 576 238<8 246> 722 238<346 584> 1516 20G<293 453>
VStem: 165 288<12 1500>
DStem2: 8 814 8 576 0.969345 0.245702<0 535.738>
LayerCount: 2
Fore
SplineSet
8 814 m 1,0,-1
 584 960 l 1,1,-1
 584 722 l 1,2,-1
 8 576 l 1,3,-1
 8 814 l 1,0,-1
165 1500 m 1,4,-1
 453 1536 l 1,5,-1
 453 12 l 1,6,-1
 165 -12 l 1,7,-1
 165 1500 l 1,4,-1
EndSplineSet
EndChar

StartChar: Euro
Encoding: 8364 8364 173
Width: 1132
Flags: W
HStem: -32 257<539.876 737.635> 576 144<36 142 449 900> 816 144<36 141 446 900> 1328 240<529.048 702.723>
VStem: 141 300<385.842 576 720 816 960 1145.38> 764 291<1074 1259.92> 802 255<297.461 443>
LayerCount: 2
Fore
SplineSet
36 960 m 1,0,-1
 150 960 l 1,1,2
 163 1074 163 1074 196 1183 c 128,-1,3
 229 1292 229 1292 287 1377.5 c 128,-1,4
 345 1463 345 1463 429 1515.5 c 128,-1,5
 513 1568 513 1568 628 1568 c 0,6,7
 695 1568 695 1568 753 1548 c 128,-1,8
 811 1528 811 1528 858.5 1493.5 c 128,-1,9
 906 1459 906 1459 942.5 1411.5 c 128,-1,10
 979 1364 979 1364 1004 1309 c 128,-1,11
 1029 1254 1029 1254 1042 1194 c 128,-1,12
 1055 1134 1055 1134 1055 1074 c 1,13,-1
 765 1059 l 1,14,15
 765 1065 765 1065 764 1087.5 c 128,-1,16
 763 1110 763 1110 758 1140 c 128,-1,17
 753 1170 753 1170 743.5 1203 c 128,-1,18
 734 1236 734 1236 717 1264 c 128,-1,19
 700 1292 700 1292 674 1310 c 128,-1,20
 648 1328 648 1328 611 1328 c 0,21,22
 569 1328 569 1328 539.5 1297 c 128,-1,23
 510 1266 510 1266 491 1214.5 c 128,-1,24
 472 1163 472 1163 461 1096.5 c 128,-1,25
 450 1030 450 1030 446 960 c 1,26,-1
 900 960 l 1,27,-1
 900 816 l 1,28,-1
 441 816 l 1,29,-1
 441 800 l 2,30,31
 441 780 441 780 441 760 c 128,-1,32
 441 740 441 740 442 720 c 1,33,-1
 900 720 l 1,34,-1
 900 576 l 1,35,-1
 449 576 l 1,36,37
 455 502 455 502 467.5 438 c 128,-1,38
 480 374 480 374 502.5 326.5 c 128,-1,39
 525 279 525 279 558.5 252 c 128,-1,40
 592 225 592 225 640 225 c 0,41,42
 687 225 687 225 716.5 248.5 c 128,-1,43
 746 272 746 272 764 308 c 128,-1,44
 782 344 782 344 790 386.5 c 128,-1,45
 798 429 798 429 802 467 c 1,46,-1
 1057 443 l 1,47,48
 1057 351 1057 351 1030.5 265 c 128,-1,49
 1004 179 1004 179 950 113 c 128,-1,50
 896 47 896 47 814 7.5 c 128,-1,51
 732 -32 732 -32 621 -32 c 0,52,53
 543 -32 543 -32 480 -9 c 128,-1,54
 417 14 417 14 368 55 c 128,-1,55
 319 96 319 96 282.5 153 c 128,-1,56
 246 210 246 210 220 277.5 c 128,-1,57
 194 345 194 345 177.5 421 c 128,-1,58
 161 497 161 497 152 576 c 1,59,-1
 36 576 l 1,60,-1
 36 720 l 1,61,-1
 142 720 l 1,62,63
 141 740 141 740 141 760 c 128,-1,64
 141 780 141 780 141 800 c 2,65,-1
 141 816 l 1,66,-1
 36 816 l 1,67,-1
 36 960 l 1,0,-1
EndSplineSet
EndChar

StartChar: thorn
Encoding: 254 254 174
Width: 1029
Flags: W
HStem: -358 21G<162 451> -27 206<536.862 736.5> 922 245<595.008 748> 1516 20G<290 450>
VStem: 162 288<-358 144 238.458 868.675 1005 1500> 740 288<242.547 893.846>
LayerCount: 2
Fore
SplineSet
162 -358 m 1,0,-1
 162 1500 l 1,1,-1
 450 1536 l 1,2,-1
 450 1005 l 1,3,4
 483 1041 483 1041 520 1071 c 128,-1,5
 557 1101 557 1101 595 1122 c 128,-1,6
 633 1143 633 1143 672 1155 c 128,-1,7
 711 1167 711 1167 748 1167 c 0,8,9
 805 1167 805 1167 856 1136 c 128,-1,10
 907 1105 907 1105 945 1035.5 c 128,-1,11
 983 966 983 966 1005.5 853 c 128,-1,12
 1028 740 1028 740 1028 576 c 0,13,14
 1028 420 1028 420 1006 306.5 c 128,-1,15
 984 193 984 193 941.5 118.5 c 128,-1,16
 899 44 899 44 837.5 8.5 c 128,-1,17
 776 -27 776 -27 697 -27 c 0,18,19
 657 -27 657 -27 625.5 -20 c 128,-1,20
 594 -13 594 -13 569 -1 c 128,-1,21
 544 11 544 11 525.5 26.5 c 128,-1,22
 507 42 507 42 494 58 c 0,23,24
 463 96 463 96 450 144 c 1,25,-1
 451 -358 l 1,26,-1
 162 -358 l 1,0,-1
450 480 m 2,27,28
 450 390 450 390 462 331.5 c 128,-1,29
 474 273 474 273 494 239.5 c 128,-1,30
 514 206 514 206 539 192.5 c 128,-1,31
 564 179 564 179 590 179 c 0,32,33
 643 179 643 179 673 211 c 128,-1,34
 703 243 703 243 718 297.5 c 128,-1,35
 733 352 733 352 736.5 424 c 128,-1,36
 740 496 740 496 740 576 c 0,37,38
 740 649 740 649 737.5 712 c 128,-1,39
 735 775 735 775 725.5 821.5 c 128,-1,40
 716 868 716 868 696 895 c 128,-1,41
 676 922 676 922 640 922 c 0,42,43
 614 922 614 922 581 909.5 c 128,-1,44
 548 897 548 897 519 882 c 0,45,46
 485 864 485 864 450 843 c 1,47,-1
 450 480 l 2,27,28
EndSplineSet
EndChar

StartChar: divide
Encoding: 247 247 175
Width: 689
Flags: W
HStem: -12 300<202 490> 384 192<10 680> 672 288<202 490>
VStem: 202 288<0 288 672 960>
LayerCount: 2
Fore
SplineSet
490 288 m 1,0,-1
 490 0 l 1,1,-1
 202 -12 l 1,2,-1
 202 288 l 1,3,-1
 490 288 l 1,0,-1
490 960 m 1,4,-1
 490 672 l 1,5,-1
 202 672 l 1,6,-1
 202 960 l 1,7,-1
 490 960 l 1,4,-1
10 576 m 1,8,-1
 680 576 l 1,9,-1
 680 384 l 1,10,-1
 10 384 l 1,11,-1
 10 576 l 1,8,-1
EndSplineSet
EndChar

StartChar: eth
Encoding: 240 240 176
Width: 1136
Flags: W
HStem: -32 262<464.154 649.75> 692 244<427 645.145> 1346 222<320.589 591.114>
VStem: 123 289<283.063 630.96> 703 293<342.637 671.244 856 1103.55>
LayerCount: 2
Fore
SplineSet
996 774 m 0,0,1
 996 680 996 680 989 583.5 c 128,-1,2
 982 487 982 487 964 397.5 c 128,-1,3
 946 308 946 308 914 229.5 c 128,-1,4
 882 151 882 151 833 93 c 128,-1,5
 784 35 784 35 714.5 1.5 c 128,-1,6
 645 -32 645 -32 551 -32 c 0,7,8
 456 -32 456 -32 377 9 c 128,-1,9
 298 50 298 50 241.5 117.5 c 128,-1,10
 185 185 185 185 154 272.5 c 128,-1,11
 123 360 123 360 123 452 c 0,12,13
 123 546 123 546 147 633 c 128,-1,14
 171 720 171 720 215.5 787.5 c 128,-1,15
 260 855 260 855 323.5 895.5 c 128,-1,16
 387 936 387 936 467 936 c 0,17,18
 529 936 529 936 592.5 913.5 c 128,-1,19
 656 891 656 891 703 856 c 1,20,21
 702 898 702 898 700 950.5 c 128,-1,22
 698 1003 698 1003 690 1057.5 c 128,-1,23
 682 1112 682 1112 667.5 1164 c 128,-1,24
 653 1216 653 1216 628 1256.5 c 128,-1,25
 603 1297 603 1297 566 1321.5 c 128,-1,26
 529 1346 529 1346 477 1346 c 0,27,28
 437 1346 437 1346 393.5 1331.5 c 128,-1,29
 350 1317 350 1317 309.5 1295.5 c 128,-1,30
 269 1274 269 1274 235 1250 c 128,-1,31
 201 1226 201 1226 180 1207 c 1,32,-1
 72 1393 l 1,33,34
 138 1448 138 1448 192.5 1482.5 c 128,-1,35
 247 1517 247 1517 299 1536 c 128,-1,36
 351 1555 351 1555 405.5 1561.5 c 128,-1,37
 460 1568 460 1568 528 1568 c 0,38,39
 612 1568 612 1568 680 1532.5 c 128,-1,40
 748 1497 748 1497 800 1436.5 c 128,-1,41
 852 1376 852 1376 889 1296.5 c 128,-1,42
 926 1217 926 1217 950 1128.5 c 128,-1,43
 974 1040 974 1040 985 948.5 c 128,-1,44
 996 857 996 857 996 774 c 0,0,1
703 608 m 0,45,46
 703 613 703 613 702.5 619.5 c 128,-1,47
 702 626 702 626 702 633 c 0,48,49
 701 641 701 641 701 649 c 1,50,51
 682 660 682 660 661 670 c 0,52,53
 643 678 643 678 619 685 c 128,-1,54
 595 692 595 692 568 692 c 0,55,56
 524 692 524 692 494 670.5 c 128,-1,57
 464 649 464 649 446 614 c 128,-1,58
 428 579 428 579 420 535 c 128,-1,59
 412 491 412 491 412 447 c 0,60,61
 412 414 412 414 418.5 376 c 128,-1,62
 425 338 425 338 442 305.5 c 128,-1,63
 459 273 459 273 488.5 251.5 c 128,-1,64
 518 230 518 230 564 230 c 0,65,66
 601 230 601 230 626 249.5 c 128,-1,67
 651 269 651 269 666.5 300.5 c 128,-1,68
 682 332 682 332 689.5 372 c 128,-1,69
 697 412 697 412 700 454 c 128,-1,70
 703 496 703 496 703 536 c 128,-1,71
 703 576 703 576 703 608 c 0,45,46
409 1202 m 1,72,-1
 1023 1391 l 1,73,-1
 1087 1210 l 1,74,-1
 473 1021 l 1,75,-1
 409 1202 l 1,72,-1
EndSplineSet
EndChar

StartChar: multiply
Encoding: 215 215 177
Width: 841
Flags: W
DStem2: 61 364 230 196 0.707107 0.707107<0.707107 265.872 503.46 768.625> 417 720 249 552 0.707107 -0.707107<-260.922 0 237.588 506.996>
LayerCount: 2
Fore
SplineSet
417 720 m 1,0,-1
 605 908 l 1,1,-1
 773 739 l 1,2,-1
 585 552 l 1,3,-1
 776 362 l 1,4,-1
 607 193 l 1,5,-1
 417 384 l 1,6,-1
 230 196 l 1,7,-1
 61 364 l 1,8,-1
 249 552 l 1,9,-1
 64 736 l 1,10,-1
 233 905 l 1,11,-1
 417 720 l 1,0,-1
EndSplineSet
EndChar

StartChar: guillemotleft
Encoding: 171 171 178
Width: 1283
Flags: W
DStem2: 34 704 229 607 0.794358 0.60745<95.9771 472.363> 610 704 805 607 0.794358 0.60745<95.9771 472.363>
LayerCount: 2
Fore
SplineSet
34 439 m 1,0,-1
 34 704 l 1,1,-1
 544 1094 l 1,2,-1
 530 833 l 1,3,-1
 229 607 l 1,4,-1
 556 402 l 1,5,-1
 542 59 l 1,6,-1
 34 439 l 1,0,-1
610 439 m 1,7,-1
 610 704 l 1,8,-1
 1120 1094 l 1,9,-1
 1106 833 l 1,10,-1
 805 607 l 1,11,-1
 1132 402 l 1,12,-1
 1118 59 l 1,13,-1
 610 439 l 1,7,-1
EndSplineSet
EndChar

StartChar: guillemotright
Encoding: 187 187 179
Width: 1283
Flags: W
DStem2: 163 1094 177 833 0.794358 -0.60745<169.665 546.051> 739 1094 753 833 0.794358 -0.60745<169.665 546.051>
LayerCount: 2
Fore
SplineSet
741 59 m 1,0,-1
 727 402 l 1,1,-1
 1054 607 l 1,2,-1
 753 833 l 1,3,-1
 739 1094 l 1,4,-1
 1249 704 l 1,5,-1
 1249 439 l 1,6,-1
 741 59 l 1,0,-1
165 59 m 1,7,-1
 151 402 l 1,8,-1
 478 607 l 1,9,-1
 177 833 l 1,10,-1
 163 1094 l 1,11,-1
 673 704 l 1,12,-1
 673 439 l 1,13,-1
 165 59 l 1,7,-1
EndSplineSet
EndChar

StartChar: asciitilde
Encoding: 126 126 180
Width: 869
Flags: W
HStem: 757 207<462.906 670.689> 878 196<211.745 412.798>
VStem: 107 638<878.452 963.66>
LayerCount: 2
Fore
SplineSet
108 932 m 1,0,1
 141 971 141 971 177 1003 c 1,2,3
 208 1029 208 1029 245.5 1051.5 c 128,-1,4
 283 1074 283 1074 321 1074 c 256,5,6
 359 1074 359 1074 390 1057 c 128,-1,7
 421 1040 421 1040 449 1019 c 128,-1,8
 477 998 477 998 504 981 c 128,-1,9
 531 964 531 964 562 964 c 0,10,11
 611 964 611 964 646 981 c 128,-1,12
 681 998 681 998 703 1019 c 0,13,14
 729 1043 729 1043 745 1074 c 1,15,-1
 745 892 l 2,16,17
 745 891 745 891 732 869.5 c 128,-1,18
 719 848 719 848 694.5 823 c 128,-1,19
 670 798 670 798 634.5 777.5 c 128,-1,20
 599 757 599 757 554 757 c 0,21,22
 520 757 520 757 491.5 776 c 128,-1,23
 463 795 463 795 434 817.5 c 128,-1,24
 405 840 405 840 373 859 c 128,-1,25
 341 878 341 878 300 878 c 0,26,27
 263 878 263 878 228.5 860.5 c 128,-1,28
 194 843 194 843 167 823 c 0,29,30
 135 798 135 798 107 768 c 1,31,-1
 108 932 l 1,0,1
EndSplineSet
EndChar

StartChar: ordfeminine
Encoding: 170 170 181
Width: 801
Flags: W
HStem: 288 152<252.5 397.305> 726 127<331.37 456> 1012 155<331.481 437.147>
VStem: 82 208<460.488 684.211> 456 212<452.518 726 848.594 997.56>
LayerCount: 2
Fore
SplineSet
82 549 m 0,0,1
 82 639 82 639 119.5 696.5 c 128,-1,2
 157 754 157 754 213.5 787.5 c 128,-1,3
 270 821 270 821 335 835 c 128,-1,4
 400 849 400 849 456 853 c 1,5,6
 456 882 456 882 455 910.5 c 128,-1,7
 454 939 454 939 448 961.5 c 128,-1,8
 442 984 442 984 429.5 998 c 128,-1,9
 417 1012 417 1012 394 1012 c 0,10,11
 375 1012 375 1012 361.5 1003.5 c 128,-1,12
 348 995 348 995 339 981.5 c 128,-1,13
 330 968 330 968 325 950.5 c 128,-1,14
 320 933 320 933 318 916 c 1,15,-1
 112 952 l 1,16,17
 120 1015 120 1015 148 1056.5 c 128,-1,18
 176 1098 176 1098 215.5 1122.5 c 128,-1,19
 255 1147 255 1147 301.5 1157 c 128,-1,20
 348 1167 348 1167 394 1167 c 0,21,22
 466 1167 466 1167 518 1147 c 128,-1,23
 570 1127 570 1127 603.5 1091.5 c 128,-1,24
 637 1056 637 1056 652.5 1008.5 c 128,-1,25
 668 961 668 961 668 907 c 2,26,-1
 668 468 l 2,27,28
 668 442 668 442 671 415.5 c 128,-1,29
 674 389 674 389 679 367 c 1,30,31
 683 341 683 341 690 317 c 1,32,-1
 484 299 l 1,33,-1
 461 403 l 1,34,35
 449 380 449 380 428.5 359.5 c 128,-1,36
 408 339 408 339 382.5 323 c 128,-1,37
 357 307 357 307 329 297.5 c 128,-1,38
 301 288 301 288 274 288 c 0,39,40
 231 288 231 288 195.5 307.5 c 128,-1,41
 160 327 160 327 135 362 c 128,-1,42
 110 397 110 397 96 445 c 128,-1,43
 82 493 82 493 82 549 c 0,0,1
290 552 m 0,44,45
 290 501 290 501 310 470.5 c 128,-1,46
 330 440 330 440 374 440 c 0,47,48
 388 440 388 440 403 447.5 c 128,-1,49
 418 455 418 455 430 465 c 0,50,51
 444 476 444 476 456 490 c 1,52,-1
 456 726 l 1,53,54
 420 726 420 726 390 717 c 128,-1,55
 360 708 360 708 337.5 687.5 c 128,-1,56
 315 667 315 667 302.5 634 c 128,-1,57
 290 601 290 601 290 552 c 0,44,45
EndSplineSet
EndChar

StartChar: germandbls
Encoding: 223 223 182
Width: 1199
Flags: W
HStem: 2 228<559 750.129> 723 208<570 663.533> 1345 222<487.779 704.9>
VStem: 143 290<0 1285.96> 770 249<1033.32 1281.23> 855 291<328.768 604.234>
LayerCount: 2
Fore
SplineSet
143 0 m 1,0,-1
 143 1056 l 2,1,2
 143 1192 143 1192 177 1289 c 128,-1,3
 211 1386 211 1386 267.5 1448 c 128,-1,4
 324 1510 324 1510 397 1538.5 c 128,-1,5
 470 1567 470 1567 548 1567 c 0,6,7
 656 1567 656 1567 743.5 1536 c 128,-1,8
 831 1505 831 1505 892 1453 c 128,-1,9
 953 1401 953 1401 986 1333 c 128,-1,10
 1019 1265 1019 1265 1019 1192 c 0,11,12
 1019 1104 1019 1104 969.5 1017 c 128,-1,13
 920 930 920 930 812 858 c 1,14,15
 876 837 876 837 936 808 c 128,-1,16
 996 779 996 779 1042.5 734.5 c 128,-1,17
 1089 690 1089 690 1117.5 626 c 128,-1,18
 1146 562 1146 562 1146 471 c 0,19,20
 1146 381 1146 381 1123 311.5 c 128,-1,21
 1100 242 1100 242 1060 191 c 128,-1,22
 1020 140 1020 140 964.5 105.5 c 128,-1,23
 909 71 909 71 843.5 49 c 128,-1,24
 778 27 778 27 705.5 16 c 128,-1,25
 633 5 633 5 559 2 c 1,26,-1
 559 230 l 1,27,-1
 571 230 l 2,28,29
 644 230 644 230 698 249.5 c 128,-1,30
 752 269 752 269 786.5 301.5 c 128,-1,31
 821 334 821 334 838 376 c 128,-1,32
 855 418 855 418 855 462 c 0,33,34
 855 510 855 510 836 557 c 128,-1,35
 817 604 817 604 780.5 640.5 c 128,-1,36
 744 677 744 677 691 700 c 128,-1,37
 638 723 638 723 570 723 c 1,38,-1
 570 931 l 1,39,40
 622 948 622 948 660 973.5 c 128,-1,41
 698 999 698 999 722.5 1029.5 c 128,-1,42
 747 1060 747 1060 758.5 1093.5 c 128,-1,43
 770 1127 770 1127 770 1160 c 0,44,45
 770 1196 770 1196 756.5 1229.5 c 128,-1,46
 743 1263 743 1263 718.5 1288.5 c 128,-1,47
 694 1314 694 1314 658.5 1329.5 c 128,-1,48
 623 1345 623 1345 579 1345 c 0,49,50
 551 1345 551 1345 525 1331 c 128,-1,51
 499 1317 499 1317 478.5 1288.5 c 128,-1,52
 458 1260 458 1260 445.5 1216 c 128,-1,53
 433 1172 433 1172 433 1111 c 2,54,-1
 433 0 l 1,55,-1
 143 0 l 1,0,-1
EndSplineSet
EndChar

StartChar: Eth
Encoding: 208 208 183
Width: 1207
Flags: W
HStem: 0 240<503 688.16> 672 192<61 637> 1296 240<503 684.422>
VStem: 204 299<240 1296> 821 300<420.842 1121.13>
CounterMasks: 1 e0
LayerCount: 2
Fore
SplineSet
204 1536 m 1,0,-1
 518 1536 l 2,1,2
 821 1536 821 1536 971 1344.5 c 128,-1,3
 1121 1153 1121 1153 1121 762 c 0,4,5
 1121 665 1121 665 1108 570.5 c 128,-1,6
 1095 476 1095 476 1067.5 391.5 c 128,-1,7
 1040 307 1040 307 997 235 c 128,-1,8
 954 163 954 163 893 111 c 128,-1,9
 832 59 832 59 752 29.5 c 128,-1,10
 672 0 672 0 571 0 c 2,11,-1
 204 0 l 1,12,-1
 204 1536 l 1,0,-1
503 1296 m 1,13,-1
 503 240 l 1,14,-1
 546 240 l 2,15,16
 603 240 603 240 646 259.5 c 128,-1,17
 689 279 689 279 719.5 313 c 128,-1,18
 750 347 750 347 769.5 392.5 c 128,-1,19
 789 438 789 438 800.5 489.5 c 128,-1,20
 812 541 812 541 816.5 596 c 128,-1,21
 821 651 821 651 821 705 c 0,22,23
 821 754 821 754 821 817 c 128,-1,24
 821 880 821 880 815 945.5 c 128,-1,25
 809 1011 809 1011 793 1074 c 128,-1,26
 777 1137 777 1137 746 1186.5 c 128,-1,27
 715 1236 715 1236 664.5 1266 c 128,-1,28
 614 1296 614 1296 538 1296 c 2,29,-1
 503 1296 l 1,13,-1
61 864 m 1,30,-1
 637 864 l 1,31,-1
 637 672 l 1,32,-1
 61 672 l 1,33,-1
 61 864 l 1,30,-1
EndSplineSet
EndChar

StartChar: lessequal
Encoding: 8804 8804 267
Width: 981
Flags: W
DStem2: 11 1088 356 991 0.913812 0.406138<275.87 767.602>
LayerCount: 2
Fore
SplineSet
11 823 m 1,0,-1
 11 1088 l 1,1,-1
 821 1448 l 1,2,-1
 807 1187 l 1,3,-1
 356 991 l 1,4,-1
 833 816 l 1,5,-1
 819 473 l 1,6,-1
 11 823 l 1,0,-1
134 -1 m 1,7,-1
 710 -1 l 1,8,-1
 710 237 l 1,9,-1
 134 237 l 1,10,-1
 134 -1 l 1,7,-1
EndSplineSet
EndChar

StartChar: greaterequal
Encoding: 8805 8805 268
Width: 981
Flags: W
HStem: 0 238<271 847>
DStem2: 160 1448 174 1187 0.913812 -0.406138<118.796 610.528>
LayerCount: 2
Fore
SplineSet
162 473 m 1,0,-1
 148 816 l 1,1,-1
 625 991 l 1,2,-1
 174 1187 l 1,3,-1
 160 1448 l 1,4,-1
 970 1088 l 1,5,-1
 970 823 l 1,6,-1
 162 473 l 1,0,-1
271 238 m 1,7,-1
 847 238 l 1,8,-1
 847 0 l 1,9,-1
 271 0 l 1,10,-1
 271 238 l 1,7,-1
EndSplineSet
EndChar

StartChar: product
Encoding: 8719 8719 271
Width: 1209
Flags: W
HStem: -12 21G<162 412 750 1000> 1238 274<462 750>
VStem: 162 300<12 1238> 750 300<12 1238>
LayerCount: 2
Fore
SplineSet
750 1238 m 1,0,-1
 462 1238 l 1,1,-1
 462 12 l 1,2,-1
 162 -12 l 1,3,-1
 162 1512 l 1,4,-1
 1050 1512 l 1,5,-1
 1050 12 l 1,6,-1
 750 -12 l 1,7,-1
 750 1238 l 1,0,-1
EndSplineSet
EndChar

StartChar: pi
Encoding: 960 960 272
Width: 611
Flags: W
HStem: -12 21G<163 405> 1132 20G<211 453> 1248 192<19 595>
VStem: 165 286<12 1128>
LayerCount: 2
Fore
SplineSet
165 1128 m 1,0,-1
 453 1152 l 1,1,-1
 453 12 l 1,2,-1
 165 -12 l 1,3,-1
 165 1128 l 1,0,-1
19 1440 m 1,4,-1
 595 1440 l 1,5,-1
 595 1248 l 1,6,-1
 19 1248 l 1,7,-1
 19 1440 l 1,4,-1
163 1128 m 1,8,-1
 451 1152 l 1,9,-1
 451 12 l 1,10,-1
 163 -12 l 1,11,-1
 163 1128 l 1,8,-1
EndSplineSet
EndChar

StartChar: integral
Encoding: 8747 8747 273
Width: 703
Flags: W
HStem: -394 202<15.5647 182.182> -364 172<15 181.009> 1344 202<521.818 688.435> 1344 172<522.547 689>
VStem: 208 288<-166.758 1318.76>
LayerCount: 2
Fore
SplineSet
496 -22 m 2,0,1
 496 -92 496 -92 490.5 -158.5 c 128,-1,2
 485 -225 485 -225 457.5 -277.5 c 128,-1,3
 430 -330 430 -330 372 -362 c 128,-1,4
 314 -394 314 -394 210 -394 c 0,5,6
 156 -394 156 -394 119.5 -389.5 c 128,-1,7
 83 -385 83 -385 60 -379 c 0,8,9
 33 -373 33 -373 15 -364 c 1,10,-1
 15 -192 l 1,11,-1
 78 -192 l 2,12,13
 123 -192 123 -192 149 -177 c 128,-1,14
 175 -162 175 -162 188 -138 c 128,-1,15
 201 -114 201 -114 204.5 -83.5 c 128,-1,16
 208 -53 208 -53 208 -21 c 2,17,-1
 208 1174 l 2,18,19
 208 1244 208 1244 213.5 1310.5 c 128,-1,20
 219 1377 219 1377 246.5 1429.5 c 128,-1,21
 274 1482 274 1482 332 1514 c 128,-1,22
 390 1546 390 1546 494 1546 c 0,23,24
 547 1546 547 1546 584 1541 c 128,-1,25
 621 1536 621 1536 644 1531 c 0,26,27
 671 1524 671 1524 689 1516 c 1,28,-1
 689 1344 l 1,29,-1
 626 1344 l 2,30,31
 581 1344 581 1344 555 1329 c 128,-1,32
 529 1314 529 1314 516 1290 c 128,-1,33
 503 1266 503 1266 499.5 1235 c 128,-1,34
 496 1204 496 1204 496 1173 c 2,35,-1
 496 -22 l 2,0,1
EndSplineSet
EndChar

StartChar: Delta
Encoding: 8710 8710 277
Width: 1019
Flags: W
HStem: 0 192<399 706>
LayerCount: 2
Fore
SplineSet
372 1322 m 1,0,-1
 637 1322 l 1,1,-1
 991 0 l 1,2,-1
 31 0 l 1,3,-1
 372 1322 l 1,0,-1
399 192 m 1,4,-1
 706 192 l 1,5,-1
 540 907 l 1,6,-1
 399 192 l 1,4,-1
EndSplineSet
EndChar

StartChar: lozenge
Encoding: 9674 9674 278
Width: 921
Flags: W
HStem: 0 21G<321.966 604.785>
VStem: 41 246<519 920> 596 282<501 938>
DStem2: 41 797 287 720 0.411131 0.911576<30.9468 462.502> 287 720 41 642 0.411663 -0.911336<0 431.548>
LayerCount: 2
Fore
SplineSet
878 642 m 1,0,-1
 596 0 l 1,1,-1
 331 0 l 1,2,-1
 41 642 l 1,3,-1
 41 797 l 1,4,-1
 331 1440 l 1,5,-1
 596 1440 l 1,6,-1
 878 797 l 1,7,-1
 878 642 l 1,0,-1
287 720 m 1,8,-1
 452 321 l 1,9,-1
 596 720 l 1,10,-1
 452 1119 l 1,11,-1
 287 720 l 1,8,-1
EndSplineSet
EndChar

StartChar: zero.zero
Encoding: 65539 -1 280
Width: 1131
Flags: W
HStem: -27 255<462.53 667.703> 1308 238<461.025 668.475>
VStem: 94 289<364 1172.19> 751 288<371.75 1169.61>
LayerCount: 2
Fore
SplineSet
565 -27 m 0,0,1
 464 -27 464 -27 390 8 c 128,-1,2
 316 43 316 43 264 103 c 128,-1,3
 212 163 212 163 179 243 c 128,-1,4
 146 323 146 323 127.5 413.5 c 128,-1,5
 109 504 109 504 101.5 599.5 c 128,-1,6
 94 695 94 695 94 786 c 0,7,8
 94 869 94 869 101.5 957.5 c 128,-1,9
 109 1046 109 1046 128 1130.5 c 128,-1,10
 147 1215 147 1215 180.5 1290.5 c 128,-1,11
 214 1366 214 1366 266 1423 c 128,-1,12
 318 1480 318 1480 392 1513 c 128,-1,13
 466 1546 466 1546 565 1546 c 256,14,15
 664 1546 664 1546 738 1513 c 128,-1,16
 812 1480 812 1480 864.5 1423 c 128,-1,17
 917 1366 917 1366 951 1290.5 c 128,-1,18
 985 1215 985 1215 1004.5 1130.5 c 128,-1,19
 1024 1046 1024 1046 1031.5 957.5 c 128,-1,20
 1039 869 1039 869 1039 786 c 0,21,22
 1038 695 1038 695 1030.5 599.5 c 128,-1,23
 1023 504 1023 504 1004 413.5 c 128,-1,24
 985 323 985 323 951.5 243 c 128,-1,25
 918 163 918 163 865.5 103 c 128,-1,26
 813 43 813 43 739 8 c 128,-1,27
 665 -27 665 -27 565 -27 c 0,0,1
565 228 m 256,28,29
 593 228 593 228 617.5 236 c 128,-1,30
 642 244 642 244 663 266 c 128,-1,31
 684 288 684 288 700 327 c 128,-1,32
 716 366 716 366 727.5 428 c 128,-1,33
 739 490 739 490 745 578 c 128,-1,34
 751 666 751 666 751 786 c 0,35,36
 751 900 751 900 746.5 995.5 c 128,-1,37
 742 1091 742 1091 723 1160.5 c 128,-1,38
 704 1230 704 1230 667 1269 c 128,-1,39
 630 1308 630 1308 565 1308 c 0,40,41
 499 1308 499 1308 462 1269 c 128,-1,42
 425 1230 425 1230 407.5 1160.5 c 128,-1,43
 390 1091 390 1091 386.5 995.5 c 128,-1,44
 383 900 383 900 383 786 c 0,45,46
 383 666 383 666 388.5 578 c 128,-1,47
 394 490 394 490 405 428 c 128,-1,48
 416 366 416 366 432 327 c 128,-1,49
 448 288 448 288 468 266 c 128,-1,50
 488 244 488 244 512.5 236 c 128,-1,51
 537 228 537 228 565 228 c 256,28,29
EndSplineSet
EndChar

StartChar: Eng
Encoding: 330 330 318
Width: 1199
Flags: W
HStem: -317 219<572.105 802> 0 21G<83 351> 1516 20G<83 405.73 834.333 1046>
VStem: 83 268<12 998> 792 254<-65.3856 143 722 1512>
DStem2: 792 722 351 998 0.458405 -0.888744<-447.45 0>
LayerCount: 2
Fore
SplineSet
570 -84 m 1,0,1
 594 -92 594 -92 613.5 -95 c 128,-1,2
 633 -98 633 -98 650 -98 c 0,3,4
 703 -98 703 -98 732 -79 c 128,-1,5
 761 -60 761 -60 774.5 -29.5 c 128,-1,6
 788 1 788 1 790 40 c 128,-1,7
 792 79 792 79 792 120 c 2,8,-1
 792 143 l 1,9,-1
 351 998 l 1,10,-1
 351 12 l 1,11,-1
 83 0 l 1,12,-1
 83 1524 l 1,13,-1
 396 1536 l 1,14,-1
 792 722 l 1,15,-1
 792 1512 l 1,16,-1
 1046 1536 l 1,17,-1
 1046 95 l 2,18,19
 1046 3 1046 3 1031.5 -72.5 c 128,-1,20
 1017 -148 1017 -148 984 -202.5 c 128,-1,21
 951 -257 951 -257 896.5 -287 c 128,-1,22
 842 -317 842 -317 762 -317 c 0,23,24
 681 -317 681 -317 570 -287 c 1,25,-1
 570 -84 l 1,0,1
EndSplineSet
EndChar

StartChar: uni018F
Encoding: 399 399 351
Width: 994
Flags: W
HStem: -32 198<395.601 553.146> 438 166<345 620> 955 212<401.344 552.273>
VStem: 62 283<260.701 438> 620 287<267.054 438 604 870.423>
LayerCount: 2
Fore
SplineSet
620 604 m 1,0,1
 620 658 620 658 613 720 c 128,-1,2
 606 782 606 782 589.5 834 c 128,-1,3
 573 886 573 886 546 920.5 c 128,-1,4
 519 955 519 955 480 955 c 0,5,6
 446 955 446 955 418 928 c 128,-1,7
 390 901 390 901 369 867 c 128,-1,8
 348 833 348 833 335.5 803 c 128,-1,9
 323 773 323 773 320 767 c 1,10,-1
 102 850 l 1,11,12
 122 920 122 920 155 978 c 128,-1,13
 188 1036 188 1036 235 1078 c 128,-1,14
 282 1120 282 1120 344 1143.5 c 128,-1,15
 406 1167 406 1167 485 1167 c 0,16,17
 590 1167 590 1167 669.5 1123 c 128,-1,18
 749 1079 749 1079 801.5 1000 c 128,-1,19
 854 921 854 921 880.5 811 c 128,-1,20
 907 701 907 701 907 570 c 0,21,22
 907 438 907 438 880 327 c 128,-1,23
 853 216 853 216 799 136.5 c 128,-1,24
 745 57 745 57 664 12.5 c 128,-1,25
 583 -32 583 -32 475 -32 c 0,26,27
 372 -32 372 -32 294.5 12.5 c 128,-1,28
 217 57 217 57 165.5 136.5 c 128,-1,29
 114 216 114 216 88 327 c 128,-1,30
 62 438 62 438 62 570 c 1,31,32
 64 577 64 577 66 584 c 0,33,34
 68 589 68 589 69 595 c 128,-1,35
 70 601 70 601 70 604 c 1,36,-1
 620 604 l 1,0,1
345 438 m 1,37,38
 345 381 345 381 352.5 331.5 c 128,-1,39
 360 282 360 282 376 245 c 128,-1,40
 392 208 392 208 417.5 187 c 128,-1,41
 443 166 443 166 480 166 c 0,42,43
 506 166 506 166 531.5 187 c 128,-1,44
 557 208 557 208 576.5 245 c 128,-1,45
 596 282 596 282 608 331.5 c 128,-1,46
 620 381 620 381 620 438 c 1,47,-1
 345 438 l 1,37,38
EndSplineSet
EndChar

StartChar: dotlessj
Encoding: 567 567 390
Width: 602
Flags: W
HStem: -269 173<7 150.243> 1132 20G<214 454>
VStem: 166 288<-78.4126 1128>
LayerCount: 2
Fore
SplineSet
7 -96 m 1,0,1
 63 -96 63 -96 95 -88 c 128,-1,2
 127 -80 127 -80 142.5 -62.5 c 128,-1,3
 158 -45 158 -45 162 -16.5 c 128,-1,4
 166 12 166 12 166 54 c 2,5,-1
 166 1128 l 1,6,-1
 454 1152 l 1,7,-1
 454 54 l 2,8,9
 454 -27 454 -27 450 -91 c 128,-1,10
 446 -155 446 -155 422 -198.5 c 128,-1,11
 398 -242 398 -242 346.5 -265 c 128,-1,12
 295 -288 295 -288 199 -288 c 0,13,14
 159 -288 159 -288 111.5 -283.5 c 128,-1,15
 64 -279 64 -279 7 -269 c 1,16,-1
 7 -96 l 1,0,1
EndSplineSet
EndChar

StartChar: eng
Encoding: 331 331 401
Width: 1093
Flags: W
HStem: -269 173<497 640.243> -12 21G<80 320> 922 245<536.38 725> 1132 20G<128 368>
VStem: 80 288<12 868.161 1005 1128> 656 288<-78.4126 886.925>
LayerCount: 2
Fore
SplineSet
497 -96 m 1,0,1
 553 -96 553 -96 585 -88 c 128,-1,2
 617 -80 617 -80 632.5 -62.5 c 128,-1,3
 648 -45 648 -45 652 -16.5 c 128,-1,4
 656 12 656 12 656 54 c 2,5,-1
 656 769 l 2,6,7
 656 854 656 854 627 888 c 128,-1,8
 598 922 598 922 551 922 c 0,9,10
 513 922 513 922 465.5 897 c 128,-1,11
 418 872 418 872 368 842 c 1,12,-1
 368 12 l 1,13,-1
 80 -12 l 1,14,-1
 80 1128 l 1,15,-1
 368 1152 l 1,16,-1
 368 1005 l 1,17,18
 454 1080 454 1080 539 1123.5 c 128,-1,19
 624 1167 624 1167 698 1167 c 0,20,21
 752 1167 752 1167 797 1146.5 c 128,-1,22
 842 1126 842 1126 874.5 1088.5 c 128,-1,23
 907 1051 907 1051 925.5 997 c 128,-1,24
 944 943 944 943 944 876 c 2,25,-1
 944 54 l 2,26,27
 944 -27 944 -27 940 -91 c 128,-1,28
 936 -155 936 -155 912 -198.5 c 128,-1,29
 888 -242 888 -242 836.5 -265 c 128,-1,30
 785 -288 785 -288 689 -288 c 0,31,32
 649 -288 649 -288 601.5 -283.5 c 128,-1,33
 554 -279 554 -279 497 -269 c 1,34,-1
 497 -96 l 1,0,1
EndSplineSet
EndChar

StartChar: schwa
Encoding: 601 601 433
Width: 994
Flags: W
HStem: -32 198<395.601 553.146> 438 166<345 620> 955 212<401.344 552.273>
VStem: 62 283<260.701 438> 620 287<267.054 438 604 870.423>
LayerCount: 2
Fore
SplineSet
620 604 m 1,0,1
 620 658 620 658 613 720 c 128,-1,2
 606 782 606 782 589.5 834 c 128,-1,3
 573 886 573 886 546 920.5 c 128,-1,4
 519 955 519 955 480 955 c 0,5,6
 446 955 446 955 418 928 c 128,-1,7
 390 901 390 901 369 867 c 128,-1,8
 348 833 348 833 335.5 803 c 128,-1,9
 323 773 323 773 320 767 c 1,10,-1
 102 850 l 1,11,12
 122 920 122 920 155 978 c 128,-1,13
 188 1036 188 1036 235 1078 c 128,-1,14
 282 1120 282 1120 344 1143.5 c 128,-1,15
 406 1167 406 1167 485 1167 c 0,16,17
 590 1167 590 1167 669.5 1123 c 128,-1,18
 749 1079 749 1079 801.5 1000 c 128,-1,19
 854 921 854 921 880.5 811 c 128,-1,20
 907 701 907 701 907 570 c 0,21,22
 907 438 907 438 880 327 c 128,-1,23
 853 216 853 216 799 136.5 c 128,-1,24
 745 57 745 57 664 12.5 c 128,-1,25
 583 -32 583 -32 475 -32 c 0,26,27
 372 -32 372 -32 294.5 12.5 c 128,-1,28
 217 57 217 57 165.5 136.5 c 128,-1,29
 114 216 114 216 88 327 c 128,-1,30
 62 438 62 438 62 570 c 1,31,32
 64 577 64 577 66 584 c 0,33,34
 68 589 68 589 69 595 c 128,-1,35
 70 601 70 601 70 604 c 1,36,-1
 620 604 l 1,0,1
345 438 m 1,37,38
 345 381 345 381 352.5 331.5 c 128,-1,39
 360 282 360 282 376 245 c 128,-1,40
 392 208 392 208 417.5 187 c 128,-1,41
 443 166 443 166 480 166 c 0,42,43
 506 166 506 166 531.5 187 c 128,-1,44
 557 208 557 208 576.5 245 c 128,-1,45
 596 282 596 282 608 331.5 c 128,-1,46
 620 381 620 381 620 438 c 1,47,-1
 345 438 l 1,37,38
EndSplineSet
EndChar

StartChar: Sigma
Encoding: 931 931 443
Width: 1146
Flags: W
HStem: 0 240<489 969> 1296 240<190 649>
DStem2: 119 190 489 240 0.432148 0.901803<204.985 1226.43>
LayerCount: 2
Fore
SplineSet
649 1296 m 1,0,-1
 166 1296 l 1,1,-1
 190 1536 l 1,2,-1
 1003 1536 l 1,3,-1
 1003 1337 l 1,4,-1
 489 240 l 1,5,-1
 1017 240 l 1,6,-1
 969 0 l 1,7,-1
 119 0 l 1,8,-1
 119 190 l 1,9,-1
 649 1296 l 1,0,-1
EndSplineSet
EndChar

StartChar: commaaccent
Encoding: 63171 63171 445
Width: 481
Flags: W
HStem: 96 192<150 231.908> 384 288<102 246>
VStem: 102 288<384 672> 246 144<300.788 384>
LayerCount: 2
Fore
SplineSet
390 672 m 1,0,-1
 390 384 l 2,1,2
 390 330 390 330 379.5 289 c 128,-1,3
 369 248 369 248 352.5 217.5 c 128,-1,4
 336 187 336 187 314 166 c 128,-1,5
 292 145 292 145 270 132 c 0,6,7
 217 100 217 100 150 96 c 1,8,-1
 150 288 l 1,9,10
 186 288 186 288 205.5 303 c 128,-1,11
 225 318 225 318 234 336 c 0,12,13
 245 357 245 357 246 384 c 1,14,-1
 102 384 l 1,15,-1
 102 672 l 1,16,-1
 390 672 l 1,0,-1
EndSplineSet
EndChar

